<?xml version="1.0" encoding="UTF-8"?>
<svg version="1.1" xmlns="http://www.w3.org/2000/svg" width="600" height="600">
<path d="M0 0 C3.12687416 2.43773301 6.24032536 4.89230758 9.35375977 7.34716797 C12.95664945 10.17351397 16.59449231 12.95329617 20.23608398 15.72949219 C21.28143311 16.52734131 21.28143311 16.52734131 22.34790039 17.34130859 C23.75331344 18.41381788 25.15891196 19.48608417 26.56469727 20.55810547 C30.10345279 23.25785066 33.63831121 25.96268908 37.17358398 28.66699219 C38.59023217 29.75034968 40.00689884 30.83368302 41.42358398 31.91699219 C100.92358398 77.41699219 100.92358398 77.41699219 103.04711914 79.04199219 C104.46722973 80.12721103 105.8887867 81.21053972 107.31176758 82.29199219 C110.81495087 84.95803243 114.28861978 87.64983316 117.71264648 90.41699219 C126.47218311 97.42525296 135.51440389 103.0971541 145.34887695 108.49414062 C153.26038032 112.85481177 160.54385972 117.630971 167.67358398 123.16699219 C168.6081543 123.89144531 169.54272461 124.61589844 170.50561523 125.36230469 C207.2012441 154.655811 233.4772038 195.41451009 239.20483398 242.67089844 C243.75624716 289.15910162 230.248401 332.62594164 201.17358398 368.85449219 C194.19519946 377.21132304 187.11139413 385.26205088 178.67358398 392.16699219 C177.64222628 393.04577204 176.61098664 393.92469048 175.57983398 394.80371094 C133.65018972 429.99057546 77.62032089 446.05537993 23.33764648 441.69824219 C-21.22918276 437.52062415 -63.15481851 420.75775562 -96.10766602 390.17480469 C-97.65954844 388.77046038 -99.26590229 387.42506808 -100.90844727 386.12792969 C-104.52675211 383.19353707 -107.32955943 379.7177425 -110.32641602 376.16699219 C-111.09211914 375.28914063 -111.85782227 374.41128906 -112.64672852 373.50683594 C-138.23327066 343.7093425 -151.49294109 308.15899041 -154.32641602 269.16699219 C-157.66861532 269.16699219 -159.87651718 271.77211207 -162.38891602 273.79199219 C-163.00379883 274.28054688 -163.61868164 274.76910156 -164.25219727 275.27246094 C-169.8905822 279.77189212 -175.44788249 284.36985428 -181.00415039 288.9699707 C-185.97476129 293.07790895 -191.00790063 297.09270719 -196.0925293 301.05810547 C-203.25625928 306.65483328 -210.28423102 312.41868233 -217.32641602 318.16699219 C-225.50672398 324.84431534 -233.70014826 331.49534071 -242.0246582 337.99243164 C-247.2920575 342.1138643 -252.47832917 346.33241886 -257.64672852 350.57714844 C-268.63588495 359.56827643 -277.07352353 366.0688812 -291.93579102 365.53808594 C-301.88520637 364.44915223 -308.70126006 359.50997143 -315.32641602 352.16699219 C-321.64238747 343.17375883 -323.47939183 334.06021159 -322.32641602 323.16699219 C-319.15393664 312.70064282 -310.86351394 306.31705349 -302.38891602 300.04199219 C-296.54730207 295.6478295 -290.79343865 291.17464649 -285.13891602 286.54199219 C-278.50538556 281.11256792 -271.80012875 275.7857958 -265.04418945 270.50976562 C-262.13369993 268.23465301 -259.23042895 265.95036175 -256.32641602 263.66699219 C-252.83990501 260.92644593 -249.35263443 258.18689587 -245.86157227 255.45214844 C-239.82510672 250.72086463 -233.81017669 245.9648101 -227.82641602 241.16699219 C-221.27078601 235.91064576 -214.67503106 230.70757159 -208.06030273 225.52587891 C-205.14674784 223.24245923 -202.23673186 220.95453774 -199.32641602 218.66699219 C-195.83985445 215.92651011 -192.35263456 213.18689596 -188.86157227 210.45214844 C-182.82510672 205.72086463 -176.81017669 200.9648101 -170.82641602 196.16699219 C-164.27078601 190.91064576 -157.67503106 185.70757159 -151.06030273 180.52587891 C-148.14674771 178.24245913 -145.23678793 175.9544666 -142.32641602 173.66699219 C-141.16627104 172.7555195 -140.00611478 171.84406118 -138.84594727 170.93261719 C-136.44703415 169.04780476 -134.0486656 167.162302 -131.65063477 165.27636719 C-131.04654785 164.80150879 -130.44246094 164.32665039 -129.82006836 163.83740234 C-128.6284406 162.900272 -127.43734788 161.96246085 -126.24682617 161.02392578 C-123.70938052 159.02593138 -121.16449504 157.04456976 -118.58813477 155.09667969 C-117.80051758 154.50113281 -117.01290039 153.90558594 -116.20141602 153.29199219 C-115.53883789 152.79957031 -114.87625977 152.30714844 -114.19360352 151.79980469 C-111.91815037 149.80997327 -110.19028918 147.54020482 -108.32641602 145.16699219 C-109.16295495 145.16340966 -109.16295495 145.16340966 -110.01639366 145.15975475 C-123.62270191 145.10046907 -137.22883291 145.02464701 -150.8349514 144.93127728 C-157.41493878 144.88661759 -163.99486487 144.84735152 -170.57495117 144.82055664 C-176.92930277 144.79448013 -183.28341796 144.75404634 -189.63762283 144.70380592 C-192.05757321 144.68716672 -194.47756444 144.67563416 -196.89756393 144.66937828 C-200.29646125 144.6597054 -203.69475772 144.63160683 -207.09350586 144.59936523 C-208.08613434 144.60080032 -209.07876282 144.60223541 -210.10147095 144.60371399 C-220.28912199 144.46772572 -229.57940132 142.04172851 -237.32641602 135.16699219 C-243.38890603 127.71624291 -245.01980042 121.6912157 -244.32641602 112.16699219 C-243.06056302 105.57062064 -239.35589561 100.50275046 -234.32641602 96.16699219 C-219.67626867 86.26824398 -204.84255932 85.72111918 -187.74438477 85.75048828 C-185.69148771 85.74309656 -183.63859504 85.73438797 -181.58570862 85.72447205 C-176.04703994 85.70127856 -170.50848356 85.69600717 -164.96977234 85.69381285 C-159.16250906 85.68812774 -153.35531764 85.66484017 -147.5480957 85.64321899 C-136.56137871 85.60478596 -125.57468246 85.58050855 -114.58791542 85.56209433 C-94.89057541 85.52861375 -75.19329754 85.47094252 -55.49603176 85.40810263 C-48.58548783 85.38661856 -41.67496542 85.37134517 -34.76439571 85.36126304 C-30.47360249 85.35424969 -26.18282476 85.34337096 -21.89204216 85.33162117 C-19.90101376 85.32706092 -17.90998059 85.32421509 -15.91894722 85.32319832 C-13.20415219 85.32162752 -10.48943716 85.31404923 -7.7746582 85.30502319 C-6.58999356 85.30662557 -6.58999356 85.30662557 -5.38139629 85.30826032 C-1.55716412 85.28927271 1.94627574 85.00221228 5.67358398 84.16699219 C8.00660385 84.12874596 10.34069907 84.12124935 12.67358398 84.16699219 C9.01713965 80.42203058 5.21658863 76.93879415 1.23608398 73.54199219 C0.319198 72.75767822 0.319198 72.75767822 -0.61621094 71.95751953 C-5.27535033 67.99978805 -10.04037996 64.1987071 -14.86767578 60.44921875 C-20.27700654 56.23772709 -25.56495606 51.8869693 -30.84667969 47.51708984 C-36.49720559 42.84304765 -42.18039102 38.21102675 -47.88647461 33.60498047 C-49.10397319 32.61963068 -50.31828215 31.6303241 -51.52905273 30.63671875 C-52.77083252 29.6212998 -54.02323536 28.61878361 -55.28393555 27.62695312 C-59.79142564 23.98161454 -61.51470896 21.64862442 -62.30297852 15.81542969 C-62.37577911 7.58896217 -58.7735848 1.09892073 -53.32641602 -4.83300781 C-35.9306476 -22.46871786 -16.75328786 -12.94964992 0 0 Z M9.67358398 150.16699219 C8.96508301 150.35503418 8.25658203 150.54307617 7.52661133 150.73681641 C-8.80465479 155.25948693 -24.71085131 162.72496838 -37.32641602 174.16699219 C-38.13981445 174.85148437 -38.95321289 175.53597656 -39.79125977 176.24121094 C-54.77828173 189.10372439 -65.39061365 205.33536821 -71.32641602 224.16699219 C-71.64481445 225.15828125 -71.96321289 226.14957031 -72.29125977 227.17089844 C-76.50946246 243.01345696 -76.34927264 262.54666911 -71.32641602 278.16699219 C-71.13305664 278.78654785 -70.93969727 279.40610352 -70.74047852 280.04443359 C-65.63403497 296.06905233 -57.49859041 308.9090537 -45.67211914 320.79785156 C-44.52068059 321.9693442 -43.41105988 323.1816893 -42.31079102 324.40136719 C-22.5843298 345.84317286 8.57764757 354.42021626 36.60717773 356.45214844 C72.08609586 357.34592184 104.7260822 343.10695891 130.23608398 318.97949219 C149.73294002 298.88970851 158.29087575 273.77747697 157.95483398 246.15917969 C157.56277835 233.79766553 154.04052503 222.27971717 148.67358398 211.16699219 C148.25592773 210.28011719 147.83827148 209.39324219 147.40795898 208.47949219 C133.70678221 181.39210823 107.12640115 161.96279913 78.69848633 152.51025391 C66.09606609 148.6522414 53.64460138 146.78827867 40.48608398 146.85449219 C38.71116577 146.86295166 38.71116577 146.86295166 36.90039062 146.87158203 C27.54035596 147.00058026 18.72155684 147.75111063 9.67358398 150.16699219 Z " fill="#FF8800" transform="translate(339.326416015625,80.8330078125)"/>
<path d="M0 0 C15.08552685 12.89639149 23.94705737 29.62394974 25.62109375 49.39453125 C26.28301771 68.55020957 19.41004256 86.69817383 6.3125 100.75 C-9.05996676 116.76633972 -29.87372393 124.5060926 -51.875 125.0625 C-74.31398289 124.67285474 -93.98389351 117.34563767 -110.59765625 101.93359375 C-124.59508956 87.30823819 -130.6875 69.67923602 -130.6875 49.75 C-129.40698161 31.6826858 -121.27084368 14.9590132 -108.2578125 2.40625 C-77.33835593 -24.38449575 -32.08834935 -24.92298978 0 0 Z " fill="#204B93" transform="translate(436.6875,275.25)"/>
</svg>
