<?xml version="1.0" encoding="UTF-8"?>
<svg version="1.1" xmlns="http://www.w3.org/2000/svg" width="1600" height="1600">
<path d="M0 0 C1.4533374 0.80800049 1.4533374 0.80800049 2.93603516 1.63232422 C7.65925973 4.27026509 12.36526352 6.93718739 17.0625 9.62109375 C23.47079374 13.27944777 29.92066801 16.86116523 36.375 20.4375 C45.0943402 25.27221868 53.80422968 30.12301077 62.5 35 C71.15543429 39.85370018 79.82300024 44.68496009 88.5 49.5 C98.20680092 54.88649708 107.89919228 60.29796246 117.58154297 65.72827148 C125.25116386 70.02724811 132.93587244 74.29852926 140.625 78.5625 C148.93702349 83.17292761 157.231271 87.81236978 165.5 92.5 C177.14467263 99.10040388 188.8450369 105.59881964 200.55175781 112.08837891 C215.91261981 120.60406493 231.26331509 129.13722044 246.58203125 137.72851562 C254.25146244 142.02745908 261.93603144 146.29861743 269.625 150.5625 C277.93702349 155.17292761 286.231271 159.81236978 294.5 164.5 C307.28797586 171.74844812 320.14331564 178.87434613 333 186 C346.79752668 193.64710377 360.58282675 201.31208239 374.30664062 209.09082031 C385.01858736 215.15550966 395.78577596 221.12031339 406.55175781 227.08837891 C426.09002481 237.91991605 445.59903462 248.80237185 465.08398438 259.72949219 C476.87696533 266.342065 488.67853977 272.93845401 500.5 279.5 C503.8725378 281.37344255 507.24491473 283.24717419 510.6171875 285.12109375 C512.89273918 286.38499717 515.16878986 287.64800254 517.4453125 288.91015625 C520.79869847 290.77017785 524.14958481 292.6346337 527.5 294.5 C528.99370117 295.32661133 528.99370117 295.32661133 530.51757812 296.16992188 C551.83952098 308.06350055 570.16774694 322.56611579 578.140625 346.5546875 C580.3741405 355.50905417 581.29520845 364.2500985 581.25447559 373.46102619 C581.25768207 374.55431428 581.26088855 375.64760237 581.26419219 376.7740204 C581.27246384 380.42104125 581.26657777 384.06789665 581.26069641 387.71492004 C581.26371838 390.36271324 581.26752754 393.0104948 581.27228898 395.65828437 C581.2810282 401.40673526 581.28237122 407.15515053 581.27878571 412.90360641 C581.27346787 421.45206119 581.27958486 430.00048161 581.28786864 438.54893265 C581.30309573 454.7062579 581.30481504 470.86356746 581.30234561 487.02089838 C581.30051179 499.49903334 581.30227443 511.97716316 581.30657005 524.45529747 C581.30717246 526.24906029 581.30777366 528.04282311 581.30837366 529.83658594 C581.30928093 532.53973172 581.31018959 535.24287751 581.31110601 537.94602329 C581.31953361 563.07321942 581.32387255 588.20041362 581.31969929 613.32761097 C581.31954291 614.27453679 581.31938654 615.22146261 581.31922542 616.19708315 C581.31841966 620.99629843 581.31757389 625.79551371 581.31671212 630.59472898 C581.31654103 631.54784021 581.31636994 632.50095144 581.31619367 633.48294482 C581.31584701 635.41036627 581.31549848 637.33778772 581.31514808 639.26520916 C581.30979098 669.25534964 581.31772178 699.24546071 581.33618164 729.2355957 C581.35690533 762.94292076 581.36762367 796.6502276 581.36360615 830.35755938 C581.36321082 833.95279133 581.36284927 837.54802328 581.36250877 841.14325523 C581.36237268 842.47107512 581.36237268 842.47107512 581.36223383 843.82571966 C581.3610687 857.17883738 581.36770974 870.53193669 581.37832069 883.88504982 C581.39037851 899.07426107 581.39192492 914.26343181 581.37953053 929.45264367 C581.3729083 937.94791348 581.37451828 946.44308636 581.38811904 954.93834838 C581.39637946 960.61977973 581.39364537 966.30113866 581.38214377 971.98256416 C581.37590308 975.21508595 581.37591746 978.44738251 581.38600711 981.67990003 C581.45665332 1006.0069341 579.30409822 1025.6841323 563 1045 C562.47019531 1045.64324219 561.94039062 1046.28648438 561.39453125 1046.94921875 C551.3086986 1058.07215501 536.1152871 1064.78368891 523.10546875 1071.71875 C517.57421288 1074.67291393 512.11890959 1077.74177797 506.6875 1080.875 C498.70783492 1085.47164827 490.68088623 1089.97576966 482.625 1094.4375 C474.1883924 1099.11118719 465.76642804 1103.80813335 457.375 1108.5625 C446.32342853 1114.82403529 435.24330591 1121.03369137 424.15722656 1127.23388672 C418.93706291 1130.15398136 413.71859227 1133.07709832 408.5 1136 C402.22741152 1139.51323852 395.95445881 1143.02581749 389.6796875 1146.53515625 C379.60795878 1152.16934113 369.54338657 1157.81542249 359.5 1163.5 C348.40527296 1169.77963839 337.28386607 1176.01100698 326.15722656 1182.23388672 C320.93706291 1185.15398136 315.71859227 1188.07709832 310.5 1191 C304.22741152 1194.51323852 297.95445881 1198.02581749 291.6796875 1201.53515625 C281.60795878 1207.16934113 271.54338657 1212.81542249 261.5 1218.5 C250.40527296 1224.77963839 239.28386607 1231.01100698 228.15722656 1237.23388672 C222.93706291 1240.15398136 217.71859227 1243.07709832 212.5 1246 C206.22741152 1249.51323852 199.95445881 1253.02581749 193.6796875 1256.53515625 C183.60795878 1262.16934113 173.54338657 1267.81542249 163.5 1273.5 C152.40527296 1279.77963839 141.28386607 1286.01100698 130.15722656 1292.23388672 C124.93706291 1295.15398136 119.71859227 1298.07709832 114.5 1301 C108.22741152 1304.51323852 101.95445881 1308.02581749 95.6796875 1311.53515625 C85.60795878 1317.16934113 75.54338657 1322.81542249 65.5 1328.5 C54.40527296 1334.77963839 43.28386607 1341.01100698 32.15722656 1347.23388672 C27.97664124 1349.57245417 23.79706788 1351.9128237 19.61816406 1354.25439453 C17.54557282 1355.41466915 15.47200947 1356.57320907 13.39746094 1357.72998047 C8.04090617 1360.71958762 2.70598755 1363.74052857 -2.6015625 1366.81640625 C-24.9032888 1379.66889443 -46.89086187 1387.84558282 -73 1381.5 C-81.13268504 1378.89359984 -88.5413874 1375.09020691 -96 1371 C-96.9698584 1370.46938965 -97.9397168 1369.9387793 -98.93896484 1369.39208984 C-105.82138852 1365.61406066 -112.6778913 1361.79087769 -119.52490234 1357.94921875 C-122.844005 1356.08749923 -126.16565979 1354.23043059 -129.48828125 1352.375 C-140.4575449 1346.24609298 -151.40601267 1340.08112172 -162.34130859 1333.8918457 C-172.49020783 1328.15064205 -182.66601649 1322.45774502 -192.84277344 1316.76611328 C-199.10328908 1313.26405868 -205.36148612 1309.75786247 -211.62011719 1306.25244141 C-216.85275048 1303.32187215 -222.08594222 1300.39230956 -227.3203125 1297.46484375 C-238.34170521 1291.2994112 -249.35045319 1285.1126603 -260.34082031 1278.89208984 C-270.48992675 1273.15088304 -280.66585758 1267.4578339 -290.84277344 1261.76611328 C-297.10328908 1258.26405868 -303.36148612 1254.75786247 -309.62011719 1251.25244141 C-314.85275048 1248.32187215 -320.08594222 1245.39230956 -325.3203125 1242.46484375 C-336.34170521 1236.2994112 -347.35045319 1230.1126603 -358.34082031 1223.89208984 C-368.48992675 1218.15088304 -378.66585758 1212.4578339 -388.84277344 1206.76611328 C-395.10328908 1203.26405868 -401.36148612 1199.75786247 -407.62011719 1196.25244141 C-412.85275048 1193.32187215 -418.08594222 1190.39230956 -423.3203125 1187.46484375 C-434.34170521 1181.2994112 -445.35045319 1175.1126603 -456.34082031 1168.89208984 C-466.48992675 1163.15088304 -476.66585758 1157.4578339 -486.84277344 1151.76611328 C-493.10328908 1148.26405868 -499.36148612 1144.75786247 -505.62011719 1141.25244141 C-510.85275048 1138.32187215 -516.08594222 1135.39230956 -521.3203125 1132.46484375 C-532.34170521 1126.2994112 -543.35045319 1120.1126603 -554.34082031 1113.89208984 C-564.48992675 1108.15088304 -574.66585758 1102.4578339 -584.84277344 1096.76611328 C-591.09900551 1093.26645485 -597.35326472 1089.76326963 -603.60693359 1086.2590332 C-608.9119368 1083.28688289 -614.21936701 1080.31921445 -619.53125 1077.359375 C-625.69650401 1073.92215452 -631.85265915 1070.46915398 -638 1067 C-638.85190918 1066.52014648 -639.70381836 1066.04029297 -640.58154297 1065.54589844 C-661.17205353 1053.89529206 -678.37653697 1039.79424161 -685 1016 C-686.7377459 1008.87885144 -687.2906121 1002.1395217 -687.27009296 994.82468414 C-687.27498782 993.73797928 -687.27988267 992.65127441 -687.28492585 991.5316391 C-687.29888775 987.89495563 -687.29875383 984.25841235 -687.29866028 980.6217041 C-687.30581289 977.98602342 -687.31374668 975.35035551 -687.32262725 972.71468115 C-687.3403376 966.98643101 -687.35068614 961.25820448 -687.35616112 955.52993011 C-687.36431674 947.01129259 -687.38380114 938.49270691 -687.40544782 929.97409434 C-687.44593584 913.872254 -687.47299266 897.770408 -687.49588916 881.66853434 C-687.51364589 869.23089484 -687.5349487 856.79326595 -687.55875206 844.3556366 C-687.56215795 842.56808177 -687.56556254 840.78052694 -687.56896585 838.99297211 C-687.57409731 836.2991849 -687.5792299 833.6053977 -687.58436991 830.91161051 C-687.6320674 805.86587918 -687.6756869 780.82014338 -687.71085072 755.77439117 C-687.7121772 754.8302747 -687.71350368 753.88615823 -687.71487036 752.91343216 C-687.72158046 748.12841226 -687.72825129 743.3433923 -687.73490671 738.55837232 C-687.73622856 737.60807588 -687.73755041 736.65777945 -687.73891232 735.67868615 C-687.74158478 733.75695436 -687.74425534 731.83522256 -687.746924 729.91349076 C-687.78852572 700.0243272 -687.84345236 670.13521425 -687.90893555 640.24609375 C-687.98250932 606.65340388 -688.04595781 573.06071672 -688.0945732 539.46798086 C-688.09979421 535.88361704 -688.10504967 532.29925327 -688.11032677 528.71488953 C-688.11161919 527.83235184 -688.1129116 526.94981415 -688.11424319 526.04053289 C-688.13393528 512.73463004 -688.16151556 499.42875846 -688.19312477 486.12287903 C-688.22908271 470.98166639 -688.25440929 455.84047846 -688.26570032 440.69922644 C-688.27232592 432.23346504 -688.28722964 423.7678158 -688.31428096 415.3020945 C-688.33153878 409.63645893 -688.33764843 403.97087969 -688.33496332 398.30521872 C-688.33374165 395.08412176 -688.33877582 391.86326389 -688.35405228 388.64219743 C-688.47457274 361.98638055 -686.26164612 338.10034883 -667.5390625 317.51953125 C-661.06577184 311.09603513 -654.58179316 306.29599206 -646.5625 301.9375 C-645.06565674 301.10786743 -645.06565674 301.10786743 -643.53857422 300.26147461 C-641.42863051 299.0921854 -639.31660853 297.92663935 -637.20263672 296.76464844 C-633.03210671 294.46669212 -628.88013485 292.13639543 -624.72827148 289.80493164 C-621.59406981 288.04513325 -618.45754955 286.28953701 -615.3203125 284.53515625 C-609.04554116 281.02581748 -602.77261364 277.51319364 -596.5 274 C-594.41667499 272.83331846 -592.33334166 271.6666518 -590.25 270.5 C-588.703125 269.63375 -588.703125 269.63375 -587.125 268.75 C-527.75 235.5 -527.75 235.5 -524.62451172 233.74975586 C-522.54277268 232.58396248 -520.46106691 231.41810968 -518.37939453 230.25219727 C-513.14694077 227.3216794 -507.91389914 224.39222084 -502.6796875 221.46484375 C-492.64855394 215.85327585 -482.62553954 210.22843231 -472.625 204.5625 C-463.12877712 199.18317001 -453.59293401 193.87735184 -444.04736328 188.58618164 C-436.84572138 184.59080648 -429.66407687 180.56231174 -422.5 176.5 C-413.04633122 171.13940011 -403.55202183 165.85462749 -394.046875 160.5859375 C-386.84541613 156.59060758 -379.66391868 152.56222204 -372.5 148.5 C-364.19118718 143.78857821 -355.85405883 139.13070762 -347.5 134.5 C-338.16154199 129.32305927 -328.84809824 124.10491577 -319.55810547 118.84155273 C-309.44481683 113.11337066 -299.30133416 107.43948497 -289.15722656 101.76611328 C-283.93706289 98.84601863 -278.71861321 95.92286434 -273.5 93 C-271.41667499 91.83331846 -269.33334166 90.6666518 -267.25 89.5 C-266.21875 88.9225 -265.1875 88.345 -264.125 87.75 C-154.75 26.5 -154.75 26.5 -151.62353516 24.74926758 C-149.54498466 23.58522081 -147.46653376 22.4209962 -145.38818359 21.2565918 C-140.10748475 18.29835738 -134.82496885 15.34345187 -129.5390625 12.39453125 C-127.4010147 11.20056913 -125.26299362 10.00655914 -123.125 8.8125 C-122.08553223 8.23306641 -121.04606445 7.65363281 -119.97509766 7.05664062 C-115.19624294 4.3846579 -110.43922161 1.68726528 -105.734375 -1.11328125 C-68.87506487 -23.05204742 -36.84551402 -20.49371921 0 0 Z " fill="#3848AA" transform="translate(853,117)"/>
<path d="M0 0 C16.7241426 -0.61883488 33.32015959 0.6055071 49.984375 1.89160156 C51.03098297 1.97001282 52.07759094 2.04842407 53.15591431 2.12921143 C106.12076584 6.16999919 158.36602791 20.58425655 206.45410156 43.08154297 C208.60954621 44.08357088 210.77470049 45.05968087 212.9453125 46.02832031 C251.35947261 63.35530605 288.08175032 88.40137374 319.15234375 116.80566406 C320.53241076 118.0541967 321.91815823 119.29729553 323.33813477 120.50024414 C329.71128444 125.92772778 335.58440353 131.84038614 341.48901367 137.76586914 C343.29299585 139.57521089 345.10226165 141.37914475 346.91210938 143.18261719 C352.73238223 148.99928461 358.43351595 154.84051041 363.734375 161.14160156 C364.58 162.10582031 365.425625 163.07003906 366.296875 164.06347656 C380.97341917 181.09203102 393.5579629 199.53019359 405.8659668 218.29931641 C407.19679509 220.323817 408.59435993 222.30510522 410.03442383 224.25341797 C411.734375 227.14160156 411.734375 227.14160156 411.81176758 229.30859375 C410.21779325 232.02048119 408.23845486 232.95241922 405.49609375 234.46972656 C404.38041016 235.09621094 403.26472656 235.72269531 402.11523438 236.36816406 C400.88417112 237.04274642 399.65304969 237.71722262 398.421875 238.39160156 C397.14962171 239.10116215 395.87814832 239.81212273 394.60742188 240.52441406 C391.96442365 242.00448314 389.31815584 243.4784431 386.66943359 244.94824219 C380.65902788 248.28995485 374.69950237 251.71989648 368.734375 255.14160156 C366.40158442 256.47588538 364.0679786 257.80874033 361.734375 259.14160156 C360.56769331 259.80824194 359.40102664 260.4749086 358.234375 261.14160156 C267.23437502 313.14160155 267.23437502 313.14160155 265.48472595 314.14138794 C264.31687442 314.8087404 263.14903794 315.47611918 261.98121643 316.14352417 C259.08280001 317.79991354 256.18407556 319.45575793 253.28491211 321.11083984 C247.81701172 324.23303989 242.35166419 327.35941689 236.89468384 330.50067139 C234.31720845 331.98402711 231.73837078 333.46500535 229.15942383 334.94580078 C227.93054973 335.65229466 226.70234401 336.35995257 225.47485352 337.06884766 C223.77269426 338.05177477 222.0680373 339.03037267 220.36328125 340.00878906 C219.39463135 340.56679199 218.42598145 341.12479492 217.42797852 341.69970703 C214.90948873 343.04786263 212.40729026 344.14096707 209.734375 345.14160156 C209.26128906 344.48675781 208.78820312 343.83191406 208.30078125 343.15722656 C206.11934368 340.14658758 203.92853662 337.14297983 201.734375 334.14160156 C201.02539062 333.16964844 200.31640625 332.19769531 199.5859375 331.19628906 C186.0810657 312.91352038 170.81007381 295.84594534 152.40527344 282.36816406 C150.75266246 281.1550259 149.12213131 279.91621244 147.4921875 278.67285156 C125.50291394 262.15476535 100.15807009 250.50168056 73.734375 243.14160156 C72.7131958 242.8522876 72.7131958 242.8522876 71.67138672 242.55712891 C63.87512365 240.3776715 56.03738059 238.74673032 48.046875 237.45410156 C46.94375977 237.27488159 46.94375977 237.27488159 45.81835938 237.09204102 C21.07956538 233.33607416 -6.76183543 232.81801816 -31.265625 238.14160156 C-32.74168213 238.4396167 -32.74168213 238.4396167 -34.24755859 238.74365234 C-70.56139054 246.10121277 -104.26216196 260.89022197 -133.265625 284.14160156 C-134.25046875 284.92277344 -135.2353125 285.70394531 -136.25 286.50878906 C-150.29904073 297.89107285 -163.39182611 310.86461835 -174.05517578 325.48681641 C-175.26009593 327.13404287 -176.49261682 328.75731297 -177.73046875 330.37988281 C-197.09641057 356.15780577 -210.16005548 386.6385697 -217.140625 418.01660156 C-217.33172852 418.86971924 -217.52283203 419.72283691 -217.71972656 420.60180664 C-220.71006241 435.02027265 -221.60184077 449.53559646 -221.52636719 464.22827148 C-221.51561333 466.70679066 -221.52636352 469.1845879 -221.5390625 471.66308594 C-221.55296912 487.50781637 -219.64992646 502.66363515 -216.265625 518.14160156 C-215.90404297 520.02298828 -215.90404297 520.02298828 -215.53515625 521.94238281 C-208.89360847 554.93009498 -192.03247141 585.99906456 -171.265625 612.14160156 C-170.82814941 612.6962207 -170.39067383 613.25083984 -169.93994141 613.82226562 C-153.84369029 634.05158694 -134.71419221 649.95229188 -113.265625 664.14160156 C-112.19828125 664.851875 -111.1309375 665.56214844 -110.03125 666.29394531 C-86.35666903 681.46610697 -59.56418917 690.22113256 -32.265625 696.14160156 C-30.95368164 696.43405762 -30.95368164 696.43405762 -29.61523438 696.73242188 C-16.88905443 699.4446436 -4.03207844 699.41738333 8.921875 699.45410156 C10.18964783 699.45988724 10.18964783 699.45988724 11.48303223 699.46578979 C58.48913623 699.57135097 105.37485488 685.66759727 143.734375 658.14160156 C144.69085937 657.45839844 145.64734375 656.77519531 146.6328125 656.07128906 C165.5724102 642.20213484 182.86873484 626.13242466 196.734375 607.14160156 C197.18039062 606.53509766 197.62640625 605.92859375 198.0859375 605.30371094 C202.894561 598.74337459 207.54682591 592.12085004 211.734375 585.14160156 C221.66719269 589.96428796 231.31801317 595.18796086 240.94726562 600.58544922 C246.4681846 603.66799456 252.0090204 606.71462349 257.546875 609.76660156 C260.05735601 611.15059945 262.56774343 612.53476705 265.078125 613.91894531 C265.70974548 614.26716339 266.34136597 614.61538147 266.99212646 614.97415161 C271.39747771 617.40322794 275.80073866 619.83606291 280.203125 622.27050781 C292.58083789 629.11324991 304.97809725 635.9158858 317.42236328 642.63720703 C323.81948745 646.09537347 330.19138178 649.59484424 336.54248047 653.13671875 C343.53229022 657.03449673 350.53872346 660.90193744 357.546875 664.76660156 C358.78679198 665.45058748 360.02670079 666.13458821 361.26660156 666.81860352 C367.04473286 670.0058732 372.82379979 673.19143047 378.60499573 676.37313843 C381.17719843 677.78893194 383.74894501 679.20555281 386.32064819 680.62225342 C388.1017457 681.60298599 389.88350112 682.58252343 391.6652832 683.56201172 C399.73543212 688.00803087 407.74653981 692.54997276 415.734375 697.14160156 C414.8005158 701.46276905 412.72401323 704.93759407 410.484375 708.70410156 C410.04399902 709.44716553 409.60362305 710.19022949 409.14990234 710.95581055 C395.12177225 734.29466799 378.38817131 756.70752298 359.9296875 776.73535156 C358.72491287 778.05588745 357.5278418 779.38421897 356.36914062 780.74536133 C351.10677659 786.90867171 345.42956082 792.63253527 339.70214844 798.35913086 C337.99642902 800.06703212 336.29888473 801.78278201 334.6015625 803.49902344 C328.67656641 809.45370744 322.67692473 815.05508528 316.07763672 820.26586914 C313.83437862 822.06155074 311.71622125 823.9389347 309.609375 825.89160156 C251.08889642 878.37260014 173.96832107 910.63381168 97.734375 926.14160156 C96.33396973 926.43599121 96.33396973 926.43599121 94.90527344 926.73632812 C62.47057786 933.48794024 28.77886015 935.18594014 -4.265625 934.14160156 C-4.94741821 934.12226562 -5.62921143 934.10292969 -6.33166504 934.08300781 C-67.29835564 932.33558968 -127.34639586 917.46906104 -182.78759766 892.26757812 C-185.07015737 891.23041897 -187.3601401 890.21189544 -189.65234375 889.19628906 C-214.11895157 878.19120541 -237.45264951 863.71583481 -259.265625 848.14160156 C-260.03052246 847.59600586 -260.79541992 847.05041016 -261.58349609 846.48828125 C-270.96147325 839.76559453 -280.07940604 832.86839772 -288.73413086 825.23339844 C-290.95421875 823.2794652 -293.19151109 821.35178779 -295.46044922 819.45483398 C-303.77012657 812.49209128 -311.57924836 805.14107186 -319.2175293 797.45043945 C-321.08745641 795.56971628 -322.96795138 793.70003337 -324.84960938 791.83105469 C-331.06886039 785.61823516 -336.9851992 779.35563352 -342.42944336 772.44311523 C-344.20970205 770.21169672 -346.07571977 768.10956502 -348.015625 766.01660156 C-404.59809239 702.92265975 -438.94380139 618.04123962 -454.09448242 511.03222656 C-454.24051749 509.03006611 -454.24051749 509.03006611 -454.7734375 506.65332031 C-471.9155114 419.17432412 -438.55914681 313.04357531 -379.265625 210.14160156 C-378.77852051 209.40474121 -378.29141602 208.66788086 -377.78955078 207.90869141 C-368.0248521 193.21550287 -357.31446447 179.26140752 -345.76611328 165.92919922 C-344.65558106 164.60617336 -343.5749457 163.25792421 -342.51123047 161.89697266 C-335.95160018 153.58144228 -328.59483595 146.16656475 -321.09179688 138.70703125 C-318.8947966 136.5207528 -316.70869822 134.32398219 -314.5234375 132.12597656 C-307.8266964 125.42278333 -301.14216483 118.93906991 -293.69140625 113.07299805 C-291.26315051 111.13963138 -288.96297286 109.11307268 -286.6640625 107.02832031 C-282.25861887 103.07358896 -277.64139356 99.48259193 -272.890625 95.95410156 C-272.0255835 95.30973145 -271.16054199 94.66536133 -270.26928711 94.00146484 C-231.5110606 65.31748981 -189.60054458 42.61856412 -144.265625 26.14160156 C-143.07743164 25.70557617 -143.07743164 25.70557617 -141.86523438 25.26074219 C-96.27496911 8.70104942 -48.21642192 2.09072404 0 0 Z " fill="#FEFEFE" transform="translate(789.265625,332.8583984375)"/>
<path d="M0 0 C1.4533374 0.80800049 1.4533374 0.80800049 2.93603516 1.63232422 C7.65925973 4.27026509 12.36526352 6.93718739 17.0625 9.62109375 C23.47079374 13.27944777 29.92066801 16.86116523 36.375 20.4375 C45.0943402 25.27221868 53.80422968 30.12301077 62.5 35 C71.15543429 39.85370018 79.82300024 44.68496009 88.5 49.5 C98.20680092 54.88649708 107.89919228 60.29796246 117.58154297 65.72827148 C125.25116386 70.02724811 132.93587244 74.29852926 140.625 78.5625 C148.93702349 83.17292761 157.231271 87.81236978 165.5 92.5 C177.14467263 99.10040388 188.8450369 105.59881964 200.55175781 112.08837891 C215.91261981 120.60406493 231.26331509 129.13722044 246.58203125 137.72851562 C254.25146244 142.02745908 261.93603144 146.29861743 269.625 150.5625 C277.93702349 155.17292761 286.231271 159.81236978 294.5 164.5 C307.28797586 171.74844812 320.14331564 178.87434613 333 186 C346.79752668 193.64710377 360.58282675 201.31208239 374.30664062 209.09082031 C385.01858736 215.15550966 395.78577596 221.12031339 406.55175781 227.08837891 C426.09002481 237.91991605 445.59903462 248.80237185 465.08398438 259.72949219 C476.87696533 266.342065 488.67853977 272.93845401 500.5 279.5 C503.8725378 281.37344255 507.24491473 283.24717419 510.6171875 285.12109375 C512.89273918 286.38499717 515.16878986 287.64800254 517.4453125 288.91015625 C520.79869847 290.77017785 524.14958481 292.6346337 527.5 294.5 C528.99370117 295.32661133 528.99370117 295.32661133 530.51757812 296.16992188 C548.50931082 306.20587824 548.50931082 306.20587824 556.0625 313.125 C556.96097656 313.93195313 557.85945313 314.73890625 558.78515625 315.5703125 C561.02850322 318.03126808 561.86918552 319.9180579 563 323 C549.86454834 330.7296603 536.67536071 338.33806348 523.35717773 345.7487793 C516.22779522 349.72589817 509.16262157 353.80045693 502.125 357.9375 C492.52434496 363.57899163 482.82047748 369.01212614 473.07128906 374.39208984 C464.61248188 379.07243587 456.2516336 383.90186334 447.91796875 388.80078125 C440.82838852 392.95900268 433.68193905 397.0036613 426.5 401 C417.27725447 406.13257745 408.14006455 411.39352851 399.03930664 416.73901367 C390.68176482 421.63466496 382.23697898 426.3640745 373.77319336 431.07299805 C366.63037732 435.05755388 359.57737276 439.16265236 352.59765625 443.42578125 C350 445 350 445 348 446 C347.6604126 445.34660645 347.3208252 444.69321289 346.97094727 444.02001953 C343.05709294 436.65084866 338.6588902 429.74968711 333.9375 422.875 C333.56727722 422.33363403 333.19705444 421.79226807 332.81561279 421.23449707 C322.96799524 406.84665844 312.42849801 393.16120577 301 380 C300.36578125 379.26523437 299.7315625 378.53046875 299.078125 377.7734375 C297.39725637 375.83812546 295.70000151 373.91852121 294 372 C293.38511719 371.30100586 292.77023437 370.60201172 292.13671875 369.88183594 C286.37571509 363.39663831 280.37617901 357.18994942 274.24414062 351.05883789 C272.6285932 349.44109808 271.02124966 347.81549364 269.4140625 346.18945312 C263.71401041 340.45879776 257.90118926 335.10758732 251.56567383 330.06933594 C249.10357276 328.08353628 246.75285459 326.01901332 244.41015625 323.89453125 C239.94571014 319.8861467 235.25445075 316.26017082 230.4375 312.6875 C229.56617432 312.03869873 228.69484863 311.38989746 227.79711914 310.72143555 C209.06944347 296.8497803 189.59965731 284.19648244 169.08300781 273.12744141 C167.12902372 272.06983492 165.18467769 270.99649955 163.2421875 269.91796875 C109.4820826 240.30392201 47.28692286 223.31361245 -13.75 218.75 C-15.38858475 218.62442215 -15.38858475 218.62442215 -17.06027222 218.49630737 C-116.13899766 210.97249494 -216.73858169 234.23937663 -354 327 C-356.49306023 329.19997725 -358.96396478 331.42064732 -361.41796875 333.6640625 C-362.79992852 334.9143075 -364.18748103 336.15916107 -365.6081543 337.36523438 C-371.92578339 342.75299237 -377.77778687 348.59168099 -383.64477539 354.45947266 C-385.42510252 356.23761772 -387.21328377 358.00759561 -389.00195312 359.77734375 C-395.80453501 366.54693004 -402.02897783 373.47903973 -408 381 C-408.99455053 382.16430712 -409.99723184 383.32177218 -411.01171875 384.46875 C-423.2747106 398.34033409 -434.0049369 413.43163552 -444 429 C-444.46664062 429.71687988 -444.93328125 430.43375977 -445.4140625 431.17236328 C-478.88111317 482.76374931 -501.02071575 540.57633636 -512 601 C-512.18304687 601.98677734 -512.36609375 602.97355469 -512.5546875 603.99023438 C-518.17961068 634.90693172 -519.80931476 666.62313945 -519 698 C-518.97389648 699.05396973 -518.94779297 700.10793945 -518.92089844 701.19384766 C-518.63259746 711.52463282 -517.99706808 721.73708944 -516.5559082 731.97314453 C-516.01902181 735.79765021 -515.56305899 739.62953369 -515.109375 743.46484375 C-514.09327263 751.76166622 -512.70775373 759.96978846 -511.1875 768.1875 C-511.05516968 768.90532654 -510.92283936 769.62315308 -510.78649902 770.36273193 C-501.84080518 818.6873861 -484.22060469 863.29438488 -462 907 C-465.23266975 909.6908148 -468.42777197 911.93884808 -472.11328125 913.9609375 C-473.10134766 914.5075 -474.08941406 915.0540625 -475.10742188 915.6171875 C-476.16509766 916.19726562 -477.22277344 916.77734375 -478.3125 917.375 C-486.93590409 922.15073048 -495.50258657 927.00351525 -504 932 C-513.22396263 937.41515319 -522.5201606 942.6863158 -531.86206055 947.89501953 C-540.99137742 952.98624609 -550.07094915 958.16042475 -559.13867188 963.36035156 C-564.0172371 966.15595259 -568.90007575 968.94407334 -573.78244019 971.73303223 C-575.56677059 972.75243984 -577.3509195 973.77216437 -579.13500977 974.79199219 C-584.54993777 977.88715586 -589.96547874 980.98121977 -595.3843689 984.06944275 C-598.33999958 985.7538918 -601.29510701 987.43925727 -604.25 989.125 C-605.12446777 989.62379166 -605.12446777 989.62379166 -606.01660156 990.13265991 C-614.06259347 994.72421363 -622.07319442 999.37302395 -630.0625 1004.0625 C-642.03708337 1011.08857389 -654.16969388 1017.81536852 -666.3347168 1024.50463867 C-668.15234211 1025.52442021 -669.94658173 1026.58675654 -671.71801758 1027.68481445 C-674 1029 -674 1029 -676.0625 1029.125 C-679.31888744 1027.23419439 -680.35834839 1024.34193364 -682 1021 C-682 1020.34 -682 1019.68 -682 1019 C-682.66 1019 -683.32 1019 -684 1019 C-686.294805 1011.05956805 -687.43823886 1003.81600819 -687.39314079 995.56297112 C-687.40221384 993.92691972 -687.40221384 993.92691972 -687.41147017 992.25781679 C-687.42803367 988.61951676 -687.42346679 984.98156143 -687.41891479 981.3432312 C-687.42650602 978.70169308 -687.43527446 976.06018246 -687.44547093 973.41865551 C-687.46522786 967.683807 -687.47396654 961.94902493 -687.47536659 956.21414375 C-687.47747927 947.685726 -687.49668587 939.15740548 -687.51919528 930.62902023 C-687.55883036 915.3937694 -687.58142882 900.15852913 -687.59674322 884.92323654 C-687.6101846 871.58671176 -687.62915989 858.25020925 -687.6536293 844.9137001 C-687.65524481 844.02848894 -687.65686031 843.14327777 -687.65852476 842.23124203 C-687.66508642 838.63766685 -687.67166859 835.04409171 -687.6782849 831.45051663 C-687.74023026 797.74454099 -687.78475624 764.03856185 -687.82150623 730.3325504 C-687.85424096 700.40948975 -687.90250672 670.48649192 -687.96386719 640.56347656 C-688.03278842 606.9275545 -688.0918722 573.2916386 -688.13524354 539.65567315 C-688.13989774 536.0668469 -688.14457623 532.47802069 -688.14926529 528.88919449 C-688.15041121 528.00556665 -688.15155713 527.12193881 -688.15273777 526.21153437 C-688.17018631 512.88998868 -688.19510578 499.56847046 -688.22369003 486.24694443 C-688.25617216 471.08930854 -688.27778309 455.9317 -688.28521352 440.77403025 C-688.28966979 432.29937428 -688.30235258 423.82482759 -688.32714417 415.35020617 C-688.34288672 409.67870801 -688.34748543 404.00726904 -688.34328749 398.33575083 C-688.34120263 395.11134479 -688.34535651 391.88717484 -688.35973106 388.66279469 C-688.47266491 362.00035017 -686.26697711 338.10620892 -667.5390625 317.51953125 C-661.06577184 311.09603513 -654.58179316 306.29599206 -646.5625 301.9375 C-645.06565674 301.10786743 -645.06565674 301.10786743 -643.53857422 300.26147461 C-641.42863051 299.0921854 -639.31660853 297.92663935 -637.20263672 296.76464844 C-633.03210671 294.46669212 -628.88013485 292.13639543 -624.72827148 289.80493164 C-621.59406981 288.04513325 -618.45754955 286.28953701 -615.3203125 284.53515625 C-609.04554116 281.02581748 -602.77261364 277.51319364 -596.5 274 C-594.41667499 272.83331846 -592.33334166 271.6666518 -590.25 270.5 C-588.703125 269.63375 -588.703125 269.63375 -587.125 268.75 C-527.75 235.5 -527.75 235.5 -524.62451172 233.74975586 C-522.54277268 232.58396248 -520.46106691 231.41810968 -518.37939453 230.25219727 C-513.14694077 227.3216794 -507.91389914 224.39222084 -502.6796875 221.46484375 C-492.64855394 215.85327585 -482.62553954 210.22843231 -472.625 204.5625 C-463.12877712 199.18317001 -453.59293401 193.87735184 -444.04736328 188.58618164 C-436.84572138 184.59080648 -429.66407687 180.56231174 -422.5 176.5 C-413.04633122 171.13940011 -403.55202183 165.85462749 -394.046875 160.5859375 C-386.84541613 156.59060758 -379.66391868 152.56222204 -372.5 148.5 C-364.19118718 143.78857821 -355.85405883 139.13070762 -347.5 134.5 C-338.16154199 129.32305927 -328.84809824 124.10491577 -319.55810547 118.84155273 C-309.44481683 113.11337066 -299.30133416 107.43948497 -289.15722656 101.76611328 C-283.93706289 98.84601863 -278.71861321 95.92286434 -273.5 93 C-271.41667499 91.83331846 -269.33334166 90.6666518 -267.25 89.5 C-266.21875 88.9225 -265.1875 88.345 -264.125 87.75 C-154.75 26.5 -154.75 26.5 -151.62353516 24.74926758 C-149.54498466 23.58522081 -147.46653376 22.4209962 -145.38818359 21.2565918 C-140.10748475 18.29835738 -134.82496885 15.34345187 -129.5390625 12.39453125 C-127.4010147 11.20056913 -125.26299362 10.00655914 -123.125 8.8125 C-122.08553223 8.23306641 -121.04606445 7.65363281 -119.97509766 7.05664062 C-115.19624294 4.3846579 -110.43922161 1.68726528 -105.734375 -1.11328125 C-68.87506487 -23.05204742 -36.84551402 -20.49371921 0 0 Z " fill="#5C6BBF" transform="translate(853,117)"/>
<path d="M0 0 C2.68574391 2.23081178 3.9845823 4.96980284 5.5390625 8.02734375 C15.44982508 26.51292857 27.91040872 44.16394753 40.9140625 60.58984375 C41.44870117 61.2657959 41.98333984 61.94174805 42.53417969 62.63818359 C48.38953316 70.00574575 54.33840576 77.2607911 60.71875 84.18359375 C61.92909977 85.51024047 63.13153492 86.84482862 64.296875 88.21118164 C69.42520191 94.21004827 74.94171634 99.80363053 80.51904297 105.38012695 C82.15233698 107.01560257 83.7774472 108.65892083 85.40234375 110.30273438 C91.20279848 116.13350794 97.09545431 121.59034849 103.55322266 126.6965332 C105.80112562 128.49927234 107.92624365 130.38180117 110.0390625 132.33984375 C133.6142422 153.48199779 161.35039434 170.2644882 188.9140625 185.58984375 C189.63239258 185.99299805 190.35072266 186.39615234 191.09082031 186.81152344 C211.39261664 198.15692939 233.03327251 206.81360908 254.9140625 214.58984375 C255.88134277 214.93644043 256.84862305 215.28303711 257.84521484 215.64013672 C282.26577955 224.32128253 307.38172941 230.24391471 332.9140625 234.58984375 C334.01121582 234.77675781 335.10836914 234.96367188 336.23876953 235.15625 C355.38196181 238.33243738 374.53979974 239.93366659 393.9140625 240.58984375 C394.97336975 240.62591736 394.97336975 240.62591736 396.05407715 240.66271973 C429.67558879 241.74233594 462.91945448 238.80595256 495.9765625 232.65234375 C496.8552298 232.48943848 497.73389709 232.3265332 498.63919067 232.15869141 C510.59003656 229.9120366 522.24877643 227.01140169 533.9140625 223.58984375 C535.01274658 223.27523193 536.11143066 222.96062012 537.2434082 222.63647461 C567.83670562 213.80884369 596.62888548 202.13308992 624.9140625 187.58984375 C625.97898926 187.04295898 627.04391602 186.49607422 628.14111328 185.93261719 C656.83847383 171.04270025 683.91699523 152.65659915 708.42797852 131.57373047 C710.64471723 129.67097045 712.87242954 127.78302727 715.11425781 125.90991211 C723.26172051 119.06954125 730.94427973 111.87380501 738.4387207 104.32592773 C740.23622055 102.51762767 742.04428566 100.72038398 743.85351562 98.92382812 C749.94902682 92.83486554 755.71986173 86.6799323 761.06030273 79.90893555 C762.84766556 77.67290769 764.71878195 75.56377739 766.6640625 73.46484375 C781.27401509 57.17358709 793.60448012 38.57394851 805.125 20.02734375 C807.10307705 16.86354838 809.10258803 13.71540984 811.140625 10.58984375 C811.62354004 9.84734375 812.10645508 9.10484375 812.60400391 8.33984375 C813.9140625 6.58984375 813.9140625 6.58984375 815.9140625 5.58984375 C818.42578125 6.69458008 818.42578125 6.69458008 821.6015625 8.421875 C822.17096054 8.72884308 822.74035858 9.03581116 823.32701111 9.3520813 C825.19368813 10.36107625 827.05384349 11.38149873 828.9140625 12.40234375 C830.20743763 13.10484865 831.50114075 13.80675002 832.79516602 14.50805664 C836.50785338 16.52379066 840.21199123 18.55467643 843.9140625 20.58984375 C844.77757324 21.06454102 845.64108398 21.53923828 846.53076172 22.02832031 C850.05338529 23.97028938 853.56780657 25.92651354 857.078125 27.890625 C863.27947938 31.35875041 869.50427192 34.78448525 875.7265625 38.21484375 C876.9777934 38.90484804 878.22901405 39.59487093 879.48022461 40.28491211 C882.02402793 41.68777271 884.56790066 43.09050735 887.11181641 44.49316406 C892.61267787 47.52634115 898.11263821 50.56115138 903.61264038 53.59588623 C906.62974168 55.26061017 909.64690534 56.92522107 912.6640625 58.58984375 C913.87239613 59.25650988 915.08072946 59.92317655 916.2890625 60.58984375 C917.18625 61.08484375 917.18625 61.08484375 918.1015625 61.58984375 C919.9140625 62.58984375 921.7265625 63.58984375 923.5390625 64.58984375 C924.13716232 64.91982864 924.73526215 65.24981354 925.35148621 65.58979797 C926.56007801 66.2566097 927.76866565 66.92342896 928.97724915 67.59025574 C931.99409394 69.25476473 935.01101032 70.91914369 938.02807617 72.58325195 C943.5132335 75.60884156 948.99781984 78.6354457 954.47979736 81.66679382 C957.56170275 83.37094339 960.64403436 85.07432092 963.7265625 86.77734375 C964.33075012 87.11118073 964.93493774 87.4450177 965.55743408 87.78897095 C974.74263386 92.86210042 983.96268704 97.86822169 993.19995117 102.84594727 C1001.33803277 107.2457848 1009.39708262 111.77923595 1017.43115234 116.3659668 C1021.87354961 118.89778899 1026.30684839 121.37042167 1030.9140625 123.58984375 C1032.3990625 122.59984375 1032.3990625 122.59984375 1033.9140625 121.58984375 C1032.34631467 131.1531055 1022.45052507 140.19656975 1014.984375 145.78125 C1005.48898237 152.48331516 995.25940405 157.8500899 985.01953125 163.30859375 C979.48827538 166.26275768 974.03297209 169.33162172 968.6015625 172.46484375 C960.62189742 177.06149202 952.59494873 181.56561341 944.5390625 186.02734375 C936.1024549 190.70103094 927.68049054 195.3979771 919.2890625 200.15234375 C908.23749103 206.41387904 897.15736841 212.62353512 886.07128906 218.82373047 C880.85112541 221.74382511 875.63265477 224.66694207 870.4140625 227.58984375 C864.14147402 231.10308227 857.86852131 234.61566124 851.59375 238.125 C841.52202128 243.75918488 831.45744907 249.40526624 821.4140625 255.08984375 C810.31933546 261.36948214 799.19792857 267.60085073 788.07128906 273.82373047 C782.85112541 276.74382511 777.63265477 279.66694207 772.4140625 282.58984375 C766.14147402 286.10308227 759.86852131 289.61566124 753.59375 293.125 C743.52202128 298.75918488 733.45744907 304.40526624 723.4140625 310.08984375 C712.31933546 316.36948214 701.19792857 322.60085073 690.07128906 328.82373047 C684.85112541 331.74382511 679.63265477 334.66694207 674.4140625 337.58984375 C668.14147402 341.10308227 661.86852131 344.61566124 655.59375 348.125 C645.52202128 353.75918488 635.45744907 359.40526624 625.4140625 365.08984375 C614.31933546 371.36948214 603.19792857 377.60085073 592.07128906 383.82373047 C586.85112541 386.74382511 581.63265477 389.66694207 576.4140625 392.58984375 C570.14147402 396.10308227 563.86852131 399.61566124 557.59375 403.125 C547.52202128 408.75918488 537.45744907 414.40526624 527.4140625 420.08984375 C516.31933546 426.36948214 505.19792857 432.60085073 494.07128906 438.82373047 C489.89070374 441.16229792 485.71113038 443.50266745 481.53222656 445.84423828 C479.45963532 447.0045129 477.38607197 448.16305282 475.31152344 449.31982422 C469.95496867 452.30943137 464.62005005 455.33037232 459.3125 458.40625 C437.0107737 471.25873818 415.02320063 479.43542657 388.9140625 473.08984375 C380.78137746 470.48344359 373.3726751 466.68005066 365.9140625 462.58984375 C364.9442041 462.0592334 363.9743457 461.52862305 362.97509766 460.98193359 C356.09267398 457.20390441 349.2361712 453.38072144 342.38916016 449.5390625 C339.0700575 447.67734298 335.74840271 445.82027434 332.42578125 443.96484375 C321.4565176 437.83593673 310.50804983 431.67096547 299.57275391 425.48168945 C289.42385467 419.7404858 279.24804601 414.04758877 269.07128906 408.35595703 C262.81077342 404.85390243 256.55257638 401.34770622 250.29394531 397.84228516 C245.06131202 394.9117159 239.82812028 391.98215331 234.59375 389.0546875 C223.57235729 382.88925495 212.56360931 376.70250405 201.57324219 370.48193359 C191.42413575 364.74072679 181.24820492 359.04767765 171.07128906 353.35595703 C164.81077342 349.85390243 158.55257638 346.34770622 152.29394531 342.84228516 C147.06131202 339.9117159 141.82812028 336.98215331 136.59375 334.0546875 C125.57235729 327.88925495 114.56360931 321.70250405 103.57324219 315.48193359 C93.42413575 309.74072679 83.24820492 304.04767765 73.07128906 298.35595703 C66.81077342 294.85390243 60.55257638 291.34770622 54.29394531 287.84228516 C49.06131202 284.9117159 43.82812028 281.98215331 38.59375 279.0546875 C27.57235729 272.88925495 16.56360931 266.70250405 5.57324219 260.48193359 C-4.57586425 254.74072679 -14.75179508 249.04767765 -24.92871094 243.35595703 C-31.18922658 239.85390243 -37.44742362 236.34770622 -43.70605469 232.84228516 C-48.93868798 229.9117159 -54.17187972 226.98215331 -59.40625 224.0546875 C-70.42764271 217.88925495 -81.43639069 211.70250405 -92.42675781 205.48193359 C-102.57586425 199.74072679 -112.75179508 194.04767765 -122.92871094 188.35595703 C-129.18494301 184.8562986 -135.43920222 181.35311338 -141.69287109 177.84887695 C-146.9978743 174.87672664 -152.30530451 171.9090582 -157.6171875 168.94921875 C-163.78244151 165.51199827 -169.93859665 162.05899773 -176.0859375 158.58984375 C-176.93784668 158.10999023 -177.78975586 157.63013672 -178.66748047 157.13574219 C-196.71831498 146.92214563 -214.42933951 134.39606888 -221.0859375 113.58984375 C-220.7559375 112.59984375 -220.4259375 111.60984375 -220.0859375 110.58984375 C-218.4359375 113.55984375 -216.7859375 116.52984375 -215.0859375 119.58984375 C-210.52583036 118.67782232 -208.19479908 117.72713248 -204.28125 115.44921875 C-202.58814697 114.47166626 -202.58814697 114.47166626 -200.86083984 113.47436523 C-199.64417851 112.76290462 -198.42754508 112.05139628 -197.2109375 111.33984375 C-195.94658398 110.60736371 -194.68176674 109.87568358 -193.41650391 109.14477539 C-191.48917615 108.03122969 -189.5621756 106.91715584 -187.63668823 105.8004303 C-181.93781593 102.49555466 -176.20392987 99.25489023 -170.4609375 96.02734375 C-162.41258374 91.49115204 -154.39713731 86.90049502 -146.3984375 82.27734375 C-137.28365986 77.00936319 -128.16224836 71.75350616 -119.0234375 66.52734375 C-118.43934113 66.19328522 -117.85524475 65.85922668 -117.25344849 65.51504517 C-108.97459472 60.78298465 -100.66524012 56.10760917 -92.3359375 51.46484375 C-83.19151619 46.36763421 -74.13234815 41.13985721 -65.10449219 35.83935547 C-57.98007725 31.66694966 -50.8001283 27.60477093 -43.5859375 23.58984375 C-23.77088681 12.62516173 -23.77088681 12.62516173 -4.41259766 0.88525391 C-2.0859375 -0.41015625 -2.0859375 -0.41015625 0 0 Z " fill="#283593" transform="translate(391.0859375,1025.41015625)"/>
<path d="M0 0 C1.21381348 0.00465271 1.21381348 0.00465271 2.45214844 0.00939941 C14.99507412 0.0656374 27.38461312 0.42505332 39.8125 2.25 C40.60769043 2.35763672 41.40288086 2.46527344 42.22216797 2.57617188 C97.91421761 10.39802689 152.80855096 43.54152513 186.94091797 88.02758789 C188.24430298 89.75928421 189.53143301 91.5017373 190.8125 93.25 C191.27591797 93.87922363 191.73933594 94.50844727 192.21679688 95.15673828 C200.4907591 106.43554481 200.4907591 106.43554481 202.8125 111.25 C190.39672878 118.57580035 177.93503531 125.78609456 165.3125 132.75 C155.70430916 138.05201615 146.19070859 143.48960988 136.73046875 149.05078125 C129.64088852 153.20900268 122.49443905 157.2536613 115.3125 161.25 C107.09046975 165.82566642 98.9267887 170.48587865 90.8125 175.25 C81.75065741 180.56839275 72.62057301 185.74871109 63.44262695 190.86376953 C52.63201941 196.89390351 41.88872376 203.0399958 31.14849854 209.19416809 C27.01146791 211.56449714 22.8717689 213.93010793 18.73046875 216.29296875 C7.40964616 222.75305847 -3.90126518 229.22957862 -15.1875 235.75 C-33.56514993 246.36611331 -51.99173915 256.89502988 -70.4765625 267.32348633 C-81.5449912 273.57244102 -92.57468895 279.88914645 -103.60693359 286.20166016 C-108.88419519 289.22100679 -114.16342816 292.23690319 -119.4425354 295.25302124 C-122.35760647 296.9185358 -125.27254653 298.58427963 -128.1875 300.25 C-129.35416604 300.91666776 -130.52083271 301.58333443 -131.6875 302.25 C-132.265 302.58 -132.8425 302.91 -133.4375 303.25 C-138.68749996 306.24999998 -138.68749996 306.24999998 -140.43721008 307.24983215 C-141.60484564 307.91705393 -142.7724787 308.58428009 -143.94010925 309.25151062 C-146.8419314 310.90971998 -149.74380545 312.56783834 -152.64575195 314.22583008 C-158.07258859 317.32649749 -163.49904345 320.42782486 -168.92404175 323.53170776 C-171.46344241 324.98455358 -174.00307507 326.43699359 -176.54272461 327.8894043 C-177.74368647 328.57637689 -178.94453688 329.26354435 -180.14526367 329.95092773 C-181.81920839 330.90919871 -183.49358256 331.86671937 -185.16796875 332.82421875 C-186.1945459 333.41251465 -187.22112305 334.00081055 -188.27880859 334.60693359 C-191.64419809 336.50798037 -195.04687126 338.33292713 -198.47387695 340.12036133 C-200.49946992 341.29611424 -200.49946992 341.29611424 -202.1875 344.25 C-218.752231 309.1990112 -229.37654072 274.82697952 -229.37280273 235.74633789 C-229.37497485 233.21678456 -229.39315 230.68767893 -229.41210938 228.15820312 C-229.46782492 212.62586285 -228.14298937 197.56842827 -224.5 182.4375 C-224.23872314 181.33712402 -223.97744629 180.23674805 -223.70825195 179.10302734 C-213.65388007 137.92798058 -193.38214428 101.88833548 -164.1875 71.25 C-163.61580078 70.64961914 -163.04410156 70.04923828 -162.45507812 69.43066406 C-131.101792 36.74427266 -90.80775999 15.28419141 -46.875 4.9375 C-45.85067871 4.69491455 -44.82635742 4.4523291 -43.77099609 4.20239258 C-29.1603834 0.91726912 -14.91263884 -0.10225722 0 0 Z " fill="#5C6BC0" transform="translate(796.1875,566.75)"/>
<path d="M0 0 C0.33 0.66 0.66 1.32 1 2 C2.99353941 2.68574417 4.99488156 3.3488898 7 4 C9.05304128 5.03227335 11.08085416 6.1156916 13.0859375 7.23828125 C13.65601028 7.55531509 14.22608307 7.87234894 14.81343079 8.19898987 C16.03508346 8.87905251 17.2554762 9.56138262 18.47470093 10.24578857 C21.06170055 11.6979716 23.6547007 13.13927674 26.24754333 14.58099365 C27.57235045 15.31764892 28.89686315 16.05483393 30.22108459 16.7925415 C36.34938193 20.20385902 42.51356503 23.54704811 48.6875 26.875 C56.08656082 30.87038427 63.46407736 34.89950676 70.80810547 38.99511719 C79.04182331 43.58654459 87.29849175 48.13627264 95.55419922 52.68798828 C96.81738282 53.38444009 98.08056641 54.08089191 99.34375 54.77734375 C99.97532013 55.12553162 100.60689026 55.47371948 101.25759888 55.8324585 C105.66299483 58.26157651 110.06631178 60.69443266 114.46875 63.12890625 C126.84646289 69.97164835 139.24372225 76.77428424 151.68798828 83.49560547 C158.06895493 86.94503745 164.42546804 90.43443881 170.75976562 93.96875 C175.60342057 96.67077096 180.45521958 99.35771066 185.3125 102.03515625 C185.9587886 102.39142593 186.60507721 102.74769562 187.27095032 103.11476135 C189.8832808 104.55457747 192.49574811 105.99414364 195.10873413 107.43276978 C207.8946001 114.47243561 207.8946001 114.47243561 214 118 C213.44753516 122.4950548 211.5796676 125.73094148 209.125 129.4375 C208.52824463 130.34894775 208.52824463 130.34894775 207.91943359 131.27880859 C200.31232543 142.70270315 191.50238727 153.11878001 182 163 C181.48147461 163.54043945 180.96294922 164.08087891 180.42871094 164.63769531 C140.57693096 205.92730259 82.81654518 233.11101303 25.16706848 234.17041016 C-12.61967224 234.67532295 -12.61967224 234.67532295 -29 231 C-30.09199707 230.75830078 -31.18399414 230.51660156 -32.30908203 230.26757812 C-46.23208443 227.11861975 -59.86548064 223.63605677 -73 218 C-73.74024414 217.69400879 -74.48048828 217.38801758 -75.24316406 217.07275391 C-102.11378598 205.93248176 -126.52738372 190.11366594 -147.26660156 169.70263672 C-148.97290296 168.02661617 -150.69903169 166.37347378 -152.4296875 164.72265625 C-160.06330423 157.36385418 -166.69247325 149.51280756 -173 141 C-173.65162109 140.13157471 -173.65162109 140.13157471 -174.31640625 139.24560547 C-179.10182412 132.84778747 -183.60036226 126.30541761 -187.6875 119.4375 C-188.68330078 117.76494141 -188.68330078 117.76494141 -189.69921875 116.05859375 C-191.17700962 112.58378819 -191.25777057 111.4981107 -190 108 C-187.78881836 106.27758789 -187.78881836 106.27758789 -184.83984375 104.72265625 C-183.74849121 104.13411865 -182.65713867 103.54558105 -181.53271484 102.93920898 C-180.94754089 102.63377167 -180.36236694 102.32833435 -179.75946045 102.01364136 C-177.28120573 100.71988629 -174.82341621 99.38930216 -172.3638916 98.06037903 C-171.09692667 97.37618484 -169.82892901 96.69389977 -168.55993652 96.01347351 C-162.57856396 92.80024934 -156.720026 89.39202446 -150.875 85.9375 C-142.80447911 81.19025258 -134.68181963 76.55271511 -126.5 72 C-118.27796975 67.42433358 -110.1142887 62.76412135 -102 58 C-92.93815741 52.68160725 -83.80807301 47.50128891 -74.63012695 42.38623047 C-66.78902994 38.01248317 -58.97975711 33.58501427 -51.1875 29.125 C-50.61135956 28.79529205 -50.03521912 28.46558411 -49.44161987 28.12588501 C-46.50460659 26.44484249 -43.56807721 24.76295697 -40.63183594 23.08056641 C-34.97025727 19.83678955 -29.3063417 16.59710054 -23.64175415 13.35858154 C-21.86854131 12.34454791 -20.09574817 11.32978369 -18.32299805 10.31494141 C-12.23789714 6.8350426 -6.13946304 3.3831709 0 0 Z " fill="#283593" transform="translate(786,799)"/>
</svg>
