<?xml version="1.0" encoding="UTF-8"?>
<svg version="1.1" xmlns="http://www.w3.org/2000/svg" width="512" height="512">
<path d="M0 0 C1.35939359 1.223097 2.70667178 2.45969314 4.04696655 3.70368958 C8.68826077 7.90683332 13.47691245 11.88951145 18.3397522 15.83329773 C47.34417844 39.38441609 75.47942471 63.80111003 102.93867183 89.13228106 C104.62161858 90.68438148 106.30630899 92.23457377 107.99105263 93.78472328 C161.90730227 143.45908227 207.70471812 188.87960458 211.02087486 266.10847312 C211.51041136 281.36813568 210.82714171 296.52990415 209.75 311.75 C209.67065499 312.90119937 209.59130999 314.05239875 209.50956059 315.23848295 C208.94612218 323.25829912 208.28850316 331.266721 207.54931641 339.2722168 C207.41075891 340.77801786 207.41075891 340.77801786 207.26940227 342.31423914 C205.30982065 362.77169837 201.49210225 382.68306468 198 403 C168.63 403 139.26 403 109 403 C109 432.37 109 461.74 109 492 C61.93113419 500.05809982 61.93113419 500.05809982 44.0012207 501.7019043 C42.34547277 501.85422833 42.34547277 501.85422833 40.65627539 502.00962961 C32.42295053 502.7479573 24.18431697 503.37136006 15.9375 503.9375 C14.77079505 504.01972321 13.60409011 504.10194642 12.40203047 504.18666124 C-48.35472243 508.34068823 -98.64850399 500.80322859 -145.25889776 460.59771638 C-167.33590726 441.32925541 -187.76524703 420.42969174 -207.61110657 398.89737064 C-209.19063159 397.18410325 -210.77240046 395.47293158 -212.35459375 393.76212835 C-234.59681227 369.69384685 -256.22139389 345.12371617 -277.00463867 319.78198242 C-277.73395509 318.89368394 -278.46327151 318.00538545 -279.21468842 317.09016883 C-297.81301734 294.35848307 -297.81301734 294.35848307 -301.875 283.125 C-302.26429688 282.07570313 -302.65359375 281.02640625 -303.0546875 279.9453125 C-309.62292136 259.48064998 -299.99255479 241.12115345 -290.96606445 223.16650391 C-288.45413641 218.16941942 -285.98028277 213.15346911 -283.5 208.140625 C-283.01301636 207.15920532 -282.52603271 206.17778564 -282.02429199 205.16662598 C-278.39044007 197.83207194 -274.89456901 190.44871054 -271.5 183 C-265.83835772 170.62389904 -259.8668344 158.40629582 -253.875 146.1875 C-253.39089661 145.20010834 -252.90679321 144.21271667 -252.40802002 143.19540405 C-250.52077481 139.34640564 -248.63338578 135.4974778 -246.74569702 131.6486969 C-243.42871393 124.88279702 -240.12180609 118.1124355 -236.875 111.3125 C-236.52320742 110.61467628 -236.17141483 109.91685255 -235.80896187 109.19788265 C-233.51206596 104.53983445 -231.64318273 100.02202682 -230.19943237 95.02928162 C-224.77335184 78.14239045 -216.50010995 71.16730041 -201.2186296 63.22845447 C-196.09891999 60.62291218 -190.92010907 58.15136004 -185.72408533 55.70243764 C-181.11959236 53.51182538 -176.56022786 51.23074012 -171.99459839 48.96055603 C-164.33527172 45.16749226 -156.64942115 41.43397448 -148.94091797 37.74194336 C-138.10278322 32.55076689 -127.32154375 27.24903995 -116.54751801 21.92638218 C-109.03476773 18.21996401 -101.50917075 14.53971821 -93.98103857 10.86466289 C-92.1685594 9.97979214 -90.35640046 9.09426517 -88.54456568 8.20807576 C-83.38125783 5.68399977 -78.2103677 3.17687378 -73.02662659 0.69501495 C-71.46579908 -0.05481877 -69.90736459 -0.80965987 -68.35169601 -1.57013893 C-45.41881546 -12.76516589 -21.91268538 -15.81524249 0 0 Z " fill="#02579B" transform="translate(309,15)"/>
<path d="M0 0 C6.95507663 5.77769578 13.44839299 12.03670838 19.99021912 18.27107239 C21.31616065 19.53279498 22.64213927 20.79447861 23.96815163 22.05612677 C28.37206594 26.24845057 32.77102586 30.44595509 37.16967773 34.64379883 C38.31897009 35.74008624 38.31897009 35.74008624 39.49148047 36.85852087 C69.81953231 65.78867846 99.90986523 94.95970382 129.88434836 124.25581663 C134.67019583 128.9330538 139.45787385 133.60841271 144.24682617 138.2824707 C144.72319563 138.74748549 145.19956509 139.21250028 145.69036998 139.69160642 C161.51968207 155.14149964 177.50039945 170.42216845 193.55667912 185.63594476 C209.60392774 200.84816128 225.47188291 216.23168478 241.19414669 231.77960032 C250.00300149 240.48124554 258.87108765 249.09180597 267.95126152 257.51072121 C329.80510401 314.98212341 329.80510401 314.98212341 331.60174638 356.94793695 C332.09474492 376.40384424 330.15781192 395.8218188 327 415 C280.39234052 419.3165789 280.39234052 419.3165789 257.73486328 420.43530273 C256.58638483 420.492198 255.43790638 420.54909326 254.25462556 420.60771263 C245.73409814 421.0195533 237.21200864 421.36953374 228.6875 421.6875 C227.48451232 421.73350672 226.28152464 421.77951344 225.04208279 421.82691431 C169.27238976 423.89725578 116.74969658 425.55794358 73.44932705 386.15343612 C65.30311539 378.56342951 57.87512836 370.37680438 50.625 361.9375 C50.07875835 361.30506237 49.5325167 360.67262473 48.96972227 360.02102232 C32.20726951 340.57012532 15.6388438 319.93455261 3.875 297 C3.56304687 296.401875 3.25109375 295.80375 2.9296875 295.1875 C-0.06470189 288.14187789 -0.2809595 281.88574933 -0.24050903 274.30055237 C-0.24221788 273.12667542 -0.24392673 271.95279847 -0.24568737 270.74334949 C-0.2484055 267.49825486 -0.24217988 264.2533212 -0.23213124 261.00824559 C-0.22347536 257.50390523 -0.22641841 253.99957205 -0.22793579 250.495224 C-0.22898329 244.42808324 -0.2227208 238.36098558 -0.21146011 232.29385567 C-0.19518978 223.5218655 -0.18999554 214.74989613 -0.18748413 205.97789251 C-0.18310944 191.74509687 -0.16980645 177.51232419 -0.15087891 163.27954102 C-0.13251427 149.45564895 -0.11836062 135.63176313 -0.10986328 121.80786133 C-0.10933783 120.95541966 -0.10881239 120.10297799 -0.10827102 119.22470475 C-0.1056609 114.94815485 -0.10313349 110.67160491 -0.10064721 106.39505494 C-0.07992173 70.93002026 -0.04470234 35.46501225 0 0 Z " fill="#2AB6F5" transform="translate(91,92)"/>
<path d="M0 0 C38.07382917 0.10454873 76.14763987 0.21431232 114.22143349 0.33111694 C118.71150567 0.34488731 123.20157799 0.35861429 127.69165039 0.37231445 C129.03254765 0.37640691 129.03254765 0.37640691 130.40053374 0.38058204 C144.89457003 0.42471466 159.38861416 0.4653284 173.8826642 0.50465261 C188.74347416 0.54504981 203.6042695 0.58920317 218.46505791 0.63687855 C227.64257277 0.66620178 236.82008648 0.69255888 245.99762035 0.71517897 C252.28218156 0.73094872 258.56672485 0.75035109 264.8512662 0.77266841 C268.48269204 0.78545504 272.114104 0.79658422 275.74554634 0.80341911 C279.67323921 0.8108532 283.60088085 0.82590819 287.52854919 0.84178162 C289.26927024 0.84324878 289.26927024 0.84324878 291.04515737 0.84474558 C292.0886837 0.85022002 293.13221002 0.85569446 294.20735836 0.8613348 C295.11526967 0.86399284 296.02318098 0.86665089 296.95860475 0.86938947 C299 1 299 1 300 2 C300.09517803 4.76938966 300.12554265 7.51377159 300.11352539 10.28344727 C300.11367142 11.15166107 300.11381744 12.01987488 300.1139679 12.91439819 C300.11326846 15.79842586 300.10547463 18.6823898 300.09765625 21.56640625 C300.09579218 23.56037867 300.09436823 25.55435155 300.09336853 27.54832458 C300.08954248 32.80745702 300.07971145 38.06656203 300.06866455 43.32568359 C300.0584523 48.68782175 300.05387131 54.04996431 300.04882812 59.41210938 C300.03808926 69.94141833 300.0210118 80.47070689 300 91 C266.91186121 93.74689854 233.81093591 95.58437896 200.625 96.625 C198.80984123 96.68353157 198.80984123 96.68353157 196.95801258 96.7432456 C87.39851516 100.18079361 87.39851516 100.18079361 49.27780151 65.02807617 C43.02819684 59.09460442 37.37753956 52.6855913 31.875 46.0625 C31.4264544 45.52582986 30.9779088 44.98915972 30.51577091 44.43622684 C0 7.81552207 0 7.81552207 0 0 Z " fill="#40C3FE" transform="translate(118,416)"/>
<path d="M0 0 C10.01432125 8.38860957 19.04591711 17.91932153 28.2578125 27.16015625 C30.01450014 28.91871194 31.77141089 30.67704477 33.52853394 32.43516541 C38.12392782 37.03435399 42.71630906 41.6365391 47.30804443 46.23937988 C52.00561138 50.94722686 56.70605533 55.65219847 61.40625 60.35742188 C70.60696634 69.56882173 79.80459711 78.78329607 89 88 C88.34 88.33 87.68 88.66 87 89 C84.375 87.6875 84.375 87.6875 82 86 C82 85.34 82 84.68 82 84 C80.33428979 83.33094716 78.66735082 82.66495372 77 82 C76.00207176 81.58225972 75.00414352 81.16451944 73.97597504 80.73412037 C60.71732535 75.84534653 47.55167311 76.29088583 33.57226562 76.34057617 C30.82114777 76.33487681 28.07007739 76.32167954 25.31898499 76.30880737 C19.42548613 76.28510809 13.53219621 76.27932285 7.63865662 76.28615379 C-0.88207247 76.29600321 -9.40257189 76.27813832 -17.92326373 76.25378648 C-31.75174481 76.21500534 -45.58015963 76.19824039 -59.40869141 76.19555664 C-72.83157748 76.19290393 -86.25438625 76.17973586 -99.67724609 76.15258789 C-100.50641428 76.15091451 -101.33558247 76.14924113 -102.18987697 76.14751705 C-106.35010307 76.13905679 -110.5103287 76.13039151 -114.67055416 76.12162435 C-149.11369328 76.04930432 -183.55678847 76.01281381 -218 76 C-218 75.34 -218 74.68 -218 74 C-196.86868612 63.34073002 -175.72812669 52.70000109 -154.57653618 42.0810194 C-144.75478386 37.14955436 -134.93609859 32.21216153 -125.12451172 27.26049805 C-116.56860109 22.94256233 -108.00704659 18.63606381 -99.43864357 14.34296781 C-94.90567391 12.07128718 -90.37565093 9.79414066 -85.85235214 7.50325584 C-81.58629024 5.34287858 -77.31278563 3.19798635 -73.03334427 1.06424141 C-71.47221547 0.28258531 -69.91377654 -0.50447261 -68.35844421 -1.29759979 C-45.56453798 -12.90979624 -21.92510242 -15.82420436 0 0 Z " fill="#40C3FE" transform="translate(309,15)"/>
<path d="M0 0 C1.96993637 0.98866749 1.96993637 0.98866749 4 3 C4.39180494 5.85486268 4.52299331 8.32518825 4.48101807 11.18132019 C4.48443577 12.02509525 4.48785347 12.86887031 4.49137473 13.73821431 C4.49798285 16.57606193 4.47592948 19.41297142 4.45410156 22.25073242 C4.45297372 24.28070554 4.45360571 26.3106803 4.45587158 28.34065247 C4.45702211 33.86110199 4.43345788 39.38120586 4.40557575 44.90157485 C4.38061855 50.66713837 4.37822459 56.43270928 4.37347412 62.19831848 C4.36102762 73.12057955 4.32818332 84.04268101 4.28807616 94.9648717 C4.23506343 109.72099604 4.21342651 124.47716383 4.19006729 139.23335934 C4.15242316 162.48902584 4.07274335 185.74435549 4 209 C-25.7 209 -55.4 209 -86 209 C-86.66 207.68 -87.32 206.36 -88 205 C-59.29 205 -30.58 205 -1 205 C-1.00523682 198.82547119 -1.01047363 192.65094238 -1.01586914 186.28930664 C-1.03239933 165.94517977 -1.04351975 145.60105264 -1.05181217 125.25692081 C-1.05697584 112.9158246 -1.06401987 100.57473472 -1.07543945 88.23364258 C-1.08538414 77.48136546 -1.09185291 66.72909294 -1.09408849 55.97681135 C-1.09539597 50.27976789 -1.09848413 44.58273758 -1.10573006 38.88569832 C-1.11248688 33.530128 -1.11461765 28.17457633 -1.11310768 22.81900215 C-1.11338416 20.84726358 -1.11539128 18.87552442 -1.11920547 16.90378952 C-1.12413745 14.22413078 -1.12300013 11.54454361 -1.12025452 8.86488342 C-1.12316736 8.07404281 -1.1260802 7.2832022 -1.12908131 6.46839672 C-1.11412121 1.11412121 -1.11412121 1.11412121 0 0 Z " fill="#075088" transform="translate(503,209)"/>
<path d="M0 0 C45.87 0.061875 91.74 0.12375 139 0.1875 C153.47230469 0.19418701 167.94460938 0.20087402 182.85546875 0.20776367 C200.55664062 0.24865723 200.55664062 0.24865723 208.84887695 0.27412415 C214.62823243 0.29016817 220.40739801 0.29273188 226.18676758 0.28596497 C232.86266692 0.2781955 239.53827671 0.28791065 246.21411401 0.31859394 C249.62443229 0.3337332 253.0338769 0.33862614 256.44426537 0.32660902 C289.84564957 0.2200179 289.84564957 0.2200179 301 10 C298.24165838 9.5072134 295.64066524 8.88659187 292.96517754 8.04219246 C279.72610052 4.05752514 266.59873239 4.48036607 252.87939453 4.57763672 C250.16110243 4.58430393 247.44281716 4.58484311 244.72451782 4.58560181 C238.90138157 4.59029599 233.07843933 4.60931711 227.25537491 4.6382103 C218.83434142 4.67979679 210.41338968 4.69697335 201.99226712 4.70805301 C188.32242616 4.72650469 174.65268195 4.76134964 160.98291016 4.80810547 C160.16707312 4.8108921 159.35123609 4.81367872 158.51067673 4.81654979 C157.69376374 4.81934086 156.87685076 4.82213192 156.03518283 4.82500756 C144.42076342 4.86464854 132.80634071 4.90027452 121.19189453 4.93115234 C120.37281813 4.93333404 119.55374174 4.93551574 118.70984484 4.93776356 C105.07009102 4.97376409 91.43032748 5.0016984 77.79054725 5.02549565 C69.38425971 5.04068722 60.97806744 5.06419538 52.57183538 5.09841897 C46.8252093 5.12149463 41.07859094 5.13788792 35.33192922 5.14894997 C32.01413178 5.15563236 28.69645193 5.16684807 25.37869263 5.18457794 C21.78937294 5.20334558 18.20023239 5.21001623 14.61087036 5.21359253 C13.55370823 5.22214669 12.4965461 5.23070085 11.40734875 5.23951423 C10.45181666 5.23799893 9.49628456 5.23648363 8.51179695 5.23492241 C7.68280707 5.23785014 6.85381718 5.24077787 5.99970639 5.24379432 C4 5 4 5 2 3 C1.67 94.74 1.34 186.48 1 281 C0.67 281 0.34 281 0 281 C0 188.27 0 95.54 0 0 Z " fill="#327FB7" transform="translate(90,90)"/>
<path d="M0 0 C1.485 0.99 1.485 0.99 3 2 C3.37670618 4.02354515 3.37670618 4.02354515 3.37917423 6.56982231 C3.38739738 7.53827139 3.39562052 8.50672046 3.40409285 9.50451648 C3.39788103 10.57607994 3.39166922 11.64764339 3.38526917 12.75167847 C3.39050486 13.88423164 3.39574056 15.0167848 3.40113491 16.18365777 C3.41518113 20.00519446 3.4077732 23.82639758 3.40063477 27.64794922 C3.40469871 30.37751741 3.41330672 33.10706656 3.42178345 35.83662415 C3.43778951 41.72921208 3.4430313 47.6217312 3.44125557 53.51433945 C3.43887423 62.04718829 3.45485015 70.57992709 3.47570812 79.11274721 C3.50927203 92.97294323 3.53090667 106.83312943 3.54370117 120.69335938 C3.54447066 121.52346217 3.54524015 122.35356496 3.54603296 123.20882238 C3.54913471 126.5714991 3.55221754 129.93417583 3.555273 133.29685258 C3.56378738 142.53221406 3.574692 151.76757209 3.58666992 161.00292969 C3.58773794 161.82899117 3.58880596 162.65505265 3.58990634 163.5061463 C3.60802709 177.30147424 3.63404003 191.09677895 3.66480106 204.89208424 C3.6833187 213.39717922 3.69426857 221.90222194 3.69532298 230.40733738 C3.69643027 236.24436907 3.7044182 242.08136504 3.71770663 247.91838162 C3.72509318 251.28186725 3.72813985 254.64520906 3.72458839 258.00871086 C3.72117129 261.66538243 3.73000805 265.32183508 3.74171448 268.97848511 C3.73773338 270.02774135 3.73375229 271.07699758 3.72965056 272.15804946 C3.7774384 280.62161565 4.85027452 288.80708339 7 297 C6.01 297 5.02 297 4 297 C0.57136289 289.09645255 -0.57345388 282.39379569 -0.48101807 273.8195343 C-0.48443577 272.64223965 -0.48785347 271.46494501 -0.49137473 270.25197476 C-0.49678711 267.0157335 -0.48442947 263.78014712 -0.46426249 260.5439831 C-0.44687867 257.04244096 -0.45284186 253.54092561 -0.45587158 250.03935242 C-0.45796209 243.98314114 -0.44548467 237.92710314 -0.42292023 231.87093544 C-0.39031788 223.11492201 -0.37998482 214.35899179 -0.37496826 205.60292425 C-0.36622848 191.39449649 -0.33964876 177.18616094 -0.30175781 162.9777832 C-0.26500355 149.18123839 -0.23670854 135.38471869 -0.21972656 121.58813477 C-0.21867567 120.73674399 -0.21762477 119.88535321 -0.21654204 119.00816271 C-0.21132163 114.73669547 -0.20626686 110.46522805 -0.20129442 106.19376051 C-0.15987342 70.79577463 -0.089461 35.39789584 0 0 Z " fill="#51C3F7" transform="translate(91,92)"/>
<path d="M0 0 C1.75 0.0625 1.75 0.0625 4 1 C6.00840495 3.70049044 8 6.55126733 8 10 C7.34 10 6.68 10 6 10 C4.4921875 8.06640625 4.4921875 8.06640625 2.875 5.5625 C2.33617188 4.73878906 1.79734375 3.91507812 1.2421875 3.06640625 C0 1 0 1 0 0 Z " fill="#44B8EF" transform="translate(95,389)"/>
</svg>
