<?xml version="1.0" encoding="UTF-8"?>
<svg version="1.1" xmlns="http://www.w3.org/2000/svg" width="727" height="899">
<path d="M0 0 C-4.95597659 5.97823409 -10.31533877 11.45414428 -15.81197929 16.93502712 C-16.8100385 17.93382691 -17.80787814 18.93284613 -18.80551922 19.93206355 C-21.54586514 22.67546978 -24.28931149 25.41575695 -27.0332765 28.1555427 C-30.0185333 31.13735853 -33.00087927 34.12208335 -35.98359597 37.10643965 C-41.2108716 42.33578756 -46.44000045 47.56327657 -51.67034721 52.78955269 C-59.44766916 60.56083856 -67.22212109 68.33499086 -74.99598663 76.10973409 C-88.07306897 89.1881303 -101.15247759 102.2641977 -114.23321152 115.33894157 C-127.1856268 128.28544076 -140.13700834 141.23297263 -153.08700943 154.18188667 C-153.89206447 154.98687297 -154.69711951 155.79185928 -155.52657016 156.6212391 C-159.61499719 160.7093278 -163.70340575 164.79743497 -167.79180719 168.88554925 C-196.75341078 197.84505218 -225.71733238 226.80223571 -254.68261719 255.75805664 C-282.82278842 283.88904419 -310.96190961 312.0210814 -339.09960938 340.15454102 C-339.9668667 341.02166682 -340.83412403 341.88879262 -341.72766188 342.78219496 C-350.43697897 351.49019353 -359.1462747 360.19821345 -367.85555479 368.90624901 C-385.59751869 386.64567666 -403.33962508 404.3849618 -421.08181763 422.12416077 C-421.89758295 422.9397888 -422.71334828 423.75541684 -423.55383376 424.59576087 C-478.0335023 479.06622803 -532.5164924 533.53337286 -587 588 C-588.1067022 587.0594193 -589.21225019 586.11748044 -590.31732327 585.17498624 C-590.9331014 584.65059306 -591.54887953 584.12619989 -592.18331761 583.58591601 C-594.85264319 581.2556649 -597.35583748 578.7791649 -599.85301208 576.26724243 C-600.39802197 575.72308697 -600.94303186 575.17893151 -601.50455719 574.61828649 C-603.309371 572.81510482 -605.1106143 571.00840034 -606.91186523 569.20166016 C-608.21315887 567.90008413 -609.51467337 566.59872889 -610.81639099 565.2975769 C-614.33463541 561.77961844 -617.84979619 558.25859351 -621.36439776 554.73699617 C-625.04346798 551.05165887 -628.7253855 547.36916845 -632.40699768 543.68637085 C-639.37155215 536.71871294 -646.33355437 529.74851066 -653.29463583 522.77738321 C-661.22253376 514.83829345 -669.15328405 506.90205568 -677.08427131 498.96605229 C-693.39268265 482.64719894 -709.69752136 466.32477994 -726 450 C-724.69757097 447.17629205 -723.27481784 444.96498273 -721.21172357 442.64344096 C-720.35287147 441.67100109 -720.35287147 441.67100109 -719.47666883 440.67891598 C-718.8458504 439.97388597 -718.21503196 439.26885595 -717.56509781 438.5424614 C-716.89306328 437.78483135 -716.22102875 437.02720131 -715.52862954 436.24661279 C-713.25679495 433.68899692 -710.97797552 431.13772846 -708.69830322 428.58709717 C-707.05503811 426.74398989 -705.4117798 424.90087654 -703.76852775 423.05775762 C-698.75214309 417.43743857 -693.72435417 411.82742407 -688.69302213 406.22048986 C-687.24121324 404.60231782 -685.78993177 402.98367417 -684.33876705 401.36492443 C-659.19540764 373.3224141 -633.81026271 345.51870801 -608.02386475 318.06573486 C-607.43365058 317.43728975 -606.84343642 316.80884464 -606.23533698 316.16135573 C-593.38301565 302.47899431 -580.49737969 288.82845735 -567.57543422 275.21183781 C-561.23380082 268.52900921 -554.89920951 261.83952804 -548.56835938 255.14648438 C-547.6236848 254.14813193 -547.6236848 254.14813193 -546.65992589 253.12961075 C-527.79863224 233.19030981 -509.36124183 212.92564618 -491.19682898 192.35057292 C-463.09881738 160.53653119 -434.40786062 129.37342857 -404.47710595 99.26918998 C-403.25242285 98.03728206 -402.02848496 96.80463286 -400.80529228 95.57124504 C-338.40652871 32.66090406 -281.97111443 -9.71065893 0 0 Z " fill="#53C4F7" transform="translate(727,1)"/>
<path d="M0 0 C2.35854007 0.15753233 4.71732856 0.31084898 7.07617211 0.46376252 C47.20678127 3.09520754 86.83403574 7.902635 126.41326737 15.09451318 C121.51717815 20.99542098 116.2368 26.40894232 110.80819535 31.81983972 C109.83760048 32.79087128 108.86722566 33.76212283 107.8970505 34.73357373 C105.24487701 37.38797284 102.58961321 40.03926128 99.93381405 42.69003212 C97.06500059 45.5545134 94.1990918 48.42189826 91.33282304 51.28892541 C86.37119573 56.2510762 81.40774574 61.21139773 76.44304109 66.17046952 C69.26497846 73.34039336 62.08968988 80.51308807 54.91506796 87.68645466 C43.27368302 99.32565282 31.63006825 110.96261764 19.98504472 122.59817529 C8.67527713 133.89875908 -2.63343614 145.20039625 -13.94073653 156.50344872 C-14.63811716 157.20056663 -15.33549778 157.89768453 -16.05401115 158.61592721 C-19.55267723 162.11328822 -23.05132263 165.61066992 -26.54995775 169.10806191 C-55.55901048 198.10675367 -84.57168487 227.10181991 -113.58673263 256.09451318 C-112.11754594 259.48690232 -110.23189149 261.69735683 -107.62370276 264.30084538 C-106.79067252 265.13724103 -105.95764228 265.97363667 -105.09936869 266.83537763 C-104.17914868 267.74908984 -103.25892867 268.66280205 -102.3108232 269.60420251 C-101.32696579 270.58821596 -100.34354947 271.57267061 -99.36053741 272.55752856 C-96.65595726 275.26464363 -93.9451776 277.96547593 -91.23336983 280.66534817 C-88.31086901 283.57716887 -85.39414862 286.49476931 -82.47674727 289.41169763 C-77.42057515 294.46550626 -72.36080705 299.51569141 -67.29864287 304.56349778 C-59.97908036 311.86239732 -52.6655075 319.1672747 -45.3534887 326.4737306 C-33.48979146 338.32816937 -21.62199961 350.17849974 -9.75128341 362.02590966 C-9.04064809 362.73515166 -8.33001278 363.44439366 -7.59784307 364.17512784 C-6.88629504 364.88528034 -6.17474701 365.59543284 -5.44163692 366.3271051 C4.65280562 376.40176852 14.74627123 386.47740934 24.83856034 396.55422997 C25.54893984 397.26351863 26.25931934 397.97280728 26.9912255 398.70358952 C38.81742468 410.51179273 50.64161249 422.32200871 62.46476471 434.13326269 C69.76380322 441.42469388 77.06491671 448.71403643 84.36868928 456.0007256 C89.36758188 460.98808637 94.36480801 465.97711249 99.36070408 470.9674749 C102.2474549 473.85088064 105.13506052 476.73341783 108.02483582 479.61379266 C110.66557596 482.24595733 113.30405948 484.88036145 115.94070552 487.51662699 C117.35658184 488.93106663 118.77495544 490.34300504 120.19339025 491.75487894 C121.021205 492.58345134 121.84901975 493.41202374 122.70191979 494.26570439 C123.42382316 494.98614389 124.14572652 495.70658339 124.88950574 496.44885439 C126.41326737 498.09451318 126.41326737 498.09451318 126.41326737 499.09451318 C86.08895877 506.49434609 45.73088187 511.32332406 4.8350724 514.00198913 C2.48376116 514.15648793 0.13276483 514.31529136 -2.2182529 514.47418618 C-82.36591532 519.80317803 -148.46077317 511.35273364 -210.65880996 457.18278688 C-237.83171914 433.26233361 -263.03598303 407.45098553 -287.47062689 380.76868528 C-289.46760916 378.58809635 -291.46714521 376.40987094 -293.46697164 374.23189044 C-327.91392737 336.68106713 -360.92592836 298.02014905 -392.58673263 258.09451318 C-391.17183872 255.02377017 -389.48342156 252.51625663 -387.38462615 249.86977029 C-386.71951575 249.02927925 -386.05440535 248.18878822 -385.36914009 247.32282776 C-384.26747614 245.94539279 -384.26747614 245.94539279 -383.14355636 244.54013085 C-382.36237718 243.56070183 -381.58119801 242.58127281 -380.77634674 241.57216412 C-351.88876441 205.43799103 -321.61226561 170.56576267 -290.31670576 136.50050884 C-288.34225946 134.35053136 -286.37054356 132.19807327 -284.39897847 130.04545379 C-220.08589789 59.92072893 -160.65107484 2.83735863 0 0 Z " fill="#53C4F7" transform="translate(600.5867326259613,399.9054868221283)"/>
<path d="M0 0 C3.39865737 1.47130781 5.61468738 3.36501534 8.22474289 5.97585392 C9.48548649 7.22969933 9.48548649 7.22969933 10.77169967 8.50887495 C12.14912758 9.89401821 12.14912758 9.89401821 13.55438232 11.30714417 C14.54323687 12.2944107 15.5325289 13.28123921 16.52222085 14.26766628 C19.24267749 16.98170159 21.95684528 19.70195141 24.67003703 22.42324674 C27.5961848 25.35596553 30.52808445 28.28292404 33.45927429 31.21060181 C39.20069581 36.94697844 44.93675661 42.68868702 50.67103019 48.43220801 C57.34321535 55.11476703 64.02061419 61.7921061 70.69823125 68.46923649 C82.60746304 80.3779675 94.5118544 92.29152553 106.41357422 104.20776367 C117.97472425 115.78300936 129.5393788 127.35473871 141.10791016 138.92260742 C141.82075121 139.63540851 142.53359225 140.34820961 143.26803455 141.08261073 C143.9796185 141.79415433 144.69120245 142.50569792 145.42434955 143.23880345 C158.5797924 156.39355737 171.7319468 169.5515947 184.88256477 182.71117188 C189.54109935 187.37272871 194.20061559 192.03330296 198.86043549 196.69357491 C204.53321853 202.36703844 210.20411667 208.04237837 215.87263289 213.72010512 C218.76754466 216.61964936 221.66325436 219.51838476 224.56110954 222.41498756 C227.20921213 225.06200114 229.85502055 227.7112847 232.49894491 230.36247145 C233.91871803 231.78493915 235.34096565 233.20493566 236.76327395 234.62486845 C237.5933387 235.45815765 238.42340345 236.29144684 239.27862167 237.14998722 C240.00247865 237.87454863 240.72633564 238.59911003 241.47212768 239.34562784 C243 241 243 241 243 242 C199.66282397 245.08665294 156.31610752 247.19941574 112.88557398 248.37124491 C110.4443022 248.4373159 108.00308385 248.50516759 105.56186199 248.57305527 C-41.43934714 252.59714281 -41.43934714 252.59714281 -86.09387332 210.48193306 C-92.51061257 204.23166393 -98.27148652 197.47871306 -103.875 190.5 C-104.62103414 189.57706091 -104.62103414 189.57706091 -105.38213968 188.63547659 C-117.92929175 173.05379733 -128.79686135 156.792317 -138 139 C-132.20541759 131.90721669 -125.67956366 125.54635707 -119.20166016 119.08813477 C-117.90008413 117.78684113 -116.59872889 116.48532663 -115.2975769 115.18360901 C-111.77961844 111.66536459 -108.25859351 108.15020381 -104.73699617 104.63560224 C-101.05165887 100.95653202 -97.36916845 97.2746145 -93.68637085 93.59300232 C-86.71871294 86.62844785 -79.74851066 79.66644563 -72.77738321 72.70536417 C-64.83829345 64.77746624 -56.90205568 56.84671595 -48.96605229 48.91572869 C-32.64719894 32.60731735 -16.32477994 16.30247864 0 0 Z " fill="#005497" transform="translate(484,657)"/>
<path d="M0 0 C2.98274955 1.69942098 5.26015286 3.99719776 7.64731789 6.42467117 C8.48548912 7.25899749 8.48548912 7.25899749 9.3405931 8.11017889 C11.21483236 9.979469 13.07813459 11.85929462 14.94169044 13.73923111 C16.28152058 15.07990727 17.62201128 16.41992356 18.96311378 17.75932693 C22.60587305 21.40122387 26.23929514 25.05231044 29.8711462 28.70508122 C33.66679251 32.51945458 37.47091042 36.32535955 41.27414894 40.13216019 C48.47656531 47.34390869 55.67129888 54.56327192 62.86332297 61.78538269 C71.05081937 70.00638669 79.24681454 78.21889513 87.44354486 86.43069088 C104.30626081 103.32478233 121.15824264 120.22954742 138.00321388 137.14133072 C132.20863147 144.23411403 125.68277754 150.59497365 119.20487404 157.05319595 C117.90329802 158.35448959 116.60194278 159.65600409 115.30079079 160.95772171 C111.78283232 164.47596613 108.26180739 167.99112691 104.74021006 171.50572848 C101.05487275 175.1847987 97.37238233 178.86671622 93.68958473 182.5483284 C86.72192682 189.51288287 79.75172455 196.47488509 72.78059709 203.43596655 C64.84150733 211.36386448 56.90526956 219.29461476 48.96926618 227.22560203 C32.65041282 243.53401337 16.32799383 259.83885207 0.00321388 276.14133072 C-3.97287841 274.53932054 -6.64312772 271.76906893 -9.60292625 268.77569962 C-10.15762352 268.2227112 -10.71232079 267.66972278 -11.28382707 267.09997714 C-13.14182644 265.24527274 -14.99258595 263.38350909 -16.84346581 261.52170181 C-18.17365858 260.19094493 -19.50429185 258.86062821 -20.83533287 257.53071976 C-24.44897721 253.91764994 -28.05641598 250.29844076 -31.66278934 246.67811537 C-35.43219106 242.89622282 -39.20724606 239.11998209 -42.98171043 235.34314346 C-50.12899185 228.18964244 -57.27115913 221.03105781 -64.41151261 213.8706423 C-72.54051921 205.71929169 -80.67519622 197.57361003 -88.81035948 189.42840457 C-105.54549491 172.67235624 -122.27348056 155.90918524 -138.99678612 139.14133072 C-137.39395962 135.17426758 -134.6372069 132.49367284 -131.65807152 129.52846146 C-130.83282229 128.69535721 -130.83282229 128.69535721 -129.99090135 127.84542257 C-128.14556787 125.98508339 -126.29315034 124.13196628 -124.44063377 122.27878189 C-123.1164019 120.94692924 -121.79257442 119.6146744 -120.46912193 118.28204727 C-116.87285 114.66382287 -113.27001892 111.05219999 -109.66529703 107.44239593 C-107.41525395 105.18871193 -105.16651523 102.93373471 -102.9182148 100.6783123 C-95.08000848 92.81561452 -87.23610071 84.95865125 -79.38741112 77.10641861 C-72.06147315 69.77683964 -64.74878743 62.43421711 -57.44197428 55.08557719 C-51.17390079 48.78287891 -44.89630847 42.48976892 -38.61124837 36.20400983 C-34.85486167 32.44682803 -31.10260718 28.68572682 -27.36002541 24.9147892 C-23.84319788 21.37191314 -20.31474738 17.84105139 -16.77682495 14.31924438 C-15.47762089 13.02186503 -14.18271425 11.7201664 -12.89237213 10.41397285 C-11.1360007 8.63734057 -9.365079 6.87665401 -7.589468 5.11928177 C-7.07720559 4.59381939 -6.56494317 4.068357 -6.03715765 3.52697152 C-2.61500067 0.18508739 -2.61500067 0.18508739 0 0 Z " fill="#28B5F5" transform="translate(346.9967861175537,518.8586692810059)"/>
<path d="M0 0 C0.99 0.495 0.99 0.495 2 1 C-23.74 26.74 -49.48 52.48 -76 79 C-73.03 78.505 -73.03 78.505 -70 78 C-70.95729916 79.12588014 -71.91587895 80.2506715 -72.875 81.375 C-73.40867187 82.00148438 -73.94234375 82.62796875 -74.4921875 83.2734375 C-75.61432007 84.55836651 -76.79371975 85.79371975 -78 87 C-79.32 85.35 -80.64 83.7 -82 82 C-54.94 54.94 -27.88 27.88 0 0 Z " fill="#073B5C" transform="translate(428,713)"/>
<path d="M0 0 C-1.41480439 3.21095864 -3.11077834 5.35915945 -5.58837891 7.83129883 C-6.32319489 8.56919144 -7.05801086 9.30708405 -7.81509399 10.06733704 C-9.0087709 11.25023567 -9.0087709 11.25023567 -10.2265625 12.45703125 C-11.04820892 13.27821945 -11.86985535 14.09940765 -12.71640015 14.94548035 C-14.45749517 16.68355424 -16.20101999 18.41919699 -17.94677734 20.15258789 C-20.59913889 22.7868157 -23.24353357 25.42883374 -25.88671875 28.07226562 C-27.58286462 29.76349104 -29.27946498 31.45426079 -30.9765625 33.14453125 C-31.76020172 33.92705765 -32.54384094 34.70958405 -33.35122681 35.51582336 C-37.55840364 39.68738903 -41.84410644 43.70581655 -46.34140015 47.56378174 C-48.3153767 49.27309165 -50.1730553 51.07249395 -52 52.9375 C-52.86625 53.81728516 -52.86625 53.81728516 -53.75 54.71484375 C-54.36875 55.35099609 -54.36875 55.35099609 -55 56 C-55.66 55.67 -56.32 55.34 -57 55 C-49.86929766 47.82303867 -42.73326336 40.65142699 -35.59029579 33.48667145 C-32.2740069 30.15992755 -28.95961123 26.83134143 -25.64941406 23.49853516 C-22.45721612 20.28466998 -19.26021392 17.07565824 -16.05976486 13.87001038 C-14.83715371 12.64369244 -13.61630956 11.41561031 -12.39723587 10.18577576 C-10.69470519 8.46881152 -8.98610433 6.75812297 -7.27587891 5.04882812 C-6.51522881 4.2773922 -6.51522881 4.2773922 -5.73921204 3.4903717 C-2.22810432 0 -2.22810432 0 0 0 Z " fill="#074E7E" transform="translate(486,657)"/>
<path d="M0 0 C0.66 0.33 1.32 0.66 2 1 C-0.31 3.64 -2.62 6.28 -5 9 C-5.66 8.67 -6.32 8.34 -7 8 C-6.875 5.6875 -6.875 5.6875 -6 3 C-3.0625 1.125 -3.0625 1.125 0 0 Z " fill="#004379" transform="translate(356,791)"/>
</svg>
