<?xml version="1.0" encoding="UTF-8"?>
<svg version="1.1" xmlns="http://www.w3.org/2000/svg" width="500" height="500">
<path d="M0 0 C1.04542969 0.56460938 2.09085937 1.12921875 3.16796875 1.7109375 C14.97728124 8.3566008 25.56672608 16.22143521 35.3828125 25.53515625 C37.47592722 27.50643295 39.5913117 29.3661256 41.8125 31.1875 C45.63741045 34.44371873 48.81458349 38.12534132 52 42 C52.83660156 43.010625 53.67320312 44.02125 54.53515625 45.0625 C86.4065549 84.20401081 101.5533888 134.78143285 96.46875 185.05078125 C93.53492683 209.47612372 86.61771391 232.30397941 75 254 C74.53207031 254.93585938 74.06414062 255.87171875 73.58203125 256.8359375 C67.04625918 269.60081785 58.26400559 281.13874664 48.39453125 291.48828125 C46.43731032 293.54128787 44.60787289 295.62030615 42.8125 297.8125 C39.55628127 301.63741045 35.87465868 304.81458349 32 308 C30.4840625 309.25490234 30.4840625 309.25490234 28.9375 310.53515625 C12.0693601 324.27022166 -15.28769067 344.36632757 -38 344 C-40.95276698 342.80632824 -42.39669368 341.93842683 -44.11195374 339.27038574 C-45.24946855 336.36220684 -45.25901247 333.98437748 -45.27124023 330.86132812 C-45.28652016 328.99788757 -45.28652016 328.99788757 -45.30210876 327.09680176 C-45.30304976 326.43499405 -45.30399075 325.77318634 -45.30496025 325.09132385 C-45.30864179 323.00401225 -45.32542176 320.91716834 -45.34571838 318.82995605 C-45.40092237 312.89649238 -45.43160773 306.9629575 -45.45629883 301.02929688 C-45.47233551 297.39350634 -45.50272988 293.75804129 -45.54106331 290.12242126 C-45.55258522 288.74799607 -45.55864252 287.37351218 -45.55874443 285.9990387 C-45.55980637 275.47751142 -46.02393163 264.51924278 -52.0625 255.5 C-53.88835562 252.71243417 -55.53592485 249.99318547 -57 247 C-56.32122803 246.87471924 -55.64245605 246.74943848 -54.94311523 246.62036133 C-27.79895229 241.55452305 -3.29997695 235.30422322 13.65234375 211.69921875 C26.73831819 191.35435772 30.41954688 162.10491114 25.875 138.5 C23.28839347 128.46492466 19.65689069 119.74956198 13 111.8125 C9.04958178 106.8051137 9.04958178 106.8051137 8.8359375 103.3359375 C9.375 100.6875 9.375 100.6875 10.16015625 97.95703125 C14.03914831 84.29937085 11.9035001 68.73564066 6 56 C-10.49595928 56.37724647 -26.93454132 63.67066231 -40.17578125 73.3125 C-43.46518448 75.27795255 -44.47029753 75.30480999 -48.125 74.4375 C-49.18460938 74.22222656 -50.24421875 74.00695312 -51.3359375 73.78515625 C-52.54507813 73.52605469 -53.75421875 73.26695312 -55 73 C-78.93316648 68.10644878 -106.6732185 67.16524125 -130.34765625 73.9609375 C-135.29884782 75.27864593 -137.85186501 75.53297373 -142.6015625 73.328125 C-145.88215324 71.41532386 -149.02217916 69.30189713 -152.17138672 67.18212891 C-162.23290739 60.67773864 -175.90273626 55.51980327 -188 56 C-194.17742496 69.4780181 -195.37138052 83.38648948 -192.03051758 97.77148438 C-190.61849091 103.91526053 -190.61849091 103.91526053 -192 107 C-193.35006105 108.96966802 -194.75358343 110.9030131 -196.1875 112.8125 C-205.61271156 125.89733128 -209.40238518 140.48350292 -209.3125 156.5 C-209.30758545 157.54663818 -209.3026709 158.59327637 -209.29760742 159.67163086 C-208.94760138 183.19383161 -203.00833134 205.97924626 -186.0859375 223.171875 C-169.93303461 238.58247621 -146.58542608 244.40354839 -125 247 C-126.42929689 250.00904608 -128.11394715 252.71594984 -129.9375 255.5 C-132.39907896 259.46914885 -133.49397293 262.78900587 -134.3125 267.375 C-135.4179111 272.53137872 -135.4179111 272.53137872 -138.00390625 274.61328125 C-140.34171501 275.67242031 -142.50277082 276.41510081 -145 277 C-145.75152344 277.185625 -146.50304687 277.37125 -147.27734375 277.5625 C-159.70825651 279.56000678 -170.68560277 278.48014469 -181.1875 271.3125 C-186.2331284 267.28208859 -189.79254822 262.12867182 -193.48828125 256.890625 C-198.95876943 249.2820754 -205.62604863 242.33640782 -215 240 C-219.35773621 239.69997527 -223.64085885 239.75745119 -228 240 C-226.63291477 244.57538929 -224.76008064 246.22615406 -220.8125 248.8125 C-209.69873098 256.62686884 -204.22606517 266.79409781 -198.6640625 278.91015625 C-193.31137126 290.53160334 -184.64822545 296.42933762 -173 301 C-163.25778579 303.66019199 -153.64793105 303.21695402 -143.6796875 302.48828125 C-141.79999268 302.35160034 -141.79999268 302.35160034 -139.88232422 302.2121582 C-138.93115723 302.142146 -137.97999023 302.07213379 -137 302 C-136.9009016 307.03534236 -136.8284242 312.07011342 -136.78027344 317.10620117 C-136.76019495 318.81821586 -136.73292608 320.53016228 -136.69824219 322.24194336 C-136.64955599 324.70704008 -136.62699427 327.1712279 -136.609375 329.63671875 C-136.58872986 330.39836838 -136.56808472 331.16001801 -136.54681396 331.94474792 C-136.54527729 335.60873038 -136.87290667 337.79065655 -138.79003906 340.94848633 C-141.42148722 343.39126791 -143.55632035 344.12107593 -147.13671875 344.3203125 C-172.38052444 341.49631241 -199.7797845 320.63589346 -217.79296875 304.01953125 C-219.71482152 302.26095093 -221.67647489 300.59180225 -223.6875 298.9375 C-227.54997439 295.63064837 -230.77523993 291.92251518 -234 288 C-235.25490234 286.4840625 -235.25490234 286.4840625 -236.53515625 284.9375 C-268.74144472 245.38470841 -282.87173001 195.45769461 -278.53759766 144.80322266 C-274.3610744 105.54752792 -257.8913095 68.30579452 -231.12109375 39.30859375 C-229.17001655 37.18504564 -227.30031718 35.01324319 -225.4375 32.8125 C-221.9245548 28.80454889 -218.11862122 25.37526031 -214 22 C-212.99066406 21.1646875 -211.98132813 20.329375 -210.94140625 19.46875 C-151.31778852 -29.09167216 -67.48793966 -36.58155207 0 0 Z " fill="#FFFFFF" transform="translate(341,85)"/>
</svg>
