<?xml version="1.0" encoding="UTF-8"?>
<svg version="1.1" xmlns="http://www.w3.org/2000/svg" width="512" height="512">
<path d="M0 0 C7.07995205 -0.10196962 14.15971257 -0.17170349 21.24023438 -0.21972656 C23.64557981 -0.23976034 26.05087703 -0.26699522 28.45605469 -0.30175781 C31.92655378 -0.35063808 35.39640526 -0.37305205 38.8671875 -0.390625 C40.46311234 -0.42159271 40.46311234 -0.42159271 42.09127808 -0.45318604 C54.02691737 -0.45672032 61.83177201 3.65086647 70.171875 11.8828125 C85.12306289 27.74468185 90.973252 50.98614561 94 72 C94.14574463 72.99821777 94.14574463 72.99821777 94.29443359 74.01660156 C98.78913709 108.86064053 93.91396403 149.15878898 72 177.6640625 C66.08514452 184.57242887 59.08395355 190.16210751 50 192 C47.86704518 192.08962109 45.73145477 192.12197062 43.59661865 192.12025452 C42.27851196 192.12162918 40.96040527 192.12300385 39.60235596 192.12442017 C38.14343239 192.12088121 36.68450905 192.11724641 35.22558594 192.11352539 C33.68806968 192.11324329 32.15055329 192.11340169 30.61303711 192.1139679 C26.43984156 192.11425499 22.26667471 192.10837243 18.09348583 192.10139394 C13.73194206 192.0951458 9.37039765 192.09455544 5.0088501 192.09336853 C-3.25002662 192.09025953 -11.5088901 192.08205194 -19.76776099 192.07201904 C-29.17033326 192.06084454 -38.57290616 192.05534408 -47.97548342 192.05032361 C-67.31699665 192.03986898 -86.65849678 192.0220766 -106 192 C-106 195.96 -106 199.92 -106 204 C-74.32 204 -42.64 204 -10 204 C-10 258.79037801 -10 258.79037801 -21 271 C-37.68895335 287.68895335 -62.36881865 293.82452534 -85 297 C-86.36705078 297.19722656 -86.36705078 297.19722656 -87.76171875 297.3984375 C-121.20559932 301.28359788 -160.76345388 296.14789945 -188 275 C-195.34251552 268.71166868 -201.09096083 261.66097863 -203 252 C-203.28338164 248.31849089 -203.27345476 244.65022325 -203.25878906 240.95922852 C-203.2622937 239.8689032 -203.26579834 238.77857788 -203.26940918 237.6552124 C-203.27818739 234.06304494 -203.27239062 230.4710756 -203.265625 226.87890625 C-203.26697287 224.37458763 -203.26891442 221.87026926 -203.27142334 219.36595154 C-203.27436939 214.12147006 -203.27028593 208.87703974 -203.26074219 203.63256836 C-203.24986486 197.58577906 -203.2533812 191.53912473 -203.264395 185.49233872 C-203.2745967 179.65588193 -203.2734758 173.81947606 -203.26763153 167.98301506 C-203.26629998 165.50835081 -203.26792538 163.03368311 -203.27259064 160.5590229 C-203.2776863 157.09597868 -203.26990242 153.63319119 -203.25878906 150.17016602 C-203.26283752 149.15329208 -203.26688599 148.13641815 -203.27105713 147.08872986 C-203.19387043 134.06361198 -199.39347503 124.88271644 -190.48828125 115.39453125 C-179.73884965 105.05010178 -168.03168537 100.79345503 -153.31445312 100.91821289 C-152.46134048 100.92127945 -151.60822784 100.92434601 -150.72926331 100.92750549 C-148.8812414 100.93464035 -147.03322708 100.94401972 -145.18522644 100.95540047 C-142.23826593 100.97291167 -139.29136069 100.98313164 -136.34436035 100.99131775 C-127.96601117 101.01563867 -119.58773508 101.0507722 -111.20947266 101.09594727 C-106.07373043 101.12312447 -100.93803209 101.13991198 -95.80223083 101.15081596 C-93.86663712 101.15692687 -91.93105071 101.16680177 -89.99549866 101.18089485 C-79.61910002 101.25565803 -69.35816882 101.01227049 -59.01757812 100.09155273 C-57.64700382 99.97007291 -57.64700382 99.97007291 -56.24874115 99.84613895 C-39.05440708 98.15986683 -26.19525311 88.88056003 -15 76 C-5.90727778 64.18710206 -1.93019133 53.54227444 -1.71875 38.80859375 C-1.69113586 37.33520287 -1.69113586 37.33520287 -1.66296387 35.83204651 C-1.58449826 31.63919662 -1.51654988 27.44619176 -1.44775391 23.25317383 C-1.39596283 20.18823491 -1.33874684 17.12343007 -1.28125 14.05859375 C-1.26767456 13.1106041 -1.25409912 12.16261444 -1.2401123 11.18589783 C-1.22339478 10.30140457 -1.20667725 9.41691132 -1.18945312 8.50561523 C-1.17692505 7.73015854 -1.16439697 6.95470184 -1.15148926 6.15574646 C-0.99982065 3.99744785 -0.59018552 2.07754823 0 0 Z M-65.8125 232.3125 C-69.58169707 236.94322782 -71.60978752 240.78708709 -71.3515625 246.9140625 C-70.4995451 251.96936571 -68.19875705 255.83198031 -64.5625 259.375 C-59.48944679 262.59205814 -55.04062425 263.86931493 -49 263 C-44.16154217 261.58952705 -40.9194459 259.42048424 -38.0625 255.25 C-35.48236609 250.52704301 -34.39164953 246.35860153 -35.375 240.9296875 C-37.03470947 235.47339263 -40.06271745 231.83847517 -45 229 C-53.07629865 225.9089085 -59.19085306 226.86803474 -65.8125 232.3125 Z " fill="#F8C63C" transform="translate(365,160)"/>
<path d="M0 0 C8.5254614 8.08186016 12.14727017 16.51409577 12.74362183 28.16294861 C12.80987296 32.32883631 12.81437347 36.49010421 12.79296875 40.65625 C12.79177176 42.21634889 12.79132488 43.77644852 12.7915802 45.33654785 C12.79002211 48.60445694 12.78179844 51.87225548 12.76831055 55.14013672 C12.75154536 59.24560056 12.74760465 63.35094236 12.74809074 67.45643616 C12.74782052 82.37816694 12.68482424 97.30283 12.23828125 112.21875 C12.21654343 113.2140271 12.1948056 114.2093042 12.17240906 115.23474121 C11.50728436 133.3208638 4.5295192 147.36753042 -8.4375 159.625 C-21.61888066 171.002397 -35.2626716 171.22896806 -51.89622498 171.32661629 C-55.5302222 171.34801828 -59.16329532 171.39292435 -62.79699707 171.44346619 C-69.20369232 171.52880858 -75.61040047 171.59380113 -82.01739502 171.6519165 C-92.26989468 171.74498028 -102.52202839 171.85442014 -112.77403259 171.99175835 C-116.33670364 172.03432531 -119.89919643 172.05915129 -123.46203613 172.08277893 C-125.66675742 172.10918349 -127.87147009 172.13632145 -130.07617188 172.16430664 C-131.052108 172.16593811 -132.02804413 172.16756958 -133.03355408 172.16925049 C-149.57979105 172.43827539 -164.02581235 178.87551273 -175.69921875 190.53125 C-186.51309858 202.17870759 -188.69722224 215.24790043 -188.8515625 230.6328125 C-188.87092865 231.8394455 -188.8902948 233.04607849 -188.9102478 234.28927612 C-188.96960079 238.10944752 -189.01625112 241.92964977 -189.0625 245.75 C-189.10072054 248.35417916 -189.13977459 250.95834623 -189.1796875 253.5625 C-189.2752656 259.91655863 -189.36044027 266.27069124 -189.4375 272.625 C-196.65986996 272.72694982 -203.8820523 272.79669539 -211.10498047 272.84472656 C-213.55882706 272.86476324 -216.01262637 272.89200032 -218.46630859 272.92675781 C-222.00630403 272.97562498 -225.54566468 272.9980492 -229.0859375 273.015625 C-230.714673 273.04659271 -230.714673 273.04659271 -232.37631226 273.07818604 C-243.56307579 273.08143482 -251.11442617 269.75034653 -259.12890625 262.0234375 C-279.11872335 241.2556749 -285.34391634 210.5797322 -286.4375 182.625 C-286.47875 181.71492187 -286.52 180.80484375 -286.5625 179.8671875 C-286.94003831 163.30269408 -284.79979725 146.58850654 -280.4375 130.625 C-280.25848145 129.96951172 -280.07946289 129.31402344 -279.89501953 128.63867188 C-274.77206429 110.52324406 -265.82266487 93.94649127 -249.5078125 83.7109375 C-244.81343676 81.24860456 -241.21107394 80.37596151 -235.87590027 80.38449097 C-235.23051042 80.38278212 -234.58512058 80.38107327 -233.92017347 80.37931263 C-231.76592253 80.37602848 -229.61198573 80.3870034 -227.45776367 80.39794922 C-225.91024788 80.39851357 -224.36273155 80.39819631 -222.81521606 80.39706421 C-218.61931796 80.39649061 -214.42353432 80.40824605 -210.2276628 80.42221212 C-205.84077139 80.43471832 -201.45387732 80.4358899 -197.06697083 80.43826294 C-188.76206772 80.44447803 -180.45721729 80.46088926 -172.15233737 80.48096192 C-162.69654416 80.50332 -153.24074842 80.51431412 -143.78493536 80.52435279 C-124.33576037 80.54525545 -104.88663442 80.58043201 -85.4375 80.625 C-85.4375 76.995 -85.4375 73.365 -85.4375 69.625 C-116.7875 69.625 -148.1375 69.625 -180.4375 69.625 C-180.56125 57.559375 -180.56125 57.559375 -180.6875 45.25 C-180.72391602 42.73068848 -180.76033203 40.21137695 -180.79785156 37.61572266 C-180.80954804 35.5901779 -180.81973758 33.56462366 -180.828125 31.5390625 C-180.84858887 30.51063232 -180.86905273 29.48220215 -180.89013672 28.42260742 C-180.89541869 17.3436724 -177.12751966 8.58164443 -169.4375 0.625 C-128.09289886 -37.23032748 -41.99783042 -35.54144753 0 0 Z M-149.4765625 13.5 C-153.80658145 18.34677019 -155.81800471 21.69668009 -155.71875 28.43359375 C-155.05947898 33.57041378 -152.64005171 37.48257587 -148.9375 41 C-143.62274929 44.45458796 -139.76435691 45.44707516 -133.4375 44.625 C-128.17345794 43.05518746 -124.28886557 40.34149736 -121.3515625 35.67578125 C-119.28294321 31.03464823 -118.68197971 26.30196697 -120.0703125 21.3828125 C-122.72585514 15.46920913 -126.54757871 11.83876694 -132.5625 9.3125 C-138.92346158 7.79140049 -144.68314632 9.09226098 -149.4765625 13.5 Z " fill="#367DEF" transform="translate(342.4375,79.375)"/>
</svg>
