<?xml version="1.0" encoding="UTF-8"?>
<svg version="1.1" xmlns="http://www.w3.org/2000/svg" width="512" height="512">
<path d="M0 0 C1.96044934 -0.00067579 3.9208986 -0.00164809 5.88134766 -0.00289917 C9.96582853 -0.00436322 14.05028734 -0.00226353 18.13476562 0.00244141 C23.3287227 0.00813787 28.52262807 0.00485189 33.71658325 -0.00113106 C37.75757221 -0.00477179 41.79854923 -0.00358207 45.83953857 -0.00100327 C47.75299079 -0.00034368 49.66644414 -0.00112789 51.57989502 -0.00348282 C74.51410474 -0.02552518 74.51410474 -0.02552518 84.375 1.1328125 C84.705 1.4628125 85.035 1.7928125 85.375 2.1328125 C87.55792774 2.36762943 89.74703174 2.54644573 91.9375 2.6953125 C93.13503906 2.77910156 94.33257812 2.86289062 95.56640625 2.94921875 C96.49324219 3.00980469 97.42007812 3.07039062 98.375 3.1328125 C98.375 3.7928125 98.375 4.4528125 98.375 5.1328125 C100.293125 5.101875 100.293125 5.101875 102.25 5.0703125 C107.33707017 5.06222495 112.3266147 5.54260461 117.375 6.1328125 C117.375 6.7928125 117.375 7.4528125 117.375 8.1328125 C119.685 8.1328125 121.995 8.1328125 124.375 8.1328125 C124.375 8.7928125 124.375 9.4528125 124.375 10.1328125 C128.665 10.4628125 132.955 10.7928125 137.375 11.1328125 C137.375 11.7928125 137.375 12.4528125 137.375 13.1328125 C138.09945313 13.18179687 138.82390625 13.23078125 139.5703125 13.28125 C144.78958867 13.68487402 149.47313658 14.14557057 154.375 16.1328125 C154.375 16.7928125 154.375 17.4528125 154.375 18.1328125 C157.345 18.4628125 160.315 18.7928125 163.375 19.1328125 C163.375 19.7928125 163.375 20.4528125 163.375 21.1328125 C164.055625 21.2565625 164.73625 21.3803125 165.4375 21.5078125 C168.8027412 22.22382127 172.07513425 23.16226375 175.375 24.1328125 C175.375 24.7928125 175.375 25.4528125 175.375 26.1328125 C176.2825 26.2565625 177.19 26.3803125 178.125 26.5078125 C180.96470323 27.05390927 182.90090591 27.70545053 185.375 29.1328125 C185.375 29.7928125 185.375 30.4528125 185.375 31.1328125 C187.355 31.4628125 189.335 31.7928125 191.375 32.1328125 C191.375 32.7928125 191.375 33.4528125 191.375 34.1328125 C192.15875 34.4421875 192.9425 34.7515625 193.75 35.0703125 C196.375 36.1328125 196.375 36.1328125 198.375 37.1328125 C198.375 37.7928125 198.375 38.4528125 198.375 39.1328125 C199.695 39.4628125 201.015 39.7928125 202.375 40.1328125 C202.375 40.7928125 202.375 41.4528125 202.375 42.1328125 C203.035 42.1328125 203.695 42.1328125 204.375 42.1328125 C204.375 42.7928125 204.375 43.4528125 204.375 44.1328125 C205.365 44.4628125 206.355 44.7928125 207.375 45.1328125 C207.375 45.7928125 207.375 46.4528125 207.375 47.1328125 C208.035 47.1328125 208.695 47.1328125 209.375 47.1328125 C209.375 47.7928125 209.375 48.4528125 209.375 49.1328125 C210.035 49.1328125 210.695 49.1328125 211.375 49.1328125 C214.20654253 53.72186419 216.17391551 58.06113602 217.76171875 63.21484375 C218.33841716 65.18761051 218.33841716 65.18761051 219.375 67.1328125 C219.47280602 69.17051548 219.50420017 71.21150014 219.50642776 73.25154781 C219.51026891 74.56546975 219.51411005 75.87939169 219.5180676 77.23312944 C219.51728725 78.70530066 219.51640844 80.17747183 219.51544189 81.64964294 C219.51802398 83.20270473 219.5210367 84.75576584 219.5244453 86.30882603 C219.53253745 90.5928688 219.5343061 94.87689484 219.53504276 99.16094434 C219.53688957 103.77534587 219.5444352 108.38973864 219.55117798 113.00413513 C219.56477935 123.10360555 219.57078933 133.20307202 219.57518864 143.30255008 C219.57794902 149.60804819 219.5821861 155.91354476 219.58669281 162.21904182 C219.59888974 179.67348732 219.60918697 197.12793158 219.6125679 214.58238125 C219.61278747 215.70030088 219.61300703 216.8182205 219.61323325 217.97001648 C219.61345153 219.09064057 219.61366981 220.21126466 219.6138947 221.36584705 C219.61433817 223.6367203 219.61478473 225.90759355 219.61523438 228.1784668 C219.6154558 229.30490276 219.61567723 230.43133873 219.61590537 231.59190912 C219.61985101 249.83290689 219.63729596 268.07386466 219.6605939 286.31484699 C219.68431487 305.03814048 219.69677016 323.76141391 219.69793582 342.48472267 C219.69885236 352.99878844 219.70459917 363.51280214 219.72275543 374.02685356 C219.73816674 382.98308978 219.74327093 391.93925786 219.73501733 400.89550482 C219.73111397 405.46390894 219.73202497 410.03217587 219.74607468 414.60056305 C219.7588329 418.78741237 219.75759924 422.97402171 219.74548396 427.1608708 C219.74353024 428.67109324 219.74659033 430.1813328 219.75532833 431.69153123 C219.80170585 440.25294575 219.20214828 447.97778063 216.375 456.1328125 C215.715 456.1328125 215.055 456.1328125 214.375 456.1328125 C214.065625 456.9165625 213.75625 457.7003125 213.4375 458.5078125 C212.375 461.1328125 212.375 461.1328125 211.375 463.1328125 C210.715 463.1328125 210.055 463.1328125 209.375 463.1328125 C209.045 464.1228125 208.715 465.1128125 208.375 466.1328125 C207.715 466.1328125 207.055 466.1328125 206.375 466.1328125 C206.375 466.7928125 206.375 467.4528125 206.375 468.1328125 C205.715 468.1328125 205.055 468.1328125 204.375 468.1328125 C204.045 469.1228125 203.715 470.1128125 203.375 471.1328125 C202.715 471.1328125 202.055 471.1328125 201.375 471.1328125 C201.375 471.7928125 201.375 472.4528125 201.375 473.1328125 C199.725 473.4628125 198.075 473.7928125 196.375 474.1328125 C196.375 474.7928125 196.375 475.4528125 196.375 476.1328125 C195.715 476.1328125 195.055 476.1328125 194.375 476.1328125 C194.375 476.7928125 194.375 477.4528125 194.375 478.1328125 C192.52031184 479.06015658 190.6652634 479.98678578 188.80859375 480.91015625 C187.10703897 481.76503048 185.41220414 482.63335291 183.72265625 483.51171875 C182.84480469 483.96417969 181.96695312 484.41664063 181.0625 484.8828125 C180.24136719 485.31078125 179.42023438 485.73875 178.57421875 486.1796875 C176.375 487.1328125 176.375 487.1328125 173.375 487.1328125 C173.375 487.7928125 173.375 488.4528125 173.375 489.1328125 C172.055 489.1328125 170.735 489.1328125 169.375 489.1328125 C169.375 489.7928125 169.375 490.4528125 169.375 491.1328125 C159.96497722 494.57700384 159.96497722 494.57700384 155.375 494.1328125 C155.375 494.7928125 155.375 495.4528125 155.375 496.1328125 C152.075 496.4628125 148.775 496.7928125 145.375 497.1328125 C145.375 497.7928125 145.375 498.4528125 145.375 499.1328125 C144.59253906 499.26558594 143.81007813 499.39835937 143.00390625 499.53515625 C141.99199219 499.71175781 140.98007812 499.88835937 139.9375 500.0703125 C138.92816406 500.24433594 137.91882813 500.41835938 136.87890625 500.59765625 C134.4462562 500.88032347 134.4462562 500.88032347 133.375 502.1328125 C131.04202567 502.17374187 128.70794775 502.17522973 126.375 502.1328125 C126.375 502.7928125 126.375 503.4528125 126.375 504.1328125 C125.23160156 504.26558594 124.08820313 504.39835937 122.91015625 504.53515625 C121.4192438 504.7133156 119.92835982 504.89171332 118.4375 505.0703125 C117.68275391 505.15732422 116.92800781 505.24433594 116.15039062 505.33398438 C112.45312542 505.47605349 112.45312542 505.47605349 109.375 507.1328125 C107.05682911 507.45379001 104.73720643 507.64502206 102.40625 507.8515625 C100.38319407 507.92347087 100.38319407 507.92347087 99.375 509.1328125 C83.9295007 511.58480676 68.03330068 511.4328049 52.44140625 511.3984375 C50.22248797 511.39979128 48.00356999 511.40173767 45.78465271 511.40423584 C41.17370735 511.40715427 36.56284041 511.40299725 31.9519043 511.39355469 C26.11556267 511.38216908 20.2794053 511.38873535 14.44307041 511.40069962 C9.8724383 511.40801374 5.30184807 511.40558699 0.73121452 511.40044403 C-1.41762376 511.3991334 -3.56646616 511.40066149 -5.71529961 511.40540314 C-20.63727471 511.43112109 -35.83811868 511.3714293 -50.625 509.1328125 C-50.955 508.8028125 -51.285 508.4728125 -51.625 508.1328125 C-53.11996842 507.92581687 -54.6216592 507.76601991 -56.125 507.6328125 C-60.51388889 507.24392361 -60.51388889 507.24392361 -61.625 506.1328125 C-64.14695967 505.73338074 -66.65463656 505.38201402 -69.1875 505.0703125 C-70.25387695 504.93399414 -70.25387695 504.93399414 -71.34179688 504.79492188 C-73.10238403 504.57041747 -74.86363478 504.35112853 -76.625 504.1328125 C-76.625 503.4728125 -76.625 502.8128125 -76.625 502.1328125 C-78.4503125 502.1946875 -78.4503125 502.1946875 -80.3125 502.2578125 C-83.91030754 502.26412444 -86.31206784 501.57691113 -89.625 500.1328125 C-91.95097511 499.7515051 -94.28412158 499.40820996 -96.625 499.1328125 C-96.625 498.4728125 -96.625 497.8128125 -96.625 497.1328125 C-99.925 496.8028125 -103.225 496.4728125 -106.625 496.1328125 C-106.625 495.4728125 -106.625 494.8128125 -106.625 494.1328125 C-108.275 494.1328125 -109.925 494.1328125 -111.625 494.1328125 C-111.625 493.4728125 -111.625 492.8128125 -111.625 492.1328125 C-114.265 491.8028125 -116.905 491.4728125 -119.625 491.1328125 C-119.625 490.4728125 -119.625 489.8128125 -119.625 489.1328125 C-120.32625 489.0090625 -121.0275 488.8853125 -121.75 488.7578125 C-124.80156387 488.09442905 -127.67840938 487.16069295 -130.625 486.1328125 C-130.625 485.4728125 -130.625 484.8128125 -130.625 484.1328125 C-131.553125 484.0090625 -132.48125 483.8853125 -133.4375 483.7578125 C-136.625 483.1328125 -136.625 483.1328125 -139.625 481.1328125 C-139.625 480.4728125 -139.625 479.8128125 -139.625 479.1328125 C-141.605 478.8028125 -143.585 478.4728125 -145.625 478.1328125 C-145.625 477.4728125 -145.625 476.8128125 -145.625 476.1328125 C-146.285 476.1328125 -146.945 476.1328125 -147.625 476.1328125 C-147.625 475.4728125 -147.625 474.8128125 -147.625 474.1328125 C-148.7696875 473.6996875 -148.7696875 473.6996875 -149.9375 473.2578125 C-152.625 472.1328125 -152.625 472.1328125 -155.625 470.1328125 C-155.625 469.4728125 -155.625 468.8128125 -155.625 468.1328125 C-156.285 468.1328125 -156.945 468.1328125 -157.625 468.1328125 C-159.25 466.7578125 -159.25 466.7578125 -160.625 465.1328125 C-160.625 464.4728125 -160.625 463.8128125 -160.625 463.1328125 C-161.285 463.1328125 -161.945 463.1328125 -162.625 463.1328125 C-164.66669485 460.22732368 -165.625 458.73139204 -165.625 455.1328125 C-166.285 455.1328125 -166.945 455.1328125 -167.625 455.1328125 C-170.50142319 445.85963998 -171.04870629 437.08088653 -170.99249268 427.46003723 C-170.99452076 425.90359094 -170.9978645 424.34714591 -171.00239825 422.79070491 C-171.01099239 418.54407746 -171.00103159 414.29767106 -170.98785591 410.05106294 C-170.97690929 405.4602055 -170.98337842 400.86936735 -170.98764038 396.27850342 C-170.99325992 387.30009512 -170.98298697 378.32177257 -170.96735242 369.34337888 C-170.94978816 358.89082498 -170.94839269 348.43828755 -170.94773683 337.98572119 C-170.94605074 319.34552414 -170.93025595 300.7053661 -170.90625 282.06518555 C-170.8829571 263.96557288 -170.86881991 245.86598496 -170.86523438 227.76635742 C-170.86501161 226.64995217 -170.86478884 225.53354691 -170.86455932 224.38331119 C-170.86411673 222.134374 -170.86367471 219.88543681 -170.86323325 217.63649962 C-170.86301369 216.52719927 -170.86279412 215.41789892 -170.8625679 214.27498341 C-170.86235192 213.168531 -170.86213593 212.06207859 -170.8619134 210.92209731 C-170.85821759 193.68099504 -170.84686096 176.43989676 -170.8344375 159.19879887 C-170.82999719 152.94387767 -170.82656107 146.68895684 -170.82381538 140.43403468 C-170.81939221 130.52217635 -170.81164983 120.61033279 -170.79704097 110.6984838 C-170.79041516 106.16775269 -170.78536502 101.63703468 -170.78458023 97.10629845 C-170.78379749 92.96608081 -170.77843227 88.82589638 -170.76926073 84.68568905 C-170.76673763 83.18133117 -170.76592546 81.67696934 -170.76691952 80.17260966 C-170.76800331 78.14135524 -170.76242556 76.11010042 -170.75642776 74.07885456 C-170.75518127 72.94657816 -170.75393477 71.81430176 -170.7526505 70.64771396 C-170.625 68.1328125 -170.625 68.1328125 -169.625 67.1328125 C-169.2318352 65.45397012 -168.88414548 63.76431205 -168.5625 62.0703125 C-168.38589844 61.15121094 -168.20929688 60.23210938 -168.02734375 59.28515625 C-167.89457031 58.57488281 -167.76179688 57.86460938 -167.625 57.1328125 C-166.965 57.1328125 -166.305 57.1328125 -165.625 57.1328125 C-165.5425 56.5965625 -165.46 56.0603125 -165.375 55.5078125 C-164.34918729 52.25940559 -162.65936106 49.84529391 -160.625 47.1328125 C-159.965 47.1328125 -159.305 47.1328125 -158.625 47.1328125 C-158.295 46.1428125 -157.965 45.1528125 -157.625 44.1328125 C-156.965 44.1328125 -156.305 44.1328125 -155.625 44.1328125 C-155.625 43.4728125 -155.625 42.8128125 -155.625 42.1328125 C-152.16346154 39.1328125 -152.16346154 39.1328125 -149.625 39.1328125 C-149.625 38.4728125 -149.625 37.8128125 -149.625 37.1328125 C-147.15 36.6378125 -147.15 36.6378125 -144.625 36.1328125 C-144.625 35.4728125 -144.625 34.8128125 -144.625 34.1328125 C-143.635 34.1328125 -142.645 34.1328125 -141.625 34.1328125 C-141.625 33.4728125 -141.625 32.8128125 -141.625 32.1328125 C-139.975 31.8028125 -138.325 31.4728125 -136.625 31.1328125 C-136.625 30.4728125 -136.625 29.8128125 -136.625 29.1328125 C-135.305 29.1328125 -133.985 29.1328125 -132.625 29.1328125 C-132.625 28.4728125 -132.625 27.8128125 -132.625 27.1328125 C-130.645 26.8028125 -128.665 26.4728125 -126.625 26.1328125 C-126.625 25.4728125 -126.625 24.8128125 -126.625 24.1328125 C-125.37836669 23.62447659 -124.12750613 23.12650105 -122.875 22.6328125 C-122.17890625 22.354375 -121.4828125 22.0759375 -120.765625 21.7890625 C-118.625 21.1328125 -118.625 21.1328125 -114.625 21.1328125 C-114.625 20.4728125 -114.625 19.8128125 -114.625 19.1328125 C-111.655 18.8028125 -108.685 18.4728125 -105.625 18.1328125 C-105.625 17.4728125 -105.625 16.8128125 -105.625 16.1328125 C-94.10335991 12.68862116 -94.10335991 12.68862116 -88.625 13.1328125 C-88.625 12.4728125 -88.625 11.8128125 -88.625 11.1328125 C-87.69816406 11.00003906 -86.77132812 10.86726562 -85.81640625 10.73046875 C-84.61886719 10.55386719 -83.42132813 10.37726562 -82.1875 10.1953125 C-80.99253906 10.02128906 -79.79757813 9.84726563 -78.56640625 9.66796875 C-75.74544324 9.44296037 -75.74544324 9.44296037 -74.625 8.1328125 C-72.29202567 8.09188313 -69.95794775 8.09039527 -67.625 8.1328125 C-67.625 7.4728125 -67.625 6.8128125 -67.625 6.1328125 C-66.33722656 6.00003906 -65.04945313 5.86726562 -63.72265625 5.73046875 C-62.04424638 5.55231351 -60.36586227 5.37391558 -58.6875 5.1953125 C-57.83736328 5.10830078 -56.98722656 5.02128906 -56.11132812 4.93164062 C-54.89799805 4.80112305 -54.89799805 4.80112305 -53.66015625 4.66796875 C-52.9112915 4.5894165 -52.16242676 4.51086426 -51.39086914 4.42993164 C-49.60359987 4.3047387 -49.60359987 4.3047387 -48.625 3.1328125 C-45.52457227 2.80834913 -42.4229275 2.61946809 -39.3125 2.4140625 C-36.70903248 2.42673451 -36.70903248 2.42673451 -35.625 1.1328125 C-23.82398329 -0.25342699 -11.86055912 -0.01459707 0 0 Z " fill="#2677C7" transform="translate(231.625,0.8671875)"/>
<path d="M0 0 C0.66 0 1.32 0 2 0 C2.268125 0.61746094 2.53625 1.23492187 2.8125 1.87109375 C6.33566576 9.48530396 10.9637736 17.56357357 19 21 C19 21.66 19 22.32 19 23 C21.33214148 24.20628008 23.49642139 25.1654738 26 26 C26 26.66 26 27.32 26 28 C26.804375 28.12375 27.60875 28.2475 28.4375 28.375 C29.7059375 28.684375 29.7059375 28.684375 31 29 C31.33 29.66 31.66 30.32 32 31 C33.88786818 31.87733751 35.81147115 32.67863688 37.75 33.4375 C40.83085805 34.64783709 43.68895814 35.81096371 46.51953125 37.53125 C49.2642166 39.15644951 51.9006398 40.09711458 54.9375 41.0625 C56.43603516 41.54396484 56.43603516 41.54396484 57.96484375 42.03515625 C59.46724609 42.51275391 59.46724609 42.51275391 61 43 C63.89612315 43.94077886 66.73448762 44.8886561 69.54296875 46.06640625 C72.14915683 47.05667485 74.55949926 47.51917138 77.3125 47.9375 C81.52407161 48.64979265 85.20051151 49.72407289 89.140625 51.3359375 C92.05858912 52.37806754 94.92592785 52.67978415 98 53 C98 53.66 98 54.32 98 55 C98.556875 54.98839844 99.11375 54.97679687 99.6875 54.96484375 C104.89627542 54.9032535 109.85311307 55.17282174 115 56 C115.33 56.33 115.66 56.66 116 57 C117.61552371 57.2050291 119.23899814 57.34797547 120.86328125 57.46484375 C121.88679688 57.54162354 122.9103125 57.61840332 123.96484375 57.69750977 C125.06957031 57.77670654 126.17429687 57.85590332 127.3125 57.9375 C135.71567802 58.57584626 144.11223781 59.24412498 152.5 60.0625 C153.34731689 60.14169678 154.19463379 60.22089355 155.06762695 60.30249023 C160.88083764 60.88083764 160.88083764 60.88083764 162 62 C163.34983748 62.12185143 164.70574701 62.17766831 166.06079102 62.20532227 C167.35201622 62.2352401 167.35201622 62.2352401 168.66932678 62.26576233 C169.60473801 62.28247482 170.54014923 62.29918732 171.50390625 62.31640625 C172.45692123 62.33718735 173.40993622 62.35796844 174.39183044 62.37937927 C177.4486441 62.44498177 180.50554656 62.50380918 183.5625 62.5625 C185.62956663 62.60567506 187.69662414 62.64928901 189.76367188 62.69335938 C194.84235595 62.80067401 199.9211297 62.90191091 205 63 C205 63.33 205 63.66 205 64 C200.05 64 195.1 64 190 64 C190.00999275 65.81617325 190.00999275 65.81617325 190.02018738 67.66903687 C190.08090376 79.0586819 190.12592699 90.44829427 190.15543652 101.83806419 C190.17111747 107.69419454 190.19240003 113.55019463 190.22631836 119.40625 C190.25882519 125.05371004 190.27683469 130.7010445 190.28463173 136.34859085 C190.29019087 138.50725915 190.30104592 140.66592029 190.31719017 142.82453537 C190.33884907 145.83939418 190.34197177 148.85372873 190.34057617 151.86865234 C190.351362 152.76848343 190.36214783 153.66831451 190.3732605 154.59541321 C190.36076355 157.07699585 190.36076355 157.07699585 190 161 C187.37575342 162.74949772 185.44272784 163.65389981 182.5 164.625 C181.7265625 164.88539063 180.953125 165.14578125 180.15625 165.4140625 C178 166 178 166 175 166 C175 166.66 175 167.32 175 168 C174.01 168 173.02 168 172 168 C172 168.66 172 169.32 172 170 C171.195625 170.309375 170.39125 170.61875 169.5625 170.9375 C160.01753484 175.69864652 153.87772022 185.48195946 150 195 C149.649375 195.66 149.29875 196.32 148.9375 197 C147.57782863 199.90063225 146.82747205 202.91077102 146 206 C145.81840332 206.61786377 145.63680664 207.23572754 145.44970703 207.87231445 C144.90055452 210.47050344 144.87027854 212.88710325 144.8671875 215.54296875 C144.86525391 217.15461914 144.86525391 217.15461914 144.86328125 218.79882812 C144.86714844 219.91708984 144.87101563 221.03535156 144.875 222.1875 C144.87113281 223.28642578 144.86726562 224.38535156 144.86328125 225.51757812 C144.87320173 233.8358974 145.52845705 241.80140354 147 250 C147.66 250 148.32 250 149 250 C149.33 252.31 149.66 254.62 150 257 C150.66 257 151.32 257 152 257 C152.4125 257.86625 152.825 258.7325 153.25 259.625 C156.43739632 265.77212148 159.13092348 269.26513313 165 273 C165 273.66 165 274.32 165 275 C165.7734375 275.37125 165.7734375 275.37125 166.5625 275.75 C169 277 169 277 171.9375 278.875 C176.40790533 281.50637644 181.32256094 282.65052016 186.3046875 283.97265625 C187.19414062 284.31167969 188.08359375 284.65070313 189 285 C190.0695322 288.20859659 190.1231698 290.49254209 190.12025452 293.86552429 C190.12231651 295.70178879 190.12231651 295.70178879 190.12442017 297.57514954 C190.12088104 298.93380762 190.11724623 300.29246545 190.11352539 301.65112305 C190.11324335 303.08011879 190.11340158 304.50911469 190.1139679 305.93811035 C190.11425523 309.82005296 190.10836884 313.70196477 190.10139394 317.58390021 C190.09514975 321.63981963 190.09455576 325.69573973 190.09336853 329.75166321 C190.09025837 337.43329343 190.0820492 345.11490944 190.07201904 352.79653341 C190.06084815 361.54129558 190.05534499 370.28605844 190.05032361 379.03082597 C190.03986634 397.02055871 190.02227297 415.01027821 190 433 C183.43758388 433.02404494 176.87517938 433.04030311 170.31272888 433.05149841 C168.08671138 433.05617249 165.86069669 433.06253901 163.63468933 433.07072449 C132.91501717 433.18074424 132.91501717 433.18074424 118 431 C117.67 430.67 117.34 430.34 117 430 C115.50503158 429.79300437 114.0033408 429.63320741 112.5 429.5 C108.11111111 429.11111111 108.11111111 429.11111111 107 428 C104.47804033 427.60056824 101.97036344 427.24920152 99.4375 426.9375 C98.37112305 426.80118164 98.37112305 426.80118164 97.28320312 426.66210938 C95.52261597 426.43760497 93.76136522 426.21831603 92 426 C92 425.34 92 424.68 92 424 C90.1746875 424.061875 90.1746875 424.061875 88.3125 424.125 C84.71469246 424.13131194 82.31293216 423.44409863 79 422 C76.67402489 421.6186926 74.34087842 421.27539746 72 421 C72 420.34 72 419.68 72 419 C68.7 418.67 65.4 418.34 62 418 C62 417.34 62 416.68 62 416 C60.35 416 58.7 416 57 416 C57 415.34 57 414.68 57 414 C54.36 413.67 51.72 413.34 49 413 C49 412.34 49 411.68 49 411 C48.29875 410.87625 47.5975 410.7525 46.875 410.625 C43.82343613 409.96161655 40.94659062 409.02788045 38 408 C38 407.34 38 406.68 38 406 C37.071875 405.87625 36.14375 405.7525 35.1875 405.625 C32 405 32 405 29 403 C29 402.34 29 401.68 29 401 C27.02 400.67 25.04 400.34 23 400 C23 399.34 23 398.68 23 398 C22.34 398 21.68 398 21 398 C21 397.34 21 396.68 21 396 C19.8553125 395.566875 19.8553125 395.566875 18.6875 395.125 C16 394 16 394 13 392 C13 391.34 13 390.68 13 390 C12.34 390 11.68 390 11 390 C9.375 388.625 9.375 388.625 8 387 C8 386.34 8 385.68 8 385 C7.34 385 6.68 385 6 385 C3.95830515 382.09451118 3 380.59857954 3 377 C2.34 377 1.68 377 1 377 C-0.10107083 373.69678751 -0.12421185 371.26921643 -0.12304783 367.78995991 C-0.12503888 366.48119682 -0.12702993 365.17243373 -0.12908131 363.82401115 C-0.12622805 362.36292396 -0.12328245 360.90183696 -0.12025452 359.44075012 C-0.12069032 357.89548544 -0.12156541 356.35022083 -0.12284368 354.80495661 C-0.12508676 350.54753667 -0.12106989 346.29014173 -0.11606562 342.03272498 C-0.11175865 337.44582279 -0.11320772 332.85892208 -0.1139679 328.27201843 C-0.11449297 320.3211871 -0.11134785 312.37036396 -0.10573006 304.41953468 C-0.09761288 292.9238826 -0.09499961 281.42823448 -0.09374207 269.93257984 C-0.09155189 251.28293184 -0.08489273 232.63328821 -0.07543945 213.98364258 C-0.06626445 195.86417666 -0.05918405 177.74471192 -0.05493164 159.62524414 C-0.05466892 158.50889596 -0.05440619 157.39254779 -0.05413551 156.24237088 C-0.0528305 150.64214014 -0.05156678 145.0419094 -0.05032361 139.44167864 C-0.03995207 92.96111607 -0.02233468 46.48055826 0 0 Z " fill="#0172C6" transform="translate(63,79)"/>
<path d="M0 0 C9.22441149 -0.02336206 18.44881251 -0.04103496 27.67324734 -0.05181217 C31.95836381 -0.05698952 36.24345978 -0.06399133 40.52856445 -0.07543945 C44.67831175 -0.08645421 48.82803956 -0.09231538 52.97780037 -0.09487724 C54.54629892 -0.09669853 56.11479662 -0.10025314 57.68328667 -0.10573006 C65.86888619 -0.13312725 74.02165737 -0.02347634 82.19555664 0.44360352 C82.88397613 0.48245887 83.57239561 0.52131422 84.28167629 0.56134701 C99.52679649 1.52679649 99.52679649 1.52679649 102 4 C104.01594582 4.23427778 106.038474 4.41336124 108.0625 4.5625 C109.16722656 4.64628906 110.27195312 4.73007812 111.41015625 4.81640625 C112.26480469 4.87699219 113.11945313 4.93757813 114 5 C114 5.66 114 6.32 114 7 C115.1034375 6.95875 116.206875 6.9175 117.34375 6.875 C122.54504043 6.875 127.43284714 7.90997293 132.5 9 C133.4178125 9.19078125 134.335625 9.3815625 135.28125 9.578125 C137.52241577 10.04503453 139.76180083 10.51910692 142 11 C142 11.66 142 12.32 142 13 C142.87398438 13.02126953 142.87398438 13.02126953 143.765625 13.04296875 C151.23517109 13.47751782 157.25806234 15.86071288 164 19 C164 19.66 164 20.32 164 21 C165.32 21 166.64 21 168 21 C168 21.66 168 22.32 168 23 C168.99 23 169.98 23 171 23 C171 23.66 171 24.32 171 25 C172.10794922 25.14501953 172.10794922 25.14501953 173.23828125 25.29296875 C176.36662268 26.09385955 177.8082616 27.16336202 180.1875 29.3125 C181.19876953 30.20388672 181.19876953 30.20388672 182.23046875 31.11328125 C184 33 184 33 185.05078125 35.16796875 C185.91622077 37.35921586 185.91622077 37.35921586 189 38 C190.38226016 40.76452033 190.09525387 43.0461363 190.0625 46.125 C190.05347656 47.22070312 190.04445313 48.31640625 190.03515625 49.4453125 C190.01775391 50.70988281 190.01775391 50.70988281 190 52 C189.34 52 188.68 52 188 52 C188 52.99 188 53.98 188 55 C187.34 55 186.68 55 186 55 C185.7421875 55.59296875 185.484375 56.1859375 185.21875 56.796875 C183.90230105 59.17660965 182.57419218 60.50978792 180.5 62.25 C179.8915625 62.77078125 179.283125 63.2915625 178.65625 63.828125 C177 65 177 65 175 65 C175 65.66 175 66.32 175 67 C173.58521865 67.64995297 172.16808513 68.29478722 170.75 68.9375 C169.96109375 69.29714844 169.1721875 69.65679687 168.359375 70.02734375 C166.24176302 70.90033279 164.23330638 71.51338508 162 72 C162 72.66 162 73.32 162 74 C161.29875 74.18175781 160.5975 74.36351563 159.875 74.55078125 C158.92625 74.80214844 157.9775 75.05351563 157 75.3125 C156.071875 75.55613281 155.14375 75.79976563 154.1875 76.05078125 C151.78713221 76.76559666 149.5698938 77.552208 147.25390625 78.4765625 C142.58646415 80.26110745 137.84064893 81.16463625 132.9375 82.0625 C126.07252091 83.34123711 126.07252091 83.34123711 119.31640625 85.08984375 C114.71852737 86.35168801 110.24330034 86.44449552 105.5 86.65625 C102.02528601 86.87939155 102.02528601 86.87939155 98.92016602 87.95214844 C94.26780452 89.3142249 89.59550129 89.71632708 84.77734375 90.109375 C83.23324074 90.23551178 83.23324074 90.23551178 81.65794373 90.36419678 C67.86156661 91.36826599 54.04101992 91.30178495 40.21606445 91.26074219 C36.32172893 91.24927953 32.42766728 91.25598604 28.53334141 91.26788712 C25.46591721 91.2751996 22.39855541 91.27277655 19.33112907 91.26763153 C17.89660545 91.26632448 16.46207562 91.26783544 15.02755928 91.27259064 C5.85905189 91.29636911 -3.03774776 90.68397566 -12.1219635 89.48309326 C-16.93027008 88.88411476 -21.72221268 88.54269284 -26.55859375 88.24609375 C-29 88 -29 88 -31 87 C-32.83452779 86.80578072 -34.66976751 86.61661537 -36.50756836 86.45629883 C-53.43978236 84.94081097 -69.29991473 80.6425306 -85.09375 74.453125 C-88.0384052 73.31172056 -90.8631007 72.4730245 -94 72 C-94 71.34 -94 70.68 -94 70 C-94.886875 69.731875 -95.77375 69.46375 -96.6875 69.1875 C-103.04025827 66.91009609 -108.42910469 62.9660428 -113 58 C-113.734375 55.77734375 -113.734375 55.77734375 -114 54 C-114.66 54 -115.32 54 -116 54 C-118.43745174 49.63617512 -118.90866007 45.91650003 -118 41 C-114.27081996 33.56906036 -106.42664996 26.60722998 -99 23 C-98.01 23 -97.02 23 -96 23 C-96 22.34 -96 21.68 -96 21 C-89.5 18 -89.5 18 -85 18 C-85 17.34 -85 16.68 -85 16 C-81.7 15.67 -78.4 15.34 -75 15 C-75 14.34 -75 13.68 -75 13 C-71.25987546 11.34464858 -67.79076025 10.52968038 -63.75 9.9375 C-60.05972484 9.67205168 -60.05972484 9.67205168 -57 8 C-48.95101026 5.83902123 -40.77305929 5.18023077 -32.5 4.4375 C-29.78070204 4.19141112 -27.0622009 3.93911743 -24.34375 3.68359375 C-23.14943359 3.57587646 -21.95511719 3.46815918 -20.72460938 3.35717773 C-18.09014297 3.29320882 -18.09014297 3.29320882 -17 2 C-14.13732433 1.92674832 -11.299281 1.90761795 -8.4375 1.9375 C-7.63119141 1.94201172 -6.82488281 1.94652344 -5.99414062 1.95117188 C-3.99606244 1.96299482 -1.99802217 1.98093086 0 2 C0 1.34 0 0.68 0 0 Z " fill="#B7D433" transform="translate(220,21)"/>
<path d="M0 0 C1.96044934 -0.00067579 3.9208986 -0.00164809 5.88134766 -0.00289917 C9.96582853 -0.00436322 14.05028734 -0.00226353 18.13476562 0.00244141 C23.3287227 0.00813787 28.52262807 0.00485189 33.71658325 -0.00113106 C37.75757221 -0.00477179 41.79854923 -0.00358207 45.83953857 -0.00100327 C47.75299079 -0.00034368 49.66644414 -0.00112789 51.57989502 -0.00348282 C74.51410474 -0.02552518 74.51410474 -0.02552518 84.375 1.1328125 C84.705 1.4628125 85.035 1.7928125 85.375 2.1328125 C87.55792774 2.36762943 89.74703174 2.54644573 91.9375 2.6953125 C93.13503906 2.77910156 94.33257812 2.86289062 95.56640625 2.94921875 C96.49324219 3.00980469 97.42007812 3.07039062 98.375 3.1328125 C98.375 3.7928125 98.375 4.4528125 98.375 5.1328125 C100.293125 5.101875 100.293125 5.101875 102.25 5.0703125 C107.33707017 5.06222495 112.3266147 5.54260461 117.375 6.1328125 C117.375 6.7928125 117.375 7.4528125 117.375 8.1328125 C119.685 8.1328125 121.995 8.1328125 124.375 8.1328125 C124.375 8.7928125 124.375 9.4528125 124.375 10.1328125 C128.665 10.4628125 132.955 10.7928125 137.375 11.1328125 C137.375 11.7928125 137.375 12.4528125 137.375 13.1328125 C138.09945313 13.18179687 138.82390625 13.23078125 139.5703125 13.28125 C144.78958867 13.68487402 149.47313658 14.14557057 154.375 16.1328125 C154.375 16.7928125 154.375 17.4528125 154.375 18.1328125 C157.345 18.4628125 160.315 18.7928125 163.375 19.1328125 C163.375 19.7928125 163.375 20.4528125 163.375 21.1328125 C164.055625 21.2565625 164.73625 21.3803125 165.4375 21.5078125 C168.8027412 22.22382127 172.07513425 23.16226375 175.375 24.1328125 C175.375 24.7928125 175.375 25.4528125 175.375 26.1328125 C176.2825 26.2565625 177.19 26.3803125 178.125 26.5078125 C180.96470323 27.05390927 182.90090591 27.70545053 185.375 29.1328125 C185.375 29.7928125 185.375 30.4528125 185.375 31.1328125 C187.355 31.4628125 189.335 31.7928125 191.375 32.1328125 C191.375 32.7928125 191.375 33.4528125 191.375 34.1328125 C192.15875 34.4421875 192.9425 34.7515625 193.75 35.0703125 C196.375 36.1328125 196.375 36.1328125 198.375 37.1328125 C198.375 37.7928125 198.375 38.4528125 198.375 39.1328125 C199.695 39.4628125 201.015 39.7928125 202.375 40.1328125 C202.375 40.7928125 202.375 41.4528125 202.375 42.1328125 C203.035 42.1328125 203.695 42.1328125 204.375 42.1328125 C204.375 42.7928125 204.375 43.4528125 204.375 44.1328125 C205.365 44.4628125 206.355 44.7928125 207.375 45.1328125 C207.375 45.7928125 207.375 46.4528125 207.375 47.1328125 C208.035 47.1328125 208.695 47.1328125 209.375 47.1328125 C209.375 47.7928125 209.375 48.4528125 209.375 49.1328125 C210.035 49.1328125 210.695 49.1328125 211.375 49.1328125 C214.20654253 53.72186419 216.17391551 58.06113602 217.76171875 63.21484375 C218.33841716 65.18761051 218.33841716 65.18761051 219.375 67.1328125 C219.47194683 69.17892426 219.50237581 71.22828081 219.50363445 73.27668762 C219.5068589 74.59615985 219.51008335 75.91563208 219.5134055 77.27508831 C219.51193413 78.75346066 219.51036639 80.23183292 219.50871277 81.71020508 C219.51057936 83.2696809 219.51287945 84.82915626 219.51557809 86.38863087 C219.52172116 90.69005116 219.52155957 94.99145209 219.52038372 99.29287577 C219.52018034 103.92550872 219.52569235 108.55813535 219.53044128 113.19076538 C219.53876184 122.27244882 219.54149675 131.35412578 219.54205366 140.43581271 C219.54252811 147.81370559 219.54457925 155.19159632 219.54775429 162.56948853 C219.55656426 183.46512773 219.56117306 204.36076178 219.56042381 225.25640285 C219.56036388 226.94754496 219.56036388 226.94754496 219.56030273 228.67285156 C219.56026185 229.80164832 219.56022097 230.93044508 219.56017885 232.0934478 C219.55977216 250.39871475 219.56934665 268.70396115 219.5834411 287.00922215 C219.59778307 305.78332261 219.60471251 324.55741304 219.60384732 343.33151913 C219.60351463 353.88049626 219.60629354 364.42945185 219.61702538 374.97842407 C219.62610171 383.9579647 219.62832933 392.93747401 219.62151595 401.91701722 C219.61823632 406.50250419 219.61824567 411.08793097 219.6268692 415.67341232 C219.63467181 419.86529896 219.63336747 424.05707707 219.62458507 428.24896085 C219.6230362 429.77113433 219.62491769 431.29331565 219.63044515 432.81547987 C219.63742691 434.87328836 219.63106111 436.93112955 219.62388897 438.98893738 C219.62421502 440.70858342 219.62421502 440.70858342 219.62454766 442.46296978 C219.375 445.1328125 219.375 445.1328125 217.375 447.1328125 C216.88 265.4678125 216.88 265.4678125 216.375 80.1328125 C214.065 83.7628125 211.755 87.3928125 209.375 91.1328125 C201.541662 100.40492687 190.51851183 106.21616124 179.8125 111.6328125 C179.14613525 111.97111084 178.47977051 112.30940918 177.79321289 112.65795898 C174.34813597 114.34921039 171.1860785 115.60613754 167.375 116.1328125 C167.375 116.7928125 167.375 117.4528125 167.375 118.1328125 C166.13363281 118.54273437 164.89226562 118.95265625 163.61328125 119.375 C161.9713275 119.91919039 160.3294019 120.46346569 158.6875 121.0078125 C157.87087891 121.27722656 157.05425781 121.54664062 156.21289062 121.82421875 C151.38620165 123.42637784 151.38620165 123.42637784 146.65625 125.2890625 C143.92740634 126.29836084 141.4595627 126.54838628 138.5625 126.7578125 C137.09876953 126.86996094 137.09876953 126.86996094 135.60546875 126.984375 C134.86941406 127.03335938 134.13335937 127.08234375 133.375 127.1328125 C133.375 127.7928125 133.375 128.4528125 133.375 129.1328125 C132.385 129.24238281 131.395 129.35195312 130.375 129.46484375 C121.98653547 130.33276009 121.98653547 130.33276009 113.9375 132.6953125 C109.94106049 134.3079109 106.63553924 134.68433469 102.375 135.1328125 C102.045 135.4628125 101.715 135.7928125 101.375 136.1328125 C98.72423893 136.51473468 96.09246983 136.83163059 93.4296875 137.10546875 C92.58152466 137.19315521 91.73336182 137.28084167 90.85949707 137.3711853 C68.83330219 139.57533186 46.90438499 140.55170562 24.7806778 140.56760788 C22.78474472 140.57026622 20.7888228 140.57903953 18.79290771 140.58792114 C2.51486916 140.63794011 -13.41232176 139.81229259 -29.57299805 137.8347168 C-36.30540941 137.01417166 -43.019745 136.62292115 -49.79296875 136.34375 C-52.625 136.1328125 -52.625 136.1328125 -53.625 135.1328125 C-56.48028607 134.7324295 -59.32236487 134.3809898 -62.1875 134.0703125 C-62.99380859 133.97943359 -63.80011719 133.88855469 -64.63085938 133.79492188 C-66.62847377 133.57033801 -68.6266856 133.35108014 -70.625 133.1328125 C-70.625 132.4728125 -70.625 131.8128125 -70.625 131.1328125 C-71.615 131.1946875 -72.605 131.2565625 -73.625 131.3203125 C-77.24501961 131.32755254 -80.03032363 130.31612842 -83.37890625 128.92578125 C-86.84149564 127.70333665 -90.39033256 127.21043925 -94.01171875 126.66015625 C-96.73999379 126.10960748 -99.0662992 125.21581671 -101.625 124.1328125 C-102.95443592 123.68360857 -104.28785057 123.24600656 -105.625 122.8203125 C-115.30576787 119.6148669 -124.59474358 115.87244985 -133.625 111.1328125 C-134.35589844 110.79636719 -135.08679688 110.45992188 -135.83984375 110.11328125 C-137.625 109.1328125 -137.625 109.1328125 -138.625 107.1328125 C-140.64963255 106.48067958 -140.64963255 106.48067958 -142.625 106.1328125 C-142.625 105.4728125 -142.625 104.8128125 -142.625 104.1328125 C-143.2025 104.0503125 -143.78 103.9678125 -144.375 103.8828125 C-147.26369579 102.9199139 -148.51619161 101.30552418 -150.625 99.1328125 C-151.388125 98.7203125 -152.15125 98.3078125 -152.9375 97.8828125 C-159.09652921 93.87228185 -163.42552083 87.65975 -166.625 81.1328125 C-166.625 80.1428125 -166.625 79.1528125 -166.625 78.1328125 C-167.285 78.1328125 -167.945 78.1328125 -168.625 78.1328125 C-168.625 199.2428125 -168.625 320.3528125 -168.625 445.1328125 C-170.625 443.1328125 -170.625 443.1328125 -170.87454766 440.4810552 C-170.87422161 438.77426598 -170.87422161 438.77426598 -170.87388897 437.03299618 C-170.87848777 435.72335744 -170.88308656 434.4137187 -170.88782471 433.06439394 C-170.88280888 431.5971228 -170.8776066 430.12985229 -170.87223816 428.6625824 C-170.87382499 427.11476773 -170.87628733 425.56695376 -170.87955457 424.01914173 C-170.8859943 419.74996742 -170.87987977 415.48088731 -170.87179029 411.21171916 C-170.86523321 406.61387038 -170.87015739 402.01603248 -170.87367249 397.41818237 C-170.87872357 388.40500162 -170.87306157 379.39185745 -170.86382218 370.37868124 C-170.85345856 359.89350016 -170.85350783 349.40832708 -170.85399476 338.92314184 C-170.85449582 320.22194684 -170.84532181 301.52076892 -170.83081055 282.81958008 C-170.81672023 264.65160816 -170.80963982 246.48365128 -170.81030273 228.31567383 C-170.81034269 227.19664134 -170.81038265 226.07760885 -170.81042381 224.92466628 C-170.81046417 223.80761355 -170.81050452 222.69056082 -170.8105461 221.53965801 C-170.81123511 200.8861842 -170.80535094 180.23271681 -170.79639288 159.57924507 C-170.79337046 152.26145754 -170.79231261 144.94367119 -170.79186058 137.6258831 C-170.79117999 128.71512219 -170.78673688 119.80437209 -170.77752777 110.89361577 C-170.77289579 106.34270039 -170.76986941 101.79179887 -170.77112198 97.24088097 C-170.77221125 93.0817622 -170.76873424 88.9226742 -170.76147345 84.76356185 C-170.75964943 83.25217482 -170.75954011 81.74078464 -170.76124074 80.22939747 C-170.7632843 78.18852699 -170.75866927 76.14765297 -170.75363445 74.10678768 C-170.75293003 72.96909056 -170.7522256 71.83139343 -170.75149983 70.65922064 C-170.625 68.1328125 -170.625 68.1328125 -169.625 67.1328125 C-169.2318352 65.45397012 -168.88414548 63.76431205 -168.5625 62.0703125 C-168.38589844 61.15121094 -168.20929688 60.23210938 -168.02734375 59.28515625 C-167.89457031 58.57488281 -167.76179688 57.86460938 -167.625 57.1328125 C-166.965 57.1328125 -166.305 57.1328125 -165.625 57.1328125 C-165.5425 56.5965625 -165.46 56.0603125 -165.375 55.5078125 C-164.34918729 52.25940559 -162.65936106 49.84529391 -160.625 47.1328125 C-159.965 47.1328125 -159.305 47.1328125 -158.625 47.1328125 C-158.295 46.1428125 -157.965 45.1528125 -157.625 44.1328125 C-156.965 44.1328125 -156.305 44.1328125 -155.625 44.1328125 C-155.625 43.4728125 -155.625 42.8128125 -155.625 42.1328125 C-152.16346154 39.1328125 -152.16346154 39.1328125 -149.625 39.1328125 C-149.625 38.4728125 -149.625 37.8128125 -149.625 37.1328125 C-147.15 36.6378125 -147.15 36.6378125 -144.625 36.1328125 C-144.625 35.4728125 -144.625 34.8128125 -144.625 34.1328125 C-143.635 34.1328125 -142.645 34.1328125 -141.625 34.1328125 C-141.625 33.4728125 -141.625 32.8128125 -141.625 32.1328125 C-139.975 31.8028125 -138.325 31.4728125 -136.625 31.1328125 C-136.625 30.4728125 -136.625 29.8128125 -136.625 29.1328125 C-135.305 29.1328125 -133.985 29.1328125 -132.625 29.1328125 C-132.625 28.4728125 -132.625 27.8128125 -132.625 27.1328125 C-130.645 26.8028125 -128.665 26.4728125 -126.625 26.1328125 C-126.625 25.4728125 -126.625 24.8128125 -126.625 24.1328125 C-125.37836669 23.62447659 -124.12750613 23.12650105 -122.875 22.6328125 C-122.17890625 22.354375 -121.4828125 22.0759375 -120.765625 21.7890625 C-118.625 21.1328125 -118.625 21.1328125 -114.625 21.1328125 C-114.625 20.4728125 -114.625 19.8128125 -114.625 19.1328125 C-111.655 18.8028125 -108.685 18.4728125 -105.625 18.1328125 C-105.625 17.4728125 -105.625 16.8128125 -105.625 16.1328125 C-94.10335991 12.68862116 -94.10335991 12.68862116 -88.625 13.1328125 C-88.625 12.4728125 -88.625 11.8128125 -88.625 11.1328125 C-87.69816406 11.00003906 -86.77132812 10.86726562 -85.81640625 10.73046875 C-84.61886719 10.55386719 -83.42132813 10.37726562 -82.1875 10.1953125 C-80.99253906 10.02128906 -79.79757813 9.84726563 -78.56640625 9.66796875 C-75.74544324 9.44296037 -75.74544324 9.44296037 -74.625 8.1328125 C-72.29202567 8.09188313 -69.95794775 8.09039527 -67.625 8.1328125 C-67.625 7.4728125 -67.625 6.8128125 -67.625 6.1328125 C-66.33722656 6.00003906 -65.04945313 5.86726562 -63.72265625 5.73046875 C-62.04424638 5.55231351 -60.36586227 5.37391558 -58.6875 5.1953125 C-57.83736328 5.10830078 -56.98722656 5.02128906 -56.11132812 4.93164062 C-54.89799805 4.80112305 -54.89799805 4.80112305 -53.66015625 4.66796875 C-52.9112915 4.5894165 -52.16242676 4.51086426 -51.39086914 4.42993164 C-49.60359987 4.3047387 -49.60359987 4.3047387 -48.625 3.1328125 C-45.52457227 2.80834913 -42.4229275 2.61946809 -39.3125 2.4140625 C-36.70903248 2.42673451 -36.70903248 2.42673451 -35.625 1.1328125 C-23.82398329 -0.25342699 -11.86055912 -0.01459707 0 0 Z M-11.625 20.1328125 C-11.625 20.7928125 -11.625 21.4528125 -11.625 22.1328125 C-12.84058594 22.12121094 -14.05617188 22.10960938 -15.30859375 22.09765625 C-16.89322764 22.08827972 -18.47786318 22.07917937 -20.0625 22.0703125 C-20.86494141 22.06193359 -21.66738281 22.05355469 -22.49414062 22.04492188 C-24.53795221 22.0362982 -26.58183902 22.080531 -28.625 22.1328125 C-28.955 22.4628125 -29.285 22.7928125 -29.625 23.1328125 C-31.73378212 23.40925947 -33.85052285 23.62535999 -35.96875 23.81640625 C-37.2784375 23.93951172 -38.588125 24.06261719 -39.9375 24.18945312 C-42.01937823 24.3797559 -44.10141023 24.56819468 -46.18359375 24.75512695 C-56.34820399 25.67574604 -65.81704688 27.22675232 -75.625 30.1328125 C-83.10387324 32.28774208 -83.10387324 32.28774208 -86.625 33.1328125 C-86.625 33.7928125 -86.625 34.4528125 -86.625 35.1328125 C-89.925 35.4628125 -93.225 35.7928125 -96.625 36.1328125 C-96.625 36.7928125 -96.625 37.4528125 -96.625 38.1328125 C-97.6975 38.2565625 -98.77 38.3803125 -99.875 38.5078125 C-103.00363615 39.02925186 -104.95980424 39.53369504 -107.625 41.1328125 C-107.625 41.7928125 -107.625 42.4528125 -107.625 43.1328125 C-108.346875 43.22175781 -109.06875 43.31070313 -109.8125 43.40234375 C-118.2790665 45.60129922 -124.95723349 54.13116273 -129.625 61.1328125 C-129.94100189 63.28072179 -129.94100189 63.28072179 -129.875 65.5703125 C-129.88015625 66.33214844 -129.8853125 67.09398437 -129.890625 67.87890625 C-129.5997292 70.34724268 -128.85475656 71.9904985 -127.625 74.1328125 C-126.965 74.1328125 -126.305 74.1328125 -125.625 74.1328125 C-125.53734375 74.71933594 -125.4496875 75.30585937 -125.359375 75.91015625 C-123.72710421 80.85038008 -118.14168358 84.0855786 -114 86.9453125 C-111.27735163 88.30663669 -108.53595624 89.25275596 -105.625 90.1328125 C-105.625 90.7928125 -105.625 91.4528125 -105.625 92.1328125 C-104.81417969 92.37515625 -104.00335938 92.6175 -103.16796875 92.8671875 C-97.91867505 94.45603076 -92.72809228 96.05701522 -87.625 98.0703125 C-74.24625967 102.99727219 -60.1770408 105.53467584 -46.01953125 106.7734375 C-42.625 107.1328125 -42.625 107.1328125 -40.625 108.1328125 C-38.8000542 108.34294119 -36.96900212 108.50121123 -35.13671875 108.6328125 C-34.03779297 108.7153125 -32.93886719 108.7978125 -31.80664062 108.8828125 C-30.65357422 108.9653125 -29.50050781 109.0478125 -28.3125 109.1328125 C-26.04536818 109.2966707 -23.7784303 109.46323969 -21.51171875 109.6328125 C-19.99904419 109.74109375 -19.99904419 109.74109375 -18.45581055 109.8515625 C-15.625 110.1328125 -15.625 110.1328125 -13.36135864 110.64131165 C-10.19864522 111.20939374 -7.2264511 111.26751532 -4.01245117 111.27807617 C-3.0450576 111.28311409 -3.0450576 111.28311409 -2.05812073 111.28825378 C0.07194975 111.29773608 2.20194097 111.29970743 4.33203125 111.30078125 C5.83680756 111.30400242 7.34158357 111.30736711 8.84635925 111.31086731 C12.01126832 111.3168566 15.17615012 111.31870809 18.34106445 111.31811523 C21.53806323 111.31803486 24.73491603 111.32483126 27.93188477 111.33862305 C59.52556615 112.32472482 59.52556615 112.32472482 90.375 107.1328125 C92.41293728 106.97136552 94.45625696 106.86897305 96.5 106.8203125 C105.59547047 106.28585644 114.21086185 103.99373216 123.01074219 101.73632812 C126.04149332 100.96267914 129.08375785 100.23895511 132.125 99.5078125 C136.30355869 98.45720346 140.37398987 97.2127138 144.4375 95.78125 C146.39893102 95.12480333 148.36293092 94.60888242 150.375 94.1328125 C150.375 93.4728125 150.375 92.8128125 150.375 92.1328125 C150.93703125 92.01035156 151.4990625 91.88789062 152.078125 91.76171875 C154.56486519 91.0808256 156.78014776 90.13928925 159.125 89.0703125 C159.92421875 88.70808594 160.7234375 88.34585938 161.546875 87.97265625 C162.45179688 87.55693359 162.45179688 87.55693359 163.375 87.1328125 C163.375 86.4728125 163.375 85.8128125 163.375 85.1328125 C164.07625 84.9265625 164.7775 84.7203125 165.5 84.5078125 C169.17673359 82.7493747 171.84795079 80.32853109 174.375 77.1328125 C174.375 76.4728125 174.375 75.8128125 174.375 75.1328125 C175.035 75.1328125 175.695 75.1328125 176.375 75.1328125 C176.375 74.1428125 176.375 73.1528125 176.375 72.1328125 C177.035 72.1328125 177.695 72.1328125 178.375 72.1328125 C178.42906122 70.19561872 178.46782025 68.25799329 178.5 66.3203125 C178.53480469 64.70189453 178.53480469 64.70189453 178.5703125 63.05078125 C178.60523717 59.93878382 178.60523717 59.93878382 176.375 57.1328125 C175.715 57.1328125 175.055 57.1328125 174.375 57.1328125 C174.148125 56.5553125 173.92125 55.9778125 173.6875 55.3828125 C172.03448561 52.54907355 169.97857787 51.10137137 167.375 49.1328125 C166.6325 48.2975 166.6325 48.2975 165.875 47.4453125 C163.85107936 45.67438194 161.99620986 45.48703005 159.375 45.1328125 C159.375 44.4728125 159.375 43.8128125 159.375 43.1328125 C158.385 43.1328125 157.395 43.1328125 156.375 43.1328125 C156.375 42.4728125 156.375 41.8128125 156.375 41.1328125 C155.055 41.1328125 153.735 41.1328125 152.375 41.1328125 C152.375 40.4728125 152.375 39.8128125 152.375 39.1328125 C145.01857196 35.70739669 138.53547799 33.3314082 130.375 33.1328125 C130.375 32.4728125 130.375 31.8128125 130.375 31.1328125 C129.6015625 31.01164062 128.828125 30.89046875 128.03125 30.765625 C118.49428512 29.23121233 118.49428512 29.23121233 114.125 28.0078125 C109.99143469 27.04331393 106.59773724 26.98200046 102.375 27.1328125 C102.375 26.4728125 102.375 25.8128125 102.375 25.1328125 C101.52035156 25.07222656 100.66570312 25.01164062 99.78515625 24.94921875 C98.68042969 24.86542969 97.57570313 24.78164063 96.4375 24.6953125 C95.33535156 24.61410156 94.23320312 24.53289063 93.09765625 24.44921875 C90.375 24.1328125 90.375 24.1328125 89.375 23.1328125 C83.21868216 21.51804061 76.90699789 20.93405357 70.57055664 20.57641602 C69.463299 20.51314416 69.463299 20.51314416 68.33367252 20.44859409 C60.13736005 20.01677987 51.95144784 20.00650447 43.74609375 20.03515625 C42.13371322 20.03702849 40.52133211 20.03844856 38.90895081 20.03944397 C34.72850894 20.04320584 30.54810354 20.05297948 26.36767578 20.06414795 C22.07650241 20.07450072 17.78532297 20.07897085 13.49414062 20.08398438 C5.12107728 20.09460956 -3.25195678 20.11160664 -11.625 20.1328125 Z " fill="#FAFCFC" transform="translate(231.625,0.8671875)"/>
<path d="M0 0 C0.81597656 -0.01224609 1.63195312 -0.02449219 2.47265625 -0.03710938 C7.51172983 -0.04924198 11.6690058 0.59101666 16.5 2.1875 C17.95642566 2.52907214 19.41440806 2.86420692 20.875 3.1875 C22.07125 3.5175 23.2675 3.8475 24.5 4.1875 C24.995 5.1775 24.995 5.1775 25.5 6.1875 C26.61375 6.703125 27.7275 7.21875 28.875 7.75 C40.75366297 13.56160392 49.98373518 23.49110072 54.4375 36 C55.49025867 39.68465535 55.98901281 43.39159513 56.5 47.1875 C56.83128906 47.86683594 57.16257812 48.54617188 57.50390625 49.24609375 C62.02585719 62.59914887 58.59431083 80.65429696 53.1796875 93.26171875 C51.76446249 96.03416775 50.22522369 98.59765372 48.5 101.1875 C47.93667969 102.03828125 47.37335938 102.8890625 46.79296875 103.765625 C41.24853232 111.37609353 33.48332763 117.81067468 24.66796875 121.3125 C22.32866405 121.97847052 22.32866405 121.97847052 21.5 124.1875 C22.05816406 124.42855469 22.61632812 124.66960937 23.19140625 124.91796875 C25.98892209 126.45636579 28.08486915 128.34311964 30.4375 130.5 C31.27152344 131.25925781 32.10554688 132.01851562 32.96484375 132.80078125 C35.52877604 135.21459115 38.01010563 137.69760563 40.5 140.1875 C42.5214655 142.12634704 44.56903408 144.03534699 46.625 145.9375 C47.14964844 146.43121094 47.67429687 146.92492187 48.21484375 147.43359375 C50.63569655 149.67058432 52.33456777 151.13235592 55.5 152.1875 C55.5 153.1775 55.5 154.1675 55.5 155.1875 C50.64381975 155.36141279 45.78947616 155.48796322 40.9309082 155.57202148 C39.28084721 155.60708104 37.63100146 155.6547456 35.98168945 155.71557617 C22.29720023 156.20740771 22.29720023 156.20740771 17.93554688 153.73217773 C16.17265488 151.98071189 14.83528775 150.27623268 13.5 148.1875 C12.87351562 147.50042969 12.24703125 146.81335938 11.6015625 146.10546875 C11.11429687 145.53441406 10.62703125 144.96335937 10.125 144.375 C6.5972521 140.27800187 2.96622748 136.28103043 -0.6796875 132.2890625 C-2.5 130.1875 -2.5 130.1875 -3.5 128.1875 C-5.7517743 127.86869945 -5.7517743 127.86869945 -8.4375 127.8125 C-14.43648045 127.37071462 -19.05451791 125.61056829 -24.5 123.1875 C-26.26955554 122.517449 -28.04037848 121.85073483 -29.8125 121.1875 C-33.57352141 119.68309144 -36.5950498 118.0924502 -39.5 115.1875 C-39.5 114.5275 -39.5 113.8675 -39.5 113.1875 C-40.36625 112.81625 -40.36625 112.81625 -41.25 112.4375 C-46.10072959 109.74265023 -49.7847196 104.9837535 -52.5 100.1875 C-52.5 99.1975 -52.5 98.2075 -52.5 97.1875 C-53.16 97.1875 -53.82 97.1875 -54.5 97.1875 C-54.83 94.8775 -55.16 92.5675 -55.5 90.1875 C-56.16 90.1875 -56.82 90.1875 -57.5 90.1875 C-60.93240325 81.26325155 -60.68194829 71.86430066 -60.6875 62.4375 C-60.69974609 61.32761719 -60.71199219 60.21773438 -60.72460938 59.07421875 C-60.72654297 58.00300781 -60.72847656 56.93179688 -60.73046875 55.828125 C-60.73457764 54.86422852 -60.73868652 53.90033203 -60.74291992 52.90722656 C-60.4820316 49.98632618 -59.69193921 47.85136413 -58.5 45.1875 C-58.16076562 43.86071665 -57.8461214 42.52727346 -57.5625 41.1875 C-56.73306831 37.72073473 -55.43328992 35.20343228 -53.5 32.1875 C-52.943125 30.6096875 -52.943125 30.6096875 -52.375 29 C-49.27369703 21.50108225 -42.02595871 14.84889908 -35.5 10.1875 C-34.51 10.1875 -33.52 10.1875 -32.5 10.1875 C-32.5 9.5275 -32.5 8.8675 -32.5 8.1875 C-31.51 8.1875 -30.52 8.1875 -29.5 8.1875 C-29.5 7.5275 -29.5 6.8675 -29.5 6.1875 C-19.6249773 1.84249001 -10.79579694 0.00852749 0 0 Z " fill="#FBFCFD" transform="translate(267.5,238.8125)"/>
<path d="M0 0 C0 0.66 0 1.32 0 2 C2.97 2.33 5.94 2.66 9 3 C9 11.58 9 20.16 9 29 C3.42411195 27.88482239 3.42411195 27.88482239 0.4375 26 C-5.47409761 22.56052503 -10.73433909 22.78655439 -17.4375 22.75 C-18.37916016 22.729375 -19.32082031 22.70875 -20.29101562 22.6875 C-27.21744046 22.55244647 -27.21744046 22.55244647 -33 26 C-34.23716114 28.69219044 -34.23716114 28.69219044 -34.8125 31.6875 C-35.04582031 32.68136719 -35.27914062 33.67523438 -35.51953125 34.69921875 C-35.67808594 35.45847656 -35.83664063 36.21773438 -36 37 C-35.34 37 -34.68 37 -34 37 C-33.5875 38.11375 -33.175 39.2275 -32.75 40.375 C-31.64453484 42.99320695 -31.25119213 43.83493089 -28.8125 45.4375 C-27.9153125 45.7159375 -27.9153125 45.7159375 -27 46 C-27 46.66 -27 47.32 -27 48 C-25.6078125 48.185625 -25.6078125 48.185625 -24.1875 48.375 C-21 49 -21 49 -18 51 C-18 51.66 -18 52.32 -18 53 C-17.319375 53.103125 -16.63875 53.20625 -15.9375 53.3125 C-10.76585147 54.52288583 -6.69286181 56.20558449 -3 60 C-1.55306969 61.11906783 -0.09374452 62.22222037 1.375 63.3125 C10.44641792 70.35983933 10.44641792 70.35983933 11.8125 76.875 C11.874375 77.90625 11.93625 78.9375 12 80 C12.66 80 13.32 80 14 80 C14.61824977 94.95820978 12.90864311 104.15360498 2.58984375 115.55859375 C0.72497624 117.24934587 -1.18688045 118.44408053 -3.375 119.6875 C-4.12523437 120.12449219 -4.87546875 120.56148438 -5.6484375 121.01171875 C-8.27600329 122.11599474 -10.17825015 122.18446068 -13 122 C-13 122.66 -13 123.32 -13 124 C-19.31091079 125.20267808 -25.47895483 125.186071 -31.88549805 125.18530273 C-33.92843436 125.18749029 -35.97083071 125.20568735 -38.01367188 125.22460938 C-39.96950195 125.22750977 -39.96950195 125.22750977 -41.96484375 125.23046875 C-43.1468335 125.23457764 -44.32882324 125.23868652 -45.54663086 125.24291992 C-52.36163349 124.76353303 -58.53537526 122.15487491 -65 120 C-65 110.76 -65 101.52 -65 92 C-62.69 93.32 -60.38 94.64 -58 96 C-56.34827188 96.70286303 -54.68698082 97.38655243 -53 98 C-53 98.66 -53 99.32 -53 100 C-50.03 100.33 -47.06 100.66 -44 101 C-44 101.66 -44 102.32 -44 103 C-40.79037703 102.94778173 -37.5833754 102.85263231 -34.375 102.75 C-33.47136719 102.73582031 -32.56773437 102.72164063 -31.63671875 102.70703125 C-26.05329565 102.50325668 -22.24710089 102.00578834 -18 98 C-17.07344963 95.54996342 -17.07344963 95.54996342 -17.125 92.9375 C-17.08632812 92.08027344 -17.04765625 91.22304688 -17.0078125 90.33984375 C-17.00186946 88.55990385 -17 86.77994982 -17 85 C-17.66 85 -18.32 85 -19 85 C-20.14979881 83.81638357 -21.29855633 82.63173361 -22.44140625 81.44140625 C-26.31817127 77.85612732 -30.80946873 75.0635387 -36 74 C-36 73.34 -36 72.68 -36 72 C-36.8353125 71.814375 -36.8353125 71.814375 -37.6875 71.625 C-40.22114364 70.94023145 -42.57921032 70.00866237 -45 69 C-45 68.34 -45 67.68 -45 67 C-45.66 67 -46.32 67 -47 67 C-47 66.34 -47 65.68 -47 65 C-47.73863281 64.92523438 -48.47726563 64.85046875 -49.23828125 64.7734375 C-52.71876058 63.79870637 -53.88720562 62.37467491 -56.1875 59.625 C-56.86167969 58.83351563 -57.53585938 58.04203125 -58.23046875 57.2265625 C-62 52.48344371 -62 52.48344371 -62 49 C-62.66 49 -63.32 49 -64 49 C-66.58038832 39.75631401 -66.6626866 26.75082629 -62.40625 18.0859375 C-59.48202154 13.74833195 -55.88286856 8.91591136 -50.75 7.28515625 C-50.1725 7.19105469 -49.595 7.09695312 -49 7 C-49 6.34 -49 5.68 -49 5 C-48.34 5 -47.68 5 -47 5 C-47 4.34 -47 3.68 -47 3 C-31.4570936 -1.98798142 -16.11355406 -2.01624328 0 0 Z " fill="#FAFBFD" transform="translate(181,240)"/>
<path d="M0 0 C1.31156067 0.00115814 2.62312134 0.00231628 3.97442627 0.00350952 C24.69458026 0.03109364 45.12143521 0.75497296 65.6875 3.3125 C66.86006348 3.45655273 68.03262695 3.60060547 69.24072266 3.74902344 C75.40319973 4.5216325 81.54898321 5.36862774 87.6875 6.3125 C87.6875 6.9725 87.6875 7.6325 87.6875 8.3125 C89.54148698 8.6260643 91.39569944 8.93829549 93.25 9.25 C94.34957031 9.435625 95.44914063 9.62125 96.58203125 9.8125 C98.85913024 10.17912726 101.14661327 10.48272988 103.4375 10.75 C106.76230574 11.32544715 109.56805195 12.30396992 112.6875 13.546875 C115.63728533 14.6760897 118.6401485 15.48717564 121.6875 16.3125 C119.67429513 20.33890973 113.93395158 21.31594465 109.86376953 22.67333984 C104.1119614 24.36261892 98.1798712 25.3443693 92.2890625 26.41796875 C89.4391029 26.94001415 86.81583875 27.56990956 84.0234375 28.39453125 C79.41770114 29.66191772 74.93970002 29.75659821 70.1875 29.96875 C66.71278601 30.19189155 66.71278601 30.19189155 63.60766602 31.26464844 C58.95530452 32.6267249 54.28300129 33.02882708 49.46484375 33.421875 C47.92074074 33.54801178 47.92074074 33.54801178 46.34544373 33.67669678 C32.54906661 34.68076599 18.72851992 34.61428495 4.90356445 34.57324219 C1.00922893 34.56177953 -2.88483272 34.56848604 -6.77915859 34.58038712 C-9.84658279 34.5876996 -12.91394459 34.58527655 -15.98137093 34.58013153 C-17.41589455 34.57882448 -18.85042438 34.58033544 -20.28494072 34.58509064 C-29.45344811 34.60886911 -38.35024776 33.99647566 -47.4344635 32.79559326 C-52.24277008 32.19661476 -57.03471268 31.85519284 -61.87109375 31.55859375 C-64.3125 31.3125 -64.3125 31.3125 -66.3125 30.3125 C-68.14744638 30.1182364 -69.98309765 29.9289931 -71.82128906 29.76831055 C-88.20067068 28.30499784 -104.02848753 24.34904274 -119.3125 18.3125 C-119.3125 17.6525 -119.3125 16.9925 -119.3125 16.3125 C-115.47992629 15.18490129 -111.64630784 14.06089485 -107.8125 12.9375 C-106.73484375 12.62039062 -105.6571875 12.30328125 -104.546875 11.9765625 C-88.39041091 7.2478413 -88.39041091 7.2478413 -82.4375 6.75 C-80.00163369 6.54206019 -78.51021531 6.41135766 -76.3125 5.3125 C-72.95829036 4.70047597 -69.56842193 4.31218818 -66.1875 3.875 C-64.8571875 3.69227539 -64.8571875 3.69227539 -63.5 3.50585938 C-42.35952245 0.74155574 -21.30605391 -0.0585081 0 0 Z " fill="#7FBA03" transform="translate(255.3125,77.6875)"/>
<path d="M0 0 C9.24 0 18.48 0 28 0 C28 32.67 28 65.34 28 99 C42.85 99 57.7 99 73 99 C73 106.59 73 114.18 73 122 C48.91 122 24.82 122 0 122 C0 81.74 0 41.48 0 0 Z " fill="#F9FBFD" transform="translate(346,242)"/>
<path d="M0 0 C0 0.66 0 1.32 0 2 C0.86625 2.103125 1.7325 2.20625 2.625 2.3125 C7.43482637 3.29227945 10.91678557 4.41386458 13.75 8.5625 C14.1625 9.366875 14.575 10.17125 15 11 C15.66 11.66 16.32 12.32 17 13 C17 13.99 17 14.98 17 16 C17.66 16 18.32 16 19 16 C23.9725106 28.32317844 25.94636313 46.21047528 21.265625 59.0078125 C20.4375 60.6875 20.4375 60.6875 19 63 C18.34 63 17.68 63 17 63 C16.835 63.680625 16.67 64.36125 16.5 65.0625 C13.7163961 70.51372431 8.01878882 75.40701669 2.25 77.5703125 C-5.4745342 79.04548396 -13.65333687 78.7829885 -21 76 C-22.2375 75.690625 -22.2375 75.690625 -23.5 75.375 C-27.38649662 73.23742686 -29.72192141 69.7576554 -32 66 C-32 65.34 -32 64.68 -32 64 C-32.66 64 -33.32 64 -34 64 C-37.23518306 55.84171229 -38.18106769 48.74793911 -38.1875 40 C-38.19974609 39.1234375 -38.21199219 38.246875 -38.22460938 37.34375 C-38.23564408 32.4590531 -37.84289532 28.59368759 -36 24 C-35.80019531 23.24976563 -35.60039062 22.49953125 -35.39453125 21.7265625 C-33.65601968 15.44925228 -30.51957322 11.59263791 -26 7 C-25.34 6.236875 -24.68 5.47375 -24 4.6875 C-16.88624594 -1.31472999 -8.76449652 -0.30455779 0 0 Z " fill="#2677C7" transform="translate(274,263)"/>
<path d="M0 0 C0.33 22.44 0.66 44.88 1 68 C-7.08888889 65.68888889 -7.08888889 65.68888889 -11 60 C-11 59.34 -11 58.68 -11 58 C-11.66 58 -12.32 58 -13 58 C-16.23518306 49.84171229 -17.18106769 42.74793911 -17.1875 34 C-17.19974609 33.1234375 -17.21199219 32.246875 -17.22460938 31.34375 C-17.23564408 26.4590531 -16.84289532 22.59368759 -15 18 C-14.80019531 17.24976563 -14.60039062 16.49953125 -14.39453125 15.7265625 C-12.70410448 9.6228739 -9.73952443 5.2224854 -5 1 C-2 0 -2 0 0 0 Z " fill="#0773C6" transform="translate(253,269)"/>
<path d="M0 0 C0.33 0 0.66 0 1 0 C1.02287271 47.44990722 1.04050146 94.89981386 1.05106533 142.3497255 C1.05231608 147.94750581 1.0536104 153.54528611 1.05493164 159.14306641 C1.05519395 160.25751647 1.05545626 161.37196654 1.05572652 162.52018782 C1.06008167 180.5817289 1.06796837 198.64326681 1.0771528 216.704806 C1.08649364 235.22798838 1.09205653 253.7511691 1.09408849 272.27435374 C1.09546282 283.71055093 1.09980857 295.14673915 1.10791647 306.58293357 C1.11318923 314.41773226 1.11480308 322.25252629 1.11350138 330.08732662 C1.11285883 334.61227371 1.11386615 339.1372051 1.11920547 343.66214943 C1.1240539 347.80114634 1.12432907 351.94011691 1.12089889 356.079115 C1.12047463 357.57984972 1.1217582 359.08058605 1.12488318 360.58131757 C1.12887324 362.61505104 1.12614532 364.64879442 1.12304783 366.68252945 C1.12342755 367.81409603 1.12380727 368.94566262 1.1241985 370.1115191 C1.01758544 372.59101581 0.72406649 374.63920631 0 377 C-0.66 377 -1.32 377 -2 377 C-2.4640625 378.175625 -2.4640625 378.175625 -2.9375 379.375 C-4 382 -4 382 -5 384 C-5.66 384 -6.32 384 -7 384 C-5.87179866 380.9914631 -4.67344331 378.47976849 -2.95431137 375.74105072 C0.12489535 369.55712608 -0.44197431 362.89403598 -0.48101807 356.14318848 C-0.47513819 354.62659957 -0.46750873 353.11001661 -0.458287 351.59344435 C-0.43805973 347.43843802 -0.44257197 343.28377377 -0.45119452 339.12874079 C-0.45614362 334.64345625 -0.43804917 330.15825716 -0.42277527 325.67300415 C-0.39946992 317.90613338 -0.39071443 310.13935595 -0.39188385 302.37245178 C-0.39355353 291.14288034 -0.37321381 279.9134333 -0.34752855 268.68389505 C-0.30645098 250.46407412 -0.2831355 232.24427557 -0.27099609 214.02441406 C-0.25916682 196.32712655 -0.23896854 178.62988118 -0.20751953 160.93261719 C-0.20558343 159.84147859 -0.20364733 158.75034 -0.20165256 157.6261366 C-0.19188794 152.15213134 -0.18195884 146.6781264 -0.17194796 141.20412159 C-0.08913053 95.80276829 -0.03514183 50.40141355 0 5 C-0.99 5.33 -1.98 5.66 -3 6 C-1.125 1.125 -1.125 1.125 0 0 Z " fill="#5996D3" transform="translate(448,80)"/>
<path d="M0 0 C0.99 0.33 1.98 0.66 3 1 C3 124.42 3 247.84 3 375 C2.67 375 2.34 375 2 375 C1.99826375 374.21649414 1.9965275 373.43298828 1.99473864 372.62573981 C1.89178256 326.22202551 1.78368568 279.81832563 1.66888306 233.41463904 C1.65511295 227.84690138 1.64138593 222.27916361 1.62768555 216.71142578 C1.62359309 215.04872252 1.62359309 215.04872252 1.61941796 213.3524293 C1.5753042 195.38789358 1.53468392 177.42335156 1.49534739 159.45880482 C1.45492786 141.03505367 1.41077106 122.61131423 1.36312145 104.18758035 C1.33382119 92.81281078 1.30746028 81.43804211 1.28482103 70.06325731 C1.26903225 62.27049911 1.24962394 54.47775525 1.22733159 46.68501297 C1.21456488 42.18437595 1.20343016 37.68374999 1.19658089 33.18309975 C1.19028066 29.06629663 1.17945626 24.94953161 1.1649667 20.8327494 C1.16052369 19.34009468 1.15776998 17.84743382 1.15683801 16.35477278 C1.15533283 14.33191861 1.1471816 12.30907261 1.1386652 10.28623581 C1.13600716 9.16074475 1.13334911 8.03525369 1.13061053 6.87565684 C1.01837498 4.4045627 0.71969977 2.35407736 0 0 Z " fill="#EBF2F9" transform="translate(448,71)"/>
<path d="M0 0 C-0.33 0.66 -0.66 1.32 -1 2 C-3.31 2 -5.62 2 -8 2 C-8 2.66 -8 3.32 -8 4 C-9.14339844 4.13277344 -10.28679687 4.26554687 -11.46484375 4.40234375 C-12.9557562 4.5805031 -14.44664018 4.75890082 -15.9375 4.9375 C-16.69224609 5.02451172 -17.44699219 5.11152344 -18.22460938 5.20117188 C-21.92187458 5.34324099 -21.92187458 5.34324099 -25 7 C-27.31817089 7.32097751 -29.63779357 7.51220956 -31.96875 7.71875 C-33.99180593 7.79065837 -33.99180593 7.79065837 -35 9 C-38.47824726 9.52859976 -41.99536417 9.7643861 -45.5 10.0625 C-46.5319751 10.15192871 -47.5639502 10.24135742 -48.62719727 10.33349609 C-57.43711156 11.04864182 -66.16815223 11.21338693 -75 11 C-75 10.67 -75 10.34 -75 10 C-73.6402002 9.87939209 -73.6402002 9.87939209 -72.25292969 9.75634766 C-68.83070746 9.45058959 -65.40891009 9.14068272 -61.98730469 8.828125 C-60.51739851 8.69467215 -59.04734892 8.56278775 -57.57714844 8.43261719 C-42.74088898 8.32644216 -42.74088898 8.32644216 -30 4 C-28.65984779 3.84417697 -27.31241097 3.74955858 -25.96484375 3.68359375 C-25.15595703 3.64169922 -24.34707031 3.59980469 -23.51367188 3.55664062 C-22.2384668 3.49766602 -22.2384668 3.49766602 -20.9375 3.4375 C-19.65649414 3.37272461 -19.65649414 3.37272461 -18.34960938 3.30664062 C-16.23327963 3.20023298 -14.11666187 3.09958269 -12 3 C-12 2.34 -12 1.68 -12 1 C-7.93631321 0.22596442 -4.13574827 -0.0984702 0 0 Z " fill="#ACCBE9" transform="translate(366,501)"/>
<path d="M0 0 C3.02176257 0.28376192 6.04216139 0.57674991 9.0625 0.875 C10.33383789 0.99294922 10.33383789 0.99294922 11.63085938 1.11328125 C15.44940561 1.49661022 18.91184783 1.97465029 22.61328125 3.0390625 C26.47137885 4.13374763 30.14668951 4.36837985 34.125 4.5 C40.52185187 4.7894692 46.71738849 5.45655549 53.0390625 6.5234375 C57.34119705 7.21586549 61.65999421 7.62771959 66 8 C66 8.33 66 8.66 66 9 C56.29219478 9.25697131 46.7399565 8.86270685 37.0625 8.0625 C35.45375 7.93222412 35.45375 7.93222412 33.8125 7.79931641 C26.12885655 7.12885655 26.12885655 7.12885655 25 6 C23.50503158 5.79300437 22.0033408 5.63320741 20.5 5.5 C16.11111111 5.11111111 16.11111111 5.11111111 15 4 C12.47804033 3.60056824 9.97036344 3.24920152 7.4375 2.9375 C6.72658203 2.84662109 6.01566406 2.75574219 5.28320312 2.66210938 C3.52261597 2.43760497 1.76136522 2.21831603 0 2 C0 1.34 0 0.68 0 0 Z " fill="#A3CBE9" transform="translate(155,503)"/>
<path d="M0 0 C0 0.66 0 1.32 0 2 C1.65 2 3.3 2 5 2 C5 2.33 5 2.66 5 3 C2.69 3 0.38 3 -2 3 C-2 2.34 -2 1.68 -2 1 C-6.37471928 1.06956811 -10.7485695 1.1578537 -15.12255859 1.26245117 C-16.60618043 1.29541697 -18.08991915 1.32353417 -19.57373047 1.34643555 C-28.14819971 1.4823088 -35.86574774 2.02262062 -44 5 C-45.32920408 5.34943585 -46.66154443 5.6878693 -48 6 C-48 6.66 -48 7.32 -48 8 C-48.99 7.67 -49.98 7.34 -51 7 C-50.34 7 -49.68 7 -49 7 C-49 6.34 -49 5.68 -49 5 C-48.34 5 -47.68 5 -47 5 C-47 4.34 -47 3.68 -47 3 C-31.4570936 -1.98798142 -16.11355406 -2.01624328 0 0 Z " fill="#ABC3E3" transform="translate(181,240)"/>
<path d="M0 0 C0.495 0.99 0.495 0.99 1 2 C0.34 2 -0.32 2 -1 2 C-1 2.66 -1 3.32 -1 4 C-2.85468816 4.92734408 -4.7097366 5.85397328 -6.56640625 6.77734375 C-8.26796103 7.63221798 -9.96279586 8.50054041 -11.65234375 9.37890625 C-12.53019531 9.83136719 -13.40804688 10.28382813 -14.3125 10.75 C-15.54419922 11.39195312 -15.54419922 11.39195312 -16.80078125 12.046875 C-19 13 -19 13 -22 13 C-22 13.66 -22 14.32 -22 15 C-23.32 15 -24.64 15 -26 15 C-26 15.66 -26 16.32 -26 17 C-35.41002278 20.44419134 -35.41002278 20.44419134 -40 20 C-38.75 18.5 -38.75 18.5 -37 17 C-35.68 17 -34.36 17 -33 17 C-33 16.34 -33 15.68 -33 15 C-30.89748139 14.32815382 -28.79292237 13.66269032 -26.6875 13 C-25.51574219 12.62875 -24.34398437 12.2575 -23.13671875 11.875 C-20 11 -20 11 -17 11 C-17 10.34 -17 9.68 -17 9 C-15.576875 8.443125 -15.576875 8.443125 -14.125 7.875 C-9.13282053 5.75306745 -4.59684471 2.85799802 0 0 Z " fill="#C1D8EE" transform="translate(427,475)"/>
<path d="M0 0 C7.43222673 11.14834009 6.32107486 28.23408829 4 41 C3.18405935 43.23081645 2.26032979 44.97251295 1 47 C-0.27728906 43.16813281 0.7248116 41.77064458 2 38 C2.35951932 34.81656308 2.35951932 34.81656308 2.4140625 31.5078125 C2.45273437 30.30898438 2.49140625 29.11015625 2.53125 27.875 C2.5621875 26.6375 2.593125 25.4 2.625 24.125 C2.66367187 22.86429687 2.70234375 21.60359375 2.7421875 20.3046875 C2.83616989 17.20326863 2.92183411 14.10185114 3 11 C2.34 11 1.68 11 1 11 C0.67 7.37 0.34 3.74 0 0 Z " fill="#78A3D6" transform="translate(292,279)"/>
<path d="M0 0 C5.98634296 0.94981642 11.09158596 2.36358339 16.55078125 4.98046875 C21.18786144 6.91073658 26.1096616 7.90774168 31 9 C31 9.66 31 10.32 31 11 C32.32 11.33 33.64 11.66 35 12 C32.69 12 30.38 12 28 12 C28 11.34 28 10.68 28 10 C24.7 9.67 21.4 9.34 18 9 C18 8.34 18 7.68 18 7 C16.35 7 14.7 7 13 7 C13 6.34 13 5.68 13 5 C10.36 4.67 7.72 4.34 5 4 C5 3.34 5 2.68 5 2 C3.35 1.67 1.7 1.34 0 1 C0 0.67 0 0.34 0 0 Z " fill="#B9D7EE" transform="translate(107,488)"/>
<path d="M0 0 C0.87462891 0.00451172 1.74925781 0.00902344 2.65039062 0.01367188 C4.78779047 0.02535166 6.92515463 0.04328311 9.0625 0.0625 C9.5575 1.0525 9.5575 1.0525 10.0625 2.0625 C9.34070557 2.08755615 8.61891113 2.1126123 7.87524414 2.13842773 C4.624965 2.25401302 1.37500312 2.37690774 -1.875 2.5 C-3.01130859 2.53931641 -4.14761719 2.57863281 -5.31835938 2.61914062 C-6.93774414 2.68198242 -6.93774414 2.68198242 -8.58984375 2.74609375 C-9.59007568 2.78275146 -10.59030762 2.81940918 -11.62084961 2.85717773 C-13.89819188 2.80921841 -13.89819188 2.80921841 -14.9375 4.0625 C-16.45219448 4.29442865 -17.97504562 4.47465238 -19.5 4.625 C-20.73943359 4.75068359 -20.73943359 4.75068359 -22.00390625 4.87890625 C-22.96103516 4.96978516 -22.96103516 4.96978516 -23.9375 5.0625 C-22.9375 3.0625 -22.9375 3.0625 -20.3125 2 C-13.5303648 0.11607355 -6.97978268 -0.06900165 0 0 Z " fill="#B3C5E4" transform="translate(267.9375,238.9375)"/>
<path d="M0 0 C3.14675241 0.28223216 6.29215185 0.57755706 9.4375 0.875 C10.31599609 0.95363281 11.19449219 1.03226563 12.09960938 1.11328125 C17.87313683 1.66719901 23.36184946 2.6349137 29 4 C29 4.33 29 4.66 29 5 C27.18757948 5.02687279 25.37504767 5.04633715 23.5625 5.0625 C22.55316406 5.07410156 21.54382813 5.08570313 20.50390625 5.09765625 C18 5 18 5 17 4 C14.14471393 3.599617 11.30263513 3.2481773 8.4375 2.9375 C7.63119141 2.84662109 6.82488281 2.75574219 5.99414062 2.66210938 C3.99652623 2.43752551 1.9983144 2.21826764 0 2 C0 1.34 0 0.68 0 0 Z " fill="#92B7E0" transform="translate(161,132)"/>
<path d="M0 0 C0 0.33 0 0.66 0 1 C-0.71027344 1.06058594 -1.42054688 1.12117188 -2.15234375 1.18359375 C-3.07144531 1.26738281 -3.99054688 1.35117187 -4.9375 1.4375 C-5.85402344 1.51871094 -6.77054687 1.59992188 -7.71484375 1.68359375 C-9.96159732 1.76044976 -9.96159732 1.76044976 -11 3 C-12.99958364 3.04080783 -15.00045254 3.04254356 -17 3 C-17.33 3.66 -17.66 4.32 -18 5 C-20.48412207 5.82804069 -22.35220307 6 -25 6 C-18.72575277 -1.7505407 -8.92332937 -0.31007708 0 0 Z " fill="#7DA6D8" transform="translate(274,263)"/>
<path d="M0 0 C-0.33 0.66 -0.66 1.32 -1 2 C-3.31 2 -5.62 2 -8 2 C-8 2.66 -8 3.32 -8 4 C-14.435 4.495 -14.435 4.495 -21 5 C-19 3 -19 3 -15.375 2.875 C-13.704375 2.936875 -13.704375 2.936875 -12 3 C-12 2.34 -12 1.68 -12 1 C-7.93631321 0.22596442 -4.13574827 -0.0984702 0 0 Z " fill="#C2D9EF" transform="translate(366,501)"/>
<path d="M0 0 C0 0.66 0 1.32 0 2 C-3.3 2.33 -6.6 2.66 -10 3 C-10 3.66 -10 4.32 -10 5 C-13.3 5.33 -16.6 5.66 -20 6 C-13.80281386 1.86854257 -7.47863013 -0.65031566 0 0 Z " fill="#BCD5ED" transform="translate(387,495)"/>
<path d="M0 0 C-2.30587304 2.30587304 -3.77098633 2.68287595 -6.875 3.5625 C-7.73867187 3.81128906 -8.60234375 4.06007812 -9.4921875 4.31640625 C-11.65557569 4.90611487 -13.8217771 5.46810836 -16 6 C-16 6.66 -16 7.32 -16 8 C-16.99 7.67 -17.98 7.34 -19 7 C-18.34 7 -17.68 7 -17 7 C-17 6.34 -17 5.68 -17 5 C-16.34 5 -15.68 5 -15 5 C-15 4.34 -15 3.68 -15 3 C-13.44033782 2.491217 -11.87710759 1.99336531 -10.3125 1.5 C-9.44238281 1.2215625 -8.57226562 0.943125 -7.67578125 0.65625 C-5.00608323 0.00149195 -2.73603316 -0.11831495 0 0 Z " fill="#98BAE0" transform="translate(149,240)"/>
<path d="M0 0 C0 0.33 0 0.66 0 1 C-2.05078125 1.22786458 -4.1015625 1.45572917 -6.15234375 1.68359375 C-8.01140229 1.81886614 -8.01140229 1.81886614 -9 3 C-10.85287502 3.07226502 -12.70833878 3.0838122 -14.5625 3.0625 C-15.57441406 3.05347656 -16.58632813 3.04445312 -17.62890625 3.03515625 C-18.41136719 3.02355469 -19.19382812 3.01195312 -20 3 C-20 2.67 -20 2.34 -20 2 C-13.38190423 -0.46254726 -6.99560484 -0.18935472 0 0 Z " fill="#A6C0E2" transform="translate(342,134)"/>
<path d="M0 0 C-0.639375 0.309375 -1.27875 0.61875 -1.9375 0.9375 C-3.93610821 1.8345163 -3.93610821 1.8345163 -5 3 C-6.51928038 3.07179964 -8.04167482 3.08392007 -9.5625 3.0625 C-10.38878906 3.05347656 -11.21507812 3.04445313 -12.06640625 3.03515625 C-12.70449219 3.02355469 -13.34257812 3.01195312 -14 3 C-14 3.66 -14 4.32 -14 5 C-16.64 5 -19.28 5 -22 5 C-22 4.67 -22 4.34 -22 4 C-19.4604163 3.32438628 -16.91881165 2.65934172 -14.375 2 C-13.66214844 1.80921875 -12.94929687 1.6184375 -12.21484375 1.421875 C-8.04151456 0.34982713 -4.34821249 -0.21946814 0 0 Z " fill="#C7DD80" transform="translate(178,27)"/>
<path d="M0 0 C-1.59092052 4.13639336 -4.60474918 7.23213248 -8 10 C-8.66 10 -9.32 10 -10 10 C-8.50006099 6.10015857 -4.53875449 0 0 0 Z " fill="#CFDBEE" transform="translate(130,248)"/>
<path d="M0 0 C1.27351308 2.54702616 0.80191925 3.4282945 0.0625 6.125 C-0.13214844 6.84945313 -0.32679688 7.57390625 -0.52734375 8.3203125 C-0.68332031 8.87460937 -0.83929688 9.42890625 -1 10 C-0.34 10 0.32 10 1 10 C1.33 11.98 1.66 13.96 2 16 C1.34 15.67 0.68 15.34 0 15 C0 14.34 0 13.68 0 13 C-0.66 13 -1.32 13 -2 13 C-2.05391993 11.20866022 -2.09275571 9.41686101 -2.125 7.625 C-2.14820313 6.62726563 -2.17140625 5.62953125 -2.1953125 4.6015625 C-2 2 -2 2 0 0 Z " fill="#A1BEE2" transform="translate(146,267)"/>
<path d="M0 0 C0.66 0 1.32 0 2 0 C1.67 1.98 1.34 3.96 1 6 C0.34 6 -0.32 6 -1 6 C-1.309375 6.78375 -1.61875 7.5675 -1.9375 8.375 C-3 11 -3 11 -4 13 C-4.66 13 -5.32 13 -6 13 C-4.31326082 8.50202887 -2.18326108 4.27113698 0 0 Z " fill="#C2D8EE" transform="translate(447,451)"/>
<path d="M0 0 C0.721875 0.144375 1.44375 0.28875 2.1875 0.4375 C3.5796875 0.7159375 3.5796875 0.7159375 5 1 C6.66666667 1.33333333 8.33333333 1.66666667 10 2 C10 2.66 10 3.32 10 4 C11.32 4.33 12.64 4.66 14 5 C11.69 5 9.38 5 7 5 C7 4.34 7 3.68 7 3 C5.35 3 3.7 3 2 3 C2 2.34 2 1.68 2 1 C1.34 0.67 0.68 0.34 0 0 Z " fill="#A3CBE9" transform="translate(128,495)"/>
<path d="M0 0 C0 0.33 0 0.66 0 1 C-1.65 1 -3.3 1 -5 1 C-5 1.66 -5 2.32 -5 3 C-8.63 3 -12.26 3 -16 3 C-16 2.67 -16 2.34 -16 2 C-10.51324804 0.13216954 -5.77807024 -0.2358396 0 0 Z " fill="#CEE2B1" transform="translate(331,107)"/>
<path d="M0 0 C4.92127034 -0.16682272 8.50343896 -0.24828052 13 2 C13 2.33 13 2.66 13 3 C8.07872966 3.16682272 4.49656104 3.24828052 0 1 C0 0.67 0 0.34 0 0 Z " fill="#9EC8E8" transform="translate(142,500)"/>
<path d="M0 0 C0.66 0.99 1.32 1.98 2 3 C1.34 3 0.68 3 0 3 C0 4.65 0 6.3 0 8 C-0.66 8 -1.32 8 -2 8 C-2 9.98 -2 11.96 -2 14 C-2.33 14 -2.66 14 -3 14 C-3.32374517 8.49633208 -3.53286034 4.56327794 0 0 Z " fill="#C7DD7D" transform="translate(105,57)"/>
<path d="M0 0 C1.65 0 3.3 0 5 0 C4.01 0.33 3.02 0.66 2 1 C2 1.66 2 2.32 2 3 C-1.13498292 4.85776765 -3.37471432 5.20140476 -7 5 C-5.75 3.5 -5.75 3.5 -4 2 C-2.68 2 -1.36 2 0 2 C0 1.34 0 0.68 0 0 Z " fill="#9CC1E5" transform="translate(394,490)"/>
<path d="M0 0 C-0.639375 0.309375 -1.27875 0.61875 -1.9375 0.9375 C-3.93610821 1.8345163 -3.93610821 1.8345163 -5 3 C-6.51469448 3.23192865 -8.03754562 3.41215238 -9.5625 3.5625 C-10.80193359 3.68818359 -10.80193359 3.68818359 -12.06640625 3.81640625 C-13.02353516 3.90728516 -13.02353516 3.90728516 -14 4 C-13 2 -13 2 -10.375 0.875 C-6.78189212 -0.05654649 -3.69584376 -0.14783375 0 0 Z " fill="#9EBCE1" transform="translate(258,240)"/>
<path d="M0 0 C9.41002278 -0.3690205 9.41002278 -0.3690205 14 2 C14 2.33 14 2.66 14 3 C8.80790596 3.21192221 4.873261 2.5912689 0 1 C0 0.67 0 0.34 0 0 Z " fill="#A5C2E4" transform="translate(147,129)"/>
<path d="M0 0 C1 2 1 2 0.3125 4.5625 C-0.120625 5.366875 -0.55375 6.17125 -1 7 C-2.32 7.33 -3.64 7.66 -5 8 C-3.35 5.36 -1.7 2.72 0 0 Z " fill="#5292D1" transform="translate(191,345)"/>
</svg>
